{"glyphs":{"0":{"ha":692,"x_min":42,"x_max":650,"o":"m 122 113 q 82 177 122 113 q 42 429 42 240 q 122 745 42 618 q 346 872 203 872 q 569 745 489 872 q 650 429 650 618 q 569 113 650 240 q 346 -14 489 -14 q 122 113 203 -14 m 198 680 q 168 632 198 680 q 139 429 139 585 q 198 178 139 274 q 346 83 257 83 q 494 178 435 83 q 553 429 553 274 q 494 680 553 585 q 346 775 435 775 q 198 680 257 775 z "},"1":{"ha":389,"x_min":28,"x_max":361,"o":"m 49 735 l 49 815 l 174 857 l 243 857 l 243 97 l 361 97 l 361 0 l 28 0 l 28 97 l 146 97 l 146 746 l 49 735 z "},"2":{"ha":549,"x_min":42,"x_max":507,"o":"m 428 435 l 181 99 l 507 99 l 507 0 l 47 0 l 47 85 l 350 493 q 411 640 411 574 q 357 739 411 699 q 283 764 326 764 q 198 731 242 764 q 119 636 154 699 l 42 697 q 150 816 83 772 q 289 860 217 860 q 418 819 361 860 q 507 647 507 756 q 428 435 507 543 z "},"3":{"ha":599,"x_min":42,"x_max":557,"o":"m 299 861 q 478 799 399 861 q 557 621 557 736 q 457 432 557 496 q 557 240 557 364 q 478 63 557 125 q 299 0 399 0 q 151 48 219 0 q 42 178 83 96 l 128 225 q 204 131 157 164 q 299 99 251 99 q 415 138 371 99 q 460 240 460 178 q 415 342 460 303 q 293 382 371 381 l 169 382 l 169 481 l 294 481 q 415 521 371 482 q 460 621 460 560 q 415 724 460 683 q 299 764 369 764 q 205 731 253 764 q 128 636 157 697 l 42 685 q 151 814 82 767 q 299 861 219 861 z "},"4":{"ha":588,"x_min":28,"x_max":560,"o":"m 28 375 l 346 857 l 463 857 l 463 375 l 560 375 l 560 278 l 463 278 l 463 0 l 365 0 l 365 278 l 28 278 l 28 375 m 144 375 l 365 375 l 365 710 l 144 375 z "},"5":{"ha":599,"x_min":42,"x_max":557,"o":"m 96 382 l 96 857 l 518 857 l 518 760 l 193 760 l 193 481 l 285 481 q 476 419 396 481 q 557 240 557 357 q 478 63 557 125 q 299 0 399 0 q 151 48 219 0 q 42 178 83 96 l 128 225 q 204 131 157 164 q 299 99 251 99 q 415 138 371 99 q 460 240 460 178 q 413 343 460 304 q 285 382 365 382 l 96 382 z "},"6":{"ha":611,"x_min":42,"x_max":569,"o":"m 42 276 q 75 511 42 404 q 165 690 108 618 q 289 806 221 761 q 432 868 357 851 l 432 771 q 284 685 353 746 q 178 521 215 624 q 306 553 232 553 q 494 473 419 553 q 569 276 569 393 q 494 81 569 161 q 306 0 419 0 q 117 81 192 0 q 42 276 42 161 m 140 276 q 187 150 140 201 q 306 99 233 99 q 424 150 378 99 q 471 276 471 201 q 424 404 471 353 q 306 456 378 456 q 187 404 233 456 q 140 276 140 353 z "},"7":{"ha":504,"x_min":28,"x_max":476,"o":"m 28 760 l 28 857 l 476 857 l 476 760 l 157 0 l 51 0 l 371 760 l 28 760 z "},"8":{"ha":590,"x_min":42,"x_max":549,"o":"m 42 617 q 115 790 42 722 q 294 858 188 858 q 475 790 401 858 q 549 617 549 721 q 453 429 549 497 q 549 239 549 358 q 475 67 549 135 q 294 0 401 0 q 115 67 188 0 q 42 239 42 135 q 136 429 42 360 q 42 617 42 497 m 140 239 q 185 138 140 176 q 294 99 229 99 q 406 138 361 99 q 451 239 451 176 q 406 342 451 303 q 294 381 361 381 q 185 342 229 381 q 140 239 140 303 m 140 618 q 184 518 140 556 q 294 481 228 481 l 300 481 q 408 520 365 483 q 451 618 451 557 q 406 720 451 682 q 294 758 361 758 q 184 720 228 758 q 140 618 140 682 z "},"9":{"ha":611,"x_min":42,"x_max":569,"o":"m 569 581 q 536 346 569 453 q 447 167 503 239 q 322 51 390 96 q 179 -11 254 6 l 179 86 q 327 172 258 111 q 433 336 396 233 q 306 304 379 304 q 117 384 192 304 q 42 581 42 464 q 117 776 42 696 q 306 857 192 857 q 494 776 419 857 q 569 581 569 696 m 471 581 q 424 707 471 656 q 306 758 378 758 q 187 707 233 758 q 140 581 140 656 q 187 453 140 504 q 306 401 233 401 q 424 453 378 401 q 471 581 471 504 z "}," ":{"ha":340,"x_min":0,"x_max":0,"o":""},"!":{"ha":264,"x_min":83,"x_max":181,"o":"m 83 153 l 83 957 l 181 957 l 181 153 l 83 153 m 98 15 q 91 22 98 15 q 83 49 83 29 q 98 83 83 68 q 132 97 113 97 q 166 83 151 97 q 181 49 181 68 q 166 15 181 29 q 132 0 151 0 q 98 15 113 0 z "},"\"":{"ha":319,"x_min":42,"x_max":278,"o":"m 49 719 l 42 957 l 139 957 l 132 719 l 49 719 m 188 719 l 181 957 l 278 957 l 271 719 l 188 719 z "},"#":{"ha":740,"x_min":42,"x_max":699,"o":"m 397 138 l 431 310 l 251 310 l 218 138 l 119 138 l 153 310 l 42 310 l 42 407 l 171 407 l 200 560 l 42 560 l 42 657 l 219 657 l 258 857 l 357 857 l 318 657 l 497 657 l 536 857 l 635 857 l 596 657 l 699 657 l 699 560 l 576 560 l 547 407 l 699 407 l 699 310 l 529 310 l 496 138 l 397 138 m 299 560 l 269 407 l 449 407 l 478 560 l 299 560 z "},"$":{"ha":603,"x_min":42,"x_max":561,"o":"m 264 0 l 264 107 q 42 279 107 125 l 128 328 q 264 204 169 224 l 264 442 q 116 508 168 465 q 64 649 64 551 q 119 777 64 718 q 264 849 175 836 l 264 957 l 361 957 l 361 846 q 481 788 429 832 q 557 676 532 743 l 471 628 q 361 746 442 715 l 361 515 q 437 491 407 503 q 499 457 467 479 q 546 397 531 435 q 561 308 561 360 q 506 178 561 233 q 361 110 450 124 l 361 0 l 264 0 m 465 308 q 438 377 465 353 q 361 417 411 401 l 361 207 q 435 243 406 217 q 465 308 465 269 m 160 649 q 187 579 160 604 q 264 539 214 554 l 264 750 q 190 713 221 740 q 160 649 160 685 z "},"%":{"ha":1029,"x_min":42,"x_max":988,"o":"m 42 572 q 100 713 42 654 q 239 771 158 771 q 379 713 321 771 q 438 572 438 654 q 379 433 438 490 q 239 375 321 375 q 100 433 158 375 q 42 572 42 492 m 169 643 q 155 628 169 643 q 140 572 140 614 q 169 501 140 531 q 239 472 197 472 q 310 501 281 472 q 340 572 340 531 q 310 643 340 614 q 239 672 281 672 q 169 643 197 672 m 264 0 l 656 857 l 761 857 l 369 0 l 264 0 m 650 151 q 621 180 650 151 q 592 290 592 208 q 650 431 592 372 q 789 489 708 489 q 928 431 869 489 q 988 290 988 372 q 929 151 988 210 q 789 93 871 93 q 650 151 708 93 m 719 361 q 705 347 719 361 q 690 290 690 332 q 719 219 690 249 q 789 190 747 190 q 860 219 831 190 q 890 290 890 249 q 860 361 890 332 q 789 390 831 390 q 719 361 747 390 z "},"&":{"ha":807,"x_min":42,"x_max":807,"o":"m 293 461 l 567 215 q 579 296 579 250 l 579 436 l 447 436 l 447 535 l 678 535 l 678 296 q 643 146 678 213 l 807 0 l 660 0 l 583 68 q 360 -14 494 -14 q 135 60 228 -14 q 42 257 42 133 q 158 467 42 386 q 160 761 50 624 q 359 829 250 846 q 553 719 468 813 l 490 646 q 430 694 461 674 q 363 728 399 715 q 294 734 328 742 q 235 697 260 726 q 205 616 201 660 q 231 534 208 572 q 293 461 254 496 m 360 85 q 511 132 456 85 l 229 386 q 221 393 226 388 q 140 257 140 342 q 198 132 140 179 q 360 85 256 85 z "},"'":{"ha":181,"x_min":42,"x_max":139,"o":"m 49 719 l 42 957 l 139 957 l 132 719 l 49 719 z "},"(":{"ha":360,"x_min":69,"x_max":332,"o":"m 69 193 l 69 764 q 134 1008 69 919 q 332 1096 199 1096 l 332 999 q 206 934 244 999 q 167 722 167 869 l 167 235 q 206 23 167 88 q 332 -42 244 -42 l 332 -139 q 134 -51 199 -139 q 69 193 69 38 z "},")":{"ha":360,"x_min":28,"x_max":290,"o":"m 290 764 l 290 193 q 226 -51 290 38 q 28 -139 161 -139 l 28 -42 q 154 23 115 -42 q 193 235 193 88 l 193 722 q 154 934 193 869 q 28 999 115 999 l 28 1096 q 226 1008 161 1096 q 290 764 290 919 z "},"*":{"ha":629,"x_min":42,"x_max":588,"o":"m 586 297 l 547 225 l 364 322 l 357 115 l 272 115 l 265 324 l 85 226 l 42 296 l 219 407 l 43 515 l 82 588 l 265 492 l 272 697 l 356 697 l 364 492 l 546 586 l 588 518 l 410 407 l 586 297 z "},"+":{"ha":522,"x_min":28,"x_max":494,"o":"m 213 685 l 310 685 l 310 451 l 494 451 l 494 354 l 310 354 l 310 121 l 213 121 l 213 354 l 28 354 l 28 451 l 213 451 l 213 685 z "},",":{"ha":181,"x_min":40,"x_max":142,"o":"m 44 29 q 59 63 44 49 q 93 78 74 78 q 127 63 113 78 q 142 29 142 49 q 138 10 142 18 l 79 -125 l 40 -117 l 44 29 z "},"-":{"ha":388,"x_min":28,"x_max":360,"o":"m 28 431 l 28 514 l 360 514 l 360 431 l 28 431 z "},".":{"ha":181,"x_min":42,"x_max":139,"o":"m 56 15 q 49 22 56 15 q 42 49 42 29 q 56 83 42 68 q 90 97 71 97 q 124 83 110 97 q 139 49 139 68 q 124 15 139 29 q 90 0 110 0 q 56 15 71 0 z "},"/":{"ha":293,"x_min":14,"x_max":279,"o":"m 14 0 l 181 957 l 279 957 l 113 0 l 14 0 z "},":":{"ha":181,"x_min":42,"x_max":139,"o":"m 56 153 q 49 161 56 153 q 42 188 42 168 q 56 222 42 207 q 90 236 71 236 q 124 222 110 236 q 139 188 139 207 q 124 153 139 168 q 90 139 110 139 q 56 153 71 139 m 56 459 q 49 466 56 459 q 42 493 42 474 q 56 527 42 513 q 90 542 71 542 q 124 527 110 542 q 139 493 139 513 q 124 459 139 474 q 90 444 110 444 q 56 459 71 444 z "},";":{"ha":181,"x_min":40,"x_max":142,"o":"m 56 459 q 49 466 56 459 q 42 493 42 474 q 56 527 42 513 q 90 542 71 542 q 124 527 110 542 q 139 493 139 513 q 124 459 139 474 q 90 444 110 444 q 56 459 71 444 m 44 168 q 59 202 44 188 q 93 217 74 217 q 127 202 113 217 q 142 168 142 188 q 138 149 142 157 l 79 14 l 40 22 l 44 168 z "},"<":{"ha":435,"x_min":28,"x_max":393,"o":"m 28 394 l 393 683 l 393 558 l 144 363 l 393 168 l 393 43 l 28 332 l 28 394 z "},"=":{"ha":481,"x_min":28,"x_max":453,"o":"m 453 535 l 453 438 l 28 438 l 28 535 l 453 535 m 453 368 l 453 271 l 28 271 l 28 368 l 453 368 z "},">":{"ha":435,"x_min":42,"x_max":407,"o":"m 42 683 l 407 394 l 407 332 l 42 43 l 42 168 l 290 363 l 42 558 l 42 683 z "},"?":{"ha":521,"x_min":14,"x_max":479,"o":"m 172 154 l 165 379 l 322 590 q 383 738 383 671 q 344 822 383 785 q 256 860 306 860 q 92 733 163 860 l 14 794 q 122 913 56 869 q 261 957 189 957 q 414 896 349 957 q 479 744 479 835 q 400 531 479 640 l 263 346 l 256 154 l 172 154 m 180 15 q 173 22 180 15 q 165 49 165 29 q 180 83 165 68 q 214 97 194 97 q 248 83 233 97 q 263 49 263 68 q 248 15 263 29 q 214 0 233 0 q 180 15 194 0 z "},"@":{"ha":894,"x_min":42,"x_max":853,"o":"m 265 360 q 310 503 265 444 q 433 561 354 561 q 492 550 465 561 l 492 561 l 590 561 l 590 307 q 610 224 590 256 q 660 192 629 192 q 732 243 710 192 q 754 360 754 294 q 665 578 754 489 q 447 667 576 667 q 229 578 318 667 q 140 360 140 489 q 235 142 140 231 q 469 53 331 53 l 469 -46 q 167 73 293 -46 q 42 360 42 192 q 160 647 42 528 q 447 765 279 765 q 734 647 615 765 q 853 360 853 528 q 805 177 853 261 q 660 93 757 93 q 519 185 567 93 q 433 160 483 160 q 310 218 354 160 q 265 360 265 276 m 433 463 q 364 360 364 463 q 433 258 364 258 q 492 297 474 258 l 492 422 q 433 463 475 463 z "},"A":{"ha":863,"x_min":28,"x_max":835,"o":"m 483 957 l 835 0 l 731 0 l 611 322 l 250 322 l 132 0 l 28 0 l 379 957 l 483 957 m 431 815 l 285 419 l 576 419 l 431 815 z "},"B":{"ha":710,"x_min":69,"x_max":668,"o":"m 69 0 l 69 957 l 254 957 q 519 894 424 957 q 615 701 615 831 q 514 506 615 572 q 668 271 668 436 q 570 71 668 142 q 307 0 472 0 l 69 0 m 571 271 q 551 351 571 317 q 501 403 531 385 q 425 431 471 421 q 342 444 379 442 q 254 447 304 447 l 168 447 l 168 99 l 307 99 q 506 146 442 99 q 571 271 571 193 m 254 858 l 168 858 l 168 546 l 254 546 q 518 701 518 546 q 254 858 518 858 z "},"C":{"ha":853,"x_min":42,"x_max":811,"o":"m 449 874 q 226 765 313 874 q 140 478 140 656 q 226 192 140 301 q 449 83 313 83 q 610 139 538 83 q 726 294 682 194 l 811 244 q 666 56 757 125 q 449 -14 575 -14 q 227 56 321 -14 q 88 235 133 125 q 42 478 42 344 q 150 828 42 686 q 449 971 258 971 q 666 901 575 971 q 811 713 757 832 l 726 663 q 610 818 682 763 q 449 874 538 874 z "},"D":{"ha":779,"x_min":69,"x_max":738,"o":"m 69 0 l 69 957 l 265 957 q 619 823 501 957 q 738 478 738 689 q 690 237 738 342 q 533 66 642 132 q 265 0 425 0 l 69 0 m 639 478 q 543 758 639 658 q 265 858 447 858 l 168 858 l 168 99 l 265 99 q 542 199 446 99 q 639 478 639 299 z "},"E":{"ha":667,"x_min":69,"x_max":611,"o":"m 69 0 l 69 957 l 611 957 l 611 860 l 167 860 l 167 457 l 611 457 l 611 360 l 167 360 l 167 97 l 611 97 l 611 0 l 69 0 z "},"F":{"ha":667,"x_min":69,"x_max":611,"o":"m 69 0 l 69 957 l 611 957 l 611 860 l 167 860 l 167 457 l 611 457 l 611 360 l 167 360 l 167 0 l 69 0 z "},"G":{"ha":894,"x_min":42,"x_max":853,"o":"m 450 438 l 450 535 l 853 535 q 748 135 853 283 q 449 -14 643 -14 q 227 56 321 -14 q 88 235 133 125 q 42 478 42 344 q 150 828 42 686 q 449 971 258 971 q 666 901 575 971 q 811 713 757 832 l 726 663 q 610 818 682 763 q 449 874 538 874 q 226 765 313 874 q 140 478 140 656 q 226 192 140 301 q 449 83 313 83 q 652 174 572 83 q 749 438 732 264 l 450 438 z "},"H":{"ha":806,"x_min":69,"x_max":736,"o":"m 639 0 l 639 360 l 167 360 l 167 0 l 69 0 l 69 957 l 167 957 l 167 457 l 639 457 l 639 957 l 736 957 l 736 0 l 639 0 z "},"I":{"ha":375,"x_min":139,"x_max":236,"o":"m 139 0 l 139 957 l 236 957 l 236 0 l 139 0 z "},"J":{"ha":415,"x_min":42,"x_max":346,"o":"m 249 401 l 249 957 l 346 957 l 346 360 q 265 94 346 203 q 42 -14 185 -14 l 42 83 q 249 401 249 83 z "},"K":{"ha":792,"x_min":69,"x_max":778,"o":"m 69 0 l 69 957 l 167 957 l 167 489 l 568 957 l 694 957 l 304 503 l 778 0 l 646 0 l 242 429 l 167 342 l 167 0 l 69 0 z "},"L":{"ha":639,"x_min":69,"x_max":611,"o":"m 69 0 l 69 957 l 167 957 l 167 97 l 611 97 l 611 0 l 69 0 z "},"M":{"ha":972,"x_min":42,"x_max":931,"o":"m 42 0 l 111 957 l 214 957 l 486 151 l 758 957 l 861 957 l 931 0 l 832 0 l 781 719 l 538 0 l 435 0 l 192 719 l 140 0 l 42 0 z "},"N":{"ha":826,"x_min":69,"x_max":757,"o":"m 643 0 l 167 794 l 167 0 l 69 0 l 69 957 l 183 957 l 660 163 l 660 957 l 757 957 l 757 0 l 643 0 z "},"O":{"ha":886,"x_min":42,"x_max":844,"o":"m 42 478 q 149 828 42 686 q 444 971 257 971 q 738 828 632 971 q 844 478 844 686 q 738 128 844 271 q 444 -14 632 -14 q 149 128 257 -14 q 42 478 42 271 m 139 478 q 228 198 139 314 q 443 82 317 82 q 659 198 569 82 q 749 478 749 314 q 659 758 749 642 q 443 875 569 875 q 228 759 317 875 q 139 478 139 643 z "},"P":{"ha":678,"x_min":69,"x_max":636,"o":"m 276 360 l 167 360 l 167 0 l 69 0 l 69 957 l 276 957 q 540 874 443 957 q 636 660 636 790 q 540 444 636 528 q 276 360 443 360 m 235 860 l 167 860 l 167 457 l 235 457 q 539 660 539 457 q 235 860 539 860 z "},"Q":{"ha":886,"x_min":42,"x_max":844,"o":"m 42 478 q 149 828 42 686 q 444 971 257 971 q 738 828 632 971 q 844 478 844 686 q 752 147 844 286 q 496 -11 660 8 q 545 -146 504 -107 q 658 -185 586 -185 l 658 -282 q 475 -210 539 -282 q 399 -11 411 -139 q 136 146 231 7 q 42 478 42 285 m 139 478 q 213 219 139 329 q 396 86 286 108 l 396 360 l 493 360 l 493 86 q 676 220 603 110 q 749 478 749 331 q 659 758 749 642 q 443 875 569 875 q 228 759 317 875 q 139 478 139 643 z "},"R":{"ha":722,"x_min":69,"x_max":708,"o":"m 69 0 l 69 957 l 290 957 q 553 874 457 957 q 650 660 650 790 q 589 481 650 557 q 418 375 528 406 l 708 0 l 586 0 l 308 360 l 167 360 l 167 0 l 69 0 m 249 457 q 553 660 553 457 q 249 860 553 860 l 167 860 l 167 457 l 249 457 z "},"S":{"ha":692,"x_min":42,"x_max":650,"o":"m 551 260 q 535 333 551 303 q 485 382 519 363 q 422 411 450 401 q 342 433 393 421 q 259 454 289 446 q 186 483 229 463 q 121 529 143 504 q 81 597 99 554 q 64 697 64 640 q 140 894 64 817 q 338 971 215 971 q 506 916 433 971 q 619 767 578 861 l 532 718 q 449 832 500 792 q 338 872 399 872 q 215 826 268 872 q 163 697 163 779 q 178 624 163 654 q 229 575 194 594 q 292 546 264 556 q 372 524 321 536 q 455 503 425 511 q 528 474 485 494 q 593 428 571 453 q 633 360 615 403 q 650 260 650 317 q 557 61 650 136 q 338 -14 464 -14 q 42 190 132 -14 l 129 239 q 338 85 196 85 q 484 128 417 85 q 551 260 551 172 z "},"T":{"ha":667,"x_min":28,"x_max":639,"o":"m 28 860 l 28 957 l 639 957 l 639 860 l 382 860 l 382 0 l 285 0 l 285 860 l 28 860 z "},"U":{"ha":886,"x_min":69,"x_max":817,"o":"m 719 519 l 719 957 l 817 957 l 817 478 q 794 290 817 376 q 728 135 772 204 q 612 26 685 65 q 444 -14 539 -14 q 165 126 260 -14 q 69 478 69 267 l 69 957 l 167 957 l 167 519 q 237 199 167 317 q 444 82 307 82 q 650 199 581 82 q 719 519 719 317 z "},"V":{"ha":863,"x_min":28,"x_max":835,"o":"m 379 0 l 28 957 l 132 957 l 431 142 l 731 957 l 835 957 l 483 0 l 379 0 z "},"W":{"ha":1136,"x_min":28,"x_max":1108,"o":"m 849 0 l 568 808 l 288 0 l 185 0 l 28 957 l 126 957 l 251 193 l 517 957 l 619 957 l 885 193 l 1010 957 l 1108 957 l 951 0 l 849 0 z "},"X":{"ha":739,"x_min":28,"x_max":711,"o":"m 597 0 l 369 382 l 142 0 l 28 0 l 313 478 l 28 957 l 142 957 l 369 574 l 597 957 l 711 957 l 426 478 l 711 0 l 597 0 z "},"Y":{"ha":650,"x_min":28,"x_max":622,"o":"m 275 0 l 275 385 l 28 957 l 133 957 l 325 511 l 517 957 l 622 957 l 372 378 l 372 0 l 275 0 z "},"Z":{"ha":667,"x_min":28,"x_max":639,"o":"m 28 860 l 28 957 l 639 957 l 639 860 l 143 97 l 639 97 l 639 0 l 28 0 l 28 97 l 524 860 l 28 860 z "},"[":{"ha":306,"x_min":83,"x_max":278,"o":"m 83 -139 l 83 1096 l 278 1096 l 278 999 l 181 999 l 181 -42 l 278 -42 l 278 -139 l 83 -139 z "},"\\":{"ha":293,"x_min":14,"x_max":279,"o":"m 113 957 l 279 0 l 181 0 l 14 957 l 113 957 z "},"]":{"ha":306,"x_min":28,"x_max":222,"o":"m 222 1096 l 222 -139 l 28 -139 l 28 -42 l 125 -42 l 125 999 l 28 999 l 28 1096 l 222 1096 z "},"^":{"ha":460,"x_min":14,"x_max":446,"o":"m 176 957 l 283 957 l 446 621 l 339 621 l 229 846 l 121 621 l 14 621 l 176 957 z "},"_":{"ha":526,"x_min":28,"x_max":499,"o":"m 28 0 l 28 97 l 499 97 l 499 0 l 28 0 z "},"`":{"ha":215,"x_min":14,"x_max":201,"o":"m 89 1071 l 201 839 l 156 811 l 14 1028 l 89 1071 z "},"a":{"ha":719,"x_min":42,"x_max":650,"o":"m 650 719 l 650 0 l 553 0 l 553 75 q 346 -14 472 -14 q 122 94 203 -14 q 42 360 42 203 q 122 625 42 517 q 346 733 203 733 q 553 644 472 733 l 553 719 l 650 719 m 199 555 q 169 514 199 555 q 139 360 139 474 q 199 165 139 246 q 346 83 260 83 q 492 165 432 83 q 553 360 553 246 q 492 555 553 474 q 346 636 432 636 q 199 555 260 636 z "},"b":{"ha":719,"x_min":69,"x_max":678,"o":"m 69 0 l 69 957 l 167 957 l 167 644 q 374 733 249 733 q 597 625 517 733 q 678 360 678 517 q 597 94 678 203 q 374 -14 517 -14 q 167 75 247 -14 l 167 0 l 69 0 m 227 555 q 197 514 227 555 q 167 360 167 474 q 227 165 167 246 q 374 83 288 83 q 520 165 460 83 q 581 360 581 246 q 520 555 581 474 q 374 636 460 636 q 227 555 288 636 z "},"c":{"ha":653,"x_min":42,"x_max":611,"o":"m 202 558 q 170 519 202 558 q 139 360 139 481 q 202 161 139 239 q 346 83 265 83 q 443 116 393 83 q 524 217 493 149 l 611 167 q 506 35 574 83 q 346 -14 439 -14 q 122 94 203 -14 q 42 360 42 203 q 122 625 42 517 q 346 733 203 733 q 506 685 439 733 q 611 553 574 636 l 524 503 q 443 603 493 571 q 346 636 393 636 q 202 558 265 636 z "},"d":{"ha":719,"x_min":42,"x_max":650,"o":"m 650 957 l 650 0 l 553 0 l 553 75 q 346 -14 471 -14 q 122 94 203 -14 q 42 360 42 203 q 122 625 42 517 q 346 733 203 733 q 553 644 471 733 l 553 957 l 650 957 m 199 555 q 169 514 199 555 q 139 360 139 474 q 199 165 139 246 q 346 83 260 83 q 492 165 432 83 q 553 360 553 246 q 492 555 553 474 q 346 636 432 636 q 199 555 260 636 z "},"e":{"ha":692,"x_min":42,"x_max":650,"o":"m 122 94 q 82 149 122 94 q 42 360 42 203 q 122 625 42 517 q 346 733 203 733 q 569 625 489 733 q 650 360 650 517 l 139 360 q 202 161 139 239 q 346 83 265 83 q 443 116 393 83 q 524 217 493 149 l 611 167 q 506 35 574 83 q 346 -14 439 -14 q 122 94 203 -14 m 464 586 q 438 611 464 586 q 346 636 411 636 q 227 586 281 636 q 151 457 174 536 l 539 457 q 464 586 517 536 z "},"f":{"ha":499,"x_min":28,"x_max":471,"o":"m 28 622 l 28 719 l 168 719 q 232 908 176 846 q 401 971 288 971 l 401 874 q 306 841 339 874 q 265 719 272 808 l 471 719 l 471 622 l 264 622 l 264 0 l 167 0 l 167 622 l 28 622 z "},"g":{"ha":719,"x_min":42,"x_max":650,"o":"m 650 719 l 650 92 q 569 -174 650 -65 q 346 -282 489 -282 q 185 -233 253 -282 q 81 -101 118 -185 l 168 -51 q 249 -152 199 -119 q 346 -185 299 -185 q 486 -115 425 -185 q 553 75 547 -46 q 346 -14 472 -14 q 122 94 203 -14 q 42 360 42 203 q 122 625 42 517 q 346 733 203 733 q 553 644 471 733 l 553 719 l 650 719 m 199 555 q 169 514 199 555 q 139 360 139 474 q 199 165 139 246 q 346 83 260 83 q 492 165 432 83 q 553 360 553 246 q 492 555 553 474 q 346 636 432 636 q 199 555 260 636 z "},"h":{"ha":733,"x_min":69,"x_max":678,"o":"m 581 0 l 581 360 q 520 555 581 474 q 374 636 460 636 q 230 559 290 636 q 167 371 169 482 l 167 0 l 69 0 l 69 957 l 167 957 l 167 646 q 374 733 247 733 q 597 625 517 733 q 678 360 678 517 l 678 0 l 581 0 z "},"i":{"ha":264,"x_min":83,"x_max":181,"o":"m 181 719 l 181 0 l 83 0 l 83 719 l 181 719 m 98 790 q 91 797 98 790 q 83 824 83 804 q 98 858 83 843 q 132 872 113 872 q 166 858 151 872 q 181 824 181 843 q 166 790 181 804 q 132 775 151 775 q 98 790 113 775 z "},"j":{"ha":292,"x_min":-68,"x_max":194,"o":"m 97 50 l 97 719 l 194 719 l 194 50 q 130 -194 194 -106 q -68 -282 65 -282 l -68 -185 q 56 -133 14 -185 q 97 50 97 -81 m 112 790 q 105 797 112 790 q 97 824 97 804 q 112 858 97 843 q 146 872 126 872 q 180 858 165 872 q 194 824 194 843 q 180 790 194 804 q 146 775 165 775 q 112 790 126 775 z "},"k":{"ha":667,"x_min":69,"x_max":653,"o":"m 69 0 l 69 957 l 167 957 l 167 426 l 444 719 l 578 719 l 272 399 l 653 0 l 518 0 l 206 328 l 167 286 l 167 0 l 69 0 z "},"l":{"ha":264,"x_min":83,"x_max":181,"o":"m 83 0 l 83 957 l 181 957 l 181 0 l 83 0 z "},"m":{"ha":1078,"x_min":69,"x_max":1022,"o":"m 497 0 l 497 332 q 453 558 497 479 q 332 636 410 636 q 213 561 257 636 q 167 346 168 486 l 167 0 l 69 0 l 69 719 l 167 719 l 167 671 q 332 733 232 733 q 546 604 478 733 q 760 733 614 733 q 957 633 892 733 q 1022 374 1022 533 l 1022 0 l 925 0 l 925 332 q 881 558 925 479 q 760 636 838 636 q 640 561 685 636 q 594 346 596 486 l 594 0 l 497 0 z "},"n":{"ha":733,"x_min":69,"x_max":678,"o":"m 581 0 l 581 360 q 520 555 581 474 q 374 636 460 636 q 230 559 290 636 q 167 371 169 482 l 167 0 l 69 0 l 69 719 l 167 719 l 167 644 q 374 733 249 733 q 597 625 517 733 q 678 360 678 517 l 678 0 l 581 0 z "},"o":{"ha":692,"x_min":42,"x_max":650,"o":"m 122 94 q 82 149 122 94 q 42 360 42 203 q 122 625 42 517 q 346 733 203 733 q 569 625 489 733 q 650 360 650 517 q 569 94 650 203 q 346 -14 489 -14 q 122 94 203 -14 m 199 555 q 169 514 199 555 q 139 360 139 474 q 199 165 139 246 q 346 83 260 83 q 492 165 432 83 q 553 360 553 246 q 492 555 553 474 q 346 636 432 636 q 199 555 260 636 z "},"p":{"ha":719,"x_min":69,"x_max":678,"o":"m 69 -268 l 69 719 l 167 719 l 167 646 q 374 733 247 733 q 597 625 517 733 q 678 360 678 517 q 597 94 678 203 q 374 -14 517 -14 q 167 75 247 -14 l 167 -268 l 69 -268 m 227 555 q 197 514 227 555 q 167 360 167 474 q 227 165 167 246 q 374 83 288 83 q 520 165 460 83 q 581 360 581 246 q 520 555 581 474 q 374 636 460 636 q 227 555 288 636 z "},"q":{"ha":692,"x_min":42,"x_max":650,"o":"m 42 360 q 122 625 42 517 q 346 733 203 733 q 569 625 489 733 q 650 360 650 517 q 583 114 650 218 q 397 -10 517 10 q 447 -146 406 -107 q 560 -185 488 -185 l 560 -282 q 376 -210 440 -282 q 299 -10 311 -139 q 110 111 178 7 q 42 360 42 215 m 139 360 q 183 188 139 263 q 297 90 228 113 l 297 360 l 394 360 l 394 90 q 508 188 463 113 q 553 360 553 263 q 492 555 553 474 q 346 636 432 636 q 199 555 260 636 q 139 360 139 474 z "},"r":{"ha":388,"x_min":83,"x_max":346,"o":"m 181 388 l 181 0 l 83 0 l 83 388 q 148 631 83 543 q 346 719 213 719 l 346 622 q 181 388 181 622 z "},"s":{"ha":603,"x_min":42,"x_max":561,"o":"m 465 190 q 453 242 465 221 q 412 278 440 264 q 361 299 383 292 q 297 315 339 306 q 228 332 253 325 q 167 356 204 339 q 112 394 131 374 q 78 449 93 414 q 64 531 64 485 q 132 671 64 608 q 306 733 200 733 q 461 686 394 733 q 557 558 528 639 l 471 510 q 406 604 451 571 q 306 638 360 638 q 205 606 250 638 q 160 531 160 575 q 172 478 160 500 q 213 443 185 457 q 264 422 242 429 q 328 406 286 415 q 397 389 372 396 q 458 365 421 382 q 513 327 494 347 q 547 272 532 307 q 561 190 561 236 q 488 46 561 104 q 306 -12 415 -12 q 42 161 117 -12 l 128 210 q 306 83 179 83 q 416 111 367 83 q 465 190 465 139 z "},"t":{"ha":528,"x_min":28,"x_max":500,"o":"m 28 622 l 28 719 l 215 719 l 215 957 l 313 957 l 313 719 l 500 719 l 500 622 l 313 622 l 313 0 l 215 0 l 215 622 l 28 622 z "},"u":{"ha":733,"x_min":56,"x_max":664,"o":"m 567 360 l 567 719 l 664 719 l 664 0 l 567 0 l 567 75 q 360 -14 486 -14 q 136 94 217 -14 q 56 360 56 203 l 56 719 l 153 719 l 153 360 q 213 165 153 246 q 360 83 274 83 q 506 165 446 83 q 567 360 567 246 z "},"v":{"ha":688,"x_min":28,"x_max":660,"o":"m 660 719 l 396 0 l 292 0 l 28 719 l 132 719 l 343 142 l 556 719 l 660 719 z "},"w":{"ha":1019,"x_min":28,"x_max":992,"o":"m 708 0 l 510 571 l 311 0 l 208 0 l 28 719 l 128 719 l 267 167 l 458 719 l 561 719 l 753 167 l 892 719 l 992 719 l 811 0 l 708 0 z "},"x":{"ha":629,"x_min":28,"x_max":601,"o":"m 601 719 l 372 360 l 601 0 l 486 0 l 314 269 l 143 0 l 28 0 l 257 360 l 28 719 l 143 719 l 314 450 l 486 719 l 601 719 z "},"y":{"ha":690,"x_min":28,"x_max":663,"o":"m 663 719 l 300 -268 l 196 -268 l 293 -3 l 28 719 l 131 719 l 344 136 l 558 719 l 663 719 z "},"z":{"ha":568,"x_min":42,"x_max":526,"o":"m 42 622 l 42 719 l 526 719 l 526 622 l 160 97 l 526 97 l 526 0 l 42 0 l 42 97 l 408 622 l 42 622 z "},"{":{"ha":525,"x_min":28,"x_max":497,"o":"m 235 764 q 299 1008 235 919 q 497 1096 364 1096 l 497 999 q 372 951 413 999 q 332 764 332 903 q 211 467 332 547 q 332 169 332 385 q 372 -17 332 31 q 497 -65 413 -65 l 497 -162 q 299 -74 364 -162 q 235 169 235 14 q 183 365 235 311 q 28 418 132 418 l 28 515 q 183 569 132 515 q 235 764 235 622 z "},"|":{"ha":264,"x_min":83,"x_max":181,"o":"m 83 -268 l 83 957 l 181 957 l 181 -268 l 83 -268 z "},"}":{"ha":525,"x_min":28,"x_max":497,"o":"m 290 764 q 342 569 290 622 q 497 515 393 515 l 497 418 q 342 365 393 418 q 290 169 290 311 q 226 -74 290 14 q 28 -162 161 -162 l 28 -65 q 153 -17 113 -65 q 193 169 193 31 q 314 467 193 385 q 193 764 193 547 q 153 951 193 903 q 28 999 113 999 l 28 1096 q 226 1008 161 1096 q 290 764 290 919 z "},"~":{"ha":501,"x_min":28,"x_max":474,"o":"m 389 421 q 333 475 358 475 q 258 449 308 475 q 172 422 208 422 q 28 524 86 422 l 113 571 q 171 519 144 519 q 247 544 194 519 q 332 569 299 569 q 474 469 417 569 l 389 421 z "},"¡":{"ha":264,"x_min":83,"x_max":181,"o":"m 83 0 l 83 804 l 181 804 l 181 0 l 83 0 m 98 874 q 91 882 98 874 q 83 908 83 889 q 98 942 83 928 q 132 957 113 957 q 166 942 151 957 q 181 908 181 928 q 166 874 181 889 q 132 860 151 860 q 98 874 113 860 z "},"¢":{"ha":653,"x_min":42,"x_max":611,"o":"m 299 0 l 299 108 q 110 232 178 128 q 42 479 42 336 q 110 726 42 622 q 299 849 178 831 l 299 957 l 396 957 l 396 849 q 611 672 542 825 l 524 622 q 396 747 481 719 l 396 211 q 524 336 481 239 l 611 286 q 396 110 543 133 l 396 0 l 299 0 m 139 479 q 185 304 139 376 q 299 210 231 232 l 299 747 q 185 653 232 726 q 139 479 139 581 z "},"£":{"ha":553,"x_min":42,"x_max":511,"o":"m 325 583 l 325 556 l 511 556 l 511 458 l 325 458 l 325 332 q 257 97 325 185 l 511 97 l 511 0 l 42 0 l 42 97 q 183 162 139 97 q 228 374 228 226 l 228 458 l 42 458 l 42 556 l 228 556 l 228 625 q 301 867 228 778 q 511 957 375 957 l 511 860 q 369 795 414 860 q 325 583 325 731 z "},"¤":{"ha":690,"x_min":28,"x_max":663,"o":"m 40 478 q 140 767 40 661 l 28 957 l 142 957 l 219 824 q 344 851 275 851 q 469 824 410 851 l 549 957 l 663 957 l 549 765 q 649 478 649 658 q 549 190 649 297 l 663 0 l 549 0 l 469 132 q 344 104 414 104 q 219 132 275 104 l 142 0 l 28 0 l 140 189 q 40 478 40 297 m 197 678 q 167 641 197 678 q 138 478 138 603 q 197 277 138 353 q 344 201 256 201 q 492 277 433 201 q 551 478 551 353 q 492 678 551 603 q 344 754 433 754 q 197 678 256 754 z "},"¥":{"ha":650,"x_min":28,"x_max":622,"o":"m 89 360 l 89 457 l 243 457 l 28 957 l 133 957 l 325 511 l 517 957 l 622 957 l 406 457 l 561 457 l 561 360 l 372 360 l 372 290 l 561 290 l 561 193 l 372 193 l 372 0 l 275 0 l 275 193 l 89 193 l 89 290 l 275 290 l 275 360 l 89 360 z "},"¦":{"ha":264,"x_min":83,"x_max":181,"o":"m 181 514 l 83 514 l 83 957 l 181 957 l 181 514 m 83 360 l 181 360 l 181 -268 l 83 -268 l 83 360 z "},"§":{"ha":603,"x_min":42,"x_max":561,"o":"m 64 529 q 104 640 64 589 q 64 768 64 688 q 132 908 64 846 q 306 971 200 971 q 461 924 394 971 q 557 796 528 876 l 471 747 q 406 842 451 808 q 306 875 360 875 q 205 844 250 875 q 160 768 160 813 q 172 716 160 738 q 213 681 185 694 q 264 660 242 667 q 328 643 286 653 q 397 626 372 633 q 458 602 421 619 q 513 565 494 585 q 547 509 532 544 q 561 428 561 474 q 521 315 561 364 q 561 189 561 267 q 488 44 561 103 q 306 -14 415 -14 q 42 160 117 -14 l 128 208 q 306 82 179 82 q 416 110 367 82 q 465 189 465 138 q 453 241 465 219 q 412 276 440 263 q 361 297 383 290 q 297 314 339 304 q 228 331 253 324 q 167 355 204 338 q 112 392 131 372 q 78 448 93 413 q 64 529 64 483 m 328 404 q 442 371 417 382 q 465 428 465 397 q 453 480 465 458 q 412 515 440 501 q 361 536 383 529 q 297 553 339 543 q 183 586 222 568 q 160 529 160 560 q 172 477 160 499 q 213 442 185 456 q 264 421 242 428 q 328 404 286 414 z "},"¨":{"ha":271,"x_min":14,"x_max":257,"o":"m 28 840 q 21 847 28 840 q 14 874 14 854 q 28 908 14 893 q 63 922 43 922 q 97 908 82 922 q 111 874 111 893 q 97 840 111 854 q 63 825 82 825 q 28 840 43 825 m 174 840 q 167 847 174 840 q 160 874 160 854 q 174 908 160 893 q 208 922 189 922 q 242 908 228 922 q 257 874 257 893 q 242 840 257 854 q 208 825 228 825 q 174 840 189 825 z "},"©":{"ha":886,"x_min":42,"x_max":844,"o":"m 335 255 q 313 284 335 255 q 290 397 290 313 q 335 540 290 482 q 458 599 379 599 q 613 481 561 599 l 528 432 q 458 500 500 500 q 388 397 388 500 q 458 296 388 296 q 528 364 500 296 l 613 315 q 458 197 561 197 q 335 255 379 197 m 159 109 q 100 168 159 109 q 42 393 42 226 q 159 677 42 560 q 443 794 276 794 q 727 677 610 794 q 844 393 844 560 q 727 109 844 226 q 443 -8 610 -8 q 159 109 276 -8 m 228 608 q 184 563 228 608 q 139 393 139 518 q 228 178 139 268 q 443 89 318 89 q 658 178 568 89 q 747 393 747 268 q 658 608 747 518 q 443 697 568 697 q 228 608 318 697 z "},"®":{"ha":886,"x_min":42,"x_max":844,"o":"m 290 193 l 290 600 l 408 600 q 551 556 493 600 q 610 432 610 511 q 546 304 610 350 l 653 193 l 518 193 l 449 265 q 389 264 436 264 l 389 193 l 290 193 m 408 501 l 389 501 l 389 363 l 408 363 q 511 432 511 363 q 408 501 511 501 m 159 109 q 100 168 159 109 q 42 393 42 226 q 159 677 42 560 q 443 794 276 794 q 727 677 610 794 q 844 393 844 560 q 727 109 844 226 q 443 -8 610 -8 q 159 109 276 -8 m 228 608 q 184 563 228 608 q 139 393 139 518 q 228 178 139 268 q 443 89 318 89 q 658 178 568 89 q 747 393 747 268 q 658 608 747 518 q 443 697 568 697 q 228 608 318 697 z "},"¯":{"ha":332,"x_min":14,"x_max":318,"o":"m 14 839 l 14 908 l 318 908 l 318 839 l 14 839 z "},"°":{"ha":340,"x_min":42,"x_max":299,"o":"m 139 592 q 148 569 139 578 q 171 560 157 560 q 193 569 183 560 q 203 592 203 578 q 193 613 203 604 q 171 622 183 622 q 148 613 157 622 q 139 592 139 604 m 42 592 q 78 683 42 647 q 171 719 114 719 q 263 683 228 719 q 299 592 299 647 q 263 499 299 535 q 171 463 228 463 q 78 499 114 463 q 42 592 42 535 z "},"±":{"ha":481,"x_min":28,"x_max":453,"o":"m 192 685 l 289 685 l 289 507 l 453 507 l 453 410 l 289 410 l 289 232 l 192 232 l 192 410 l 28 410 l 28 507 l 192 507 l 192 685 m 453 176 l 453 79 l 28 79 l 28 176 l 453 176 z "},"´":{"ha":215,"x_min":14,"x_max":201,"o":"m 14 839 l 126 1071 l 201 1028 l 60 811 l 14 839 z "},"µ":{"ha":747,"x_min":69,"x_max":678,"o":"m 69 -268 l 69 719 l 167 719 l 167 360 q 227 165 167 246 q 374 83 288 83 q 517 160 457 83 q 581 349 578 238 l 581 719 l 678 719 l 678 0 l 581 0 l 581 75 q 374 -14 500 -14 q 167 75 247 -14 l 167 -268 l 69 -268 z "},"¶":{"ha":678,"x_min":42,"x_max":608,"o":"m 511 860 l 457 860 l 457 0 l 360 0 l 360 361 q 126 455 211 372 q 42 660 42 538 q 138 874 42 790 q 401 957 235 957 l 608 957 l 608 0 l 511 0 l 511 860 z "},"·":{"ha":181,"x_min":42,"x_max":139,"o":"m 56 459 q 49 466 56 459 q 42 493 42 474 q 56 527 42 513 q 90 542 71 542 q 124 527 110 542 q 139 493 139 513 q 124 459 139 474 q 90 444 110 444 q 56 459 71 444 z "},"¸":{"ha":278,"x_min":14,"x_max":264,"o":"m 28 -168 l 42 24 l 111 24 l 101 -99 l 125 -99 q 228 -129 193 -99 q 264 -210 264 -160 q 228 -290 264 -260 q 125 -321 193 -321 l 14 -321 l 14 -251 l 111 -251 q 196 -210 196 -251 q 111 -168 196 -168 l 28 -168 z "},"¿":{"ha":521,"x_min":42,"x_max":507,"o":"m 349 803 l 356 578 l 199 367 q 138 219 138 286 q 176 135 138 172 q 265 97 215 97 q 429 224 358 97 l 507 163 q 399 44 465 88 q 260 0 332 0 q 107 61 172 0 q 42 213 42 122 q 121 426 42 317 l 258 611 l 265 803 l 349 803 m 341 942 q 348 935 341 942 q 356 908 356 928 q 341 874 356 889 q 307 860 326 860 q 273 874 288 860 q 258 908 258 889 q 273 942 258 928 q 307 957 288 957 q 341 942 326 957 z "},"À":{"ha":863,"x_min":28,"x_max":835,"o":"m 483 957 l 835 0 l 731 0 l 611 322 l 250 322 l 132 0 l 28 0 l 379 957 l 483 957 m 431 815 l 285 419 l 576 419 l 431 815 m 413 1308 l 525 1076 l 479 1049 l 338 1265 l 413 1308 z "},"Á":{"ha":863,"x_min":28,"x_max":835,"o":"m 483 957 l 835 0 l 731 0 l 611 322 l 250 322 l 132 0 l 28 0 l 379 957 l 483 957 m 431 815 l 285 419 l 576 419 l 431 815 m 338 1076 l 450 1308 l 525 1265 l 383 1049 l 338 1076 z "},"Â":{"ha":863,"x_min":28,"x_max":835,"o":"m 483 957 l 835 0 l 731 0 l 611 322 l 250 322 l 132 0 l 28 0 l 379 957 l 483 957 m 431 815 l 285 419 l 576 419 l 431 815 m 394 1283 l 469 1283 l 558 1069 l 501 1049 l 432 1201 l 363 1049 l 306 1069 l 394 1283 z "},"Ã":{"ha":863,"x_min":28,"x_max":835,"o":"m 483 957 l 835 0 l 731 0 l 611 322 l 250 322 l 132 0 l 28 0 l 379 957 l 483 957 m 431 815 l 285 419 l 576 419 l 431 815 m 447 1094 q 352 1072 393 1061 q 278 1142 311 1083 l 325 1169 q 369 1139 354 1139 q 419 1161 385 1139 q 515 1185 476 1196 q 586 1114 553 1175 l 540 1088 q 510 1115 522 1110 q 488 1116 497 1119 q 447 1094 479 1113 z "},"Ä":{"ha":863,"x_min":28,"x_max":835,"o":"m 483 957 l 835 0 l 731 0 l 611 322 l 250 322 l 132 0 l 28 0 l 379 957 l 483 957 m 431 815 l 285 419 l 576 419 l 431 815 m 324 1077 q 317 1084 324 1077 q 310 1111 310 1092 q 324 1145 310 1131 q 358 1160 339 1160 q 392 1145 378 1160 q 407 1111 407 1131 q 392 1077 407 1092 q 358 1063 378 1063 q 324 1077 339 1063 m 470 1077 q 463 1084 470 1077 q 456 1111 456 1092 q 470 1145 456 1131 q 504 1160 485 1160 q 538 1145 524 1160 q 553 1111 553 1131 q 538 1077 553 1092 q 504 1063 524 1063 q 470 1077 485 1063 z "},"Å":{"ha":863,"x_min":28,"x_max":835,"o":"m 483 957 l 835 0 l 731 0 l 611 322 l 250 322 l 132 0 l 28 0 l 379 957 l 483 957 m 431 815 l 285 419 l 576 419 l 431 815 m 352 1080 q 336 1095 352 1080 q 321 1160 321 1111 q 352 1240 321 1208 q 432 1271 383 1271 q 512 1240 481 1271 q 543 1160 543 1208 q 512 1080 543 1111 q 432 1049 481 1049 q 352 1080 383 1049 m 401 1190 q 395 1184 401 1190 q 389 1160 389 1178 q 401 1129 389 1142 q 432 1117 414 1117 q 463 1129 450 1117 q 475 1160 475 1142 q 463 1190 475 1178 q 432 1203 450 1203 q 401 1190 414 1203 z "},"Æ":{"ha":981,"x_min":28,"x_max":925,"o":"m 386 0 l 386 360 l 264 360 l 132 0 l 28 0 l 379 957 l 925 957 l 925 860 l 483 860 l 483 457 l 925 457 l 925 360 l 483 360 l 483 97 l 925 97 l 925 0 l 386 0 m 299 457 l 386 457 l 386 693 l 299 457 z "},"Ç":{"ha":853,"x_min":42,"x_max":811,"o":"m 390 -168 l 401 -11 q 137 146 232 7 q 42 478 42 285 q 150 828 42 686 q 449 971 258 971 q 666 901 575 971 q 811 713 757 832 l 726 663 q 610 818 682 763 q 449 874 538 874 q 226 765 313 874 q 140 478 140 656 q 226 192 140 301 q 449 83 313 83 q 610 139 538 83 q 726 294 682 194 l 811 244 q 471 -12 701 0 l 464 -99 l 488 -99 q 591 -129 556 -99 q 626 -210 626 -160 q 591 -290 626 -260 q 488 -321 556 -321 l 376 -321 l 376 -251 l 474 -251 q 558 -210 558 -251 q 474 -168 558 -168 l 390 -168 z "},"È":{"ha":667,"x_min":69,"x_max":611,"o":"m 69 0 l 69 957 l 611 957 l 611 860 l 167 860 l 167 457 l 611 457 l 611 360 l 167 360 l 167 97 l 611 97 l 611 0 l 69 0 m 314 1308 l 426 1076 l 381 1049 l 239 1265 l 314 1308 z "},"É":{"ha":667,"x_min":69,"x_max":611,"o":"m 69 0 l 69 957 l 611 957 l 611 860 l 167 860 l 167 457 l 611 457 l 611 360 l 167 360 l 167 97 l 611 97 l 611 0 l 69 0 m 239 1076 l 351 1308 l 426 1265 l 285 1049 l 239 1076 z "},"Ê":{"ha":667,"x_min":69,"x_max":611,"o":"m 69 0 l 69 957 l 611 957 l 611 860 l 167 860 l 167 457 l 611 457 l 611 360 l 167 360 l 167 97 l 611 97 l 611 0 l 69 0 m 296 1283 l 371 1283 l 460 1069 l 403 1049 l 333 1201 l 264 1049 l 207 1069 l 296 1283 z "},"Ë":{"ha":667,"x_min":69,"x_max":611,"o":"m 69 0 l 69 957 l 611 957 l 611 860 l 167 860 l 167 457 l 611 457 l 611 360 l 167 360 l 167 97 l 611 97 l 611 0 l 69 0 m 226 1077 q 218 1084 226 1077 q 211 1111 211 1092 q 226 1145 211 1131 q 260 1160 240 1160 q 294 1145 279 1160 q 308 1111 308 1131 q 294 1077 308 1092 q 260 1063 279 1063 q 226 1077 240 1063 m 372 1077 q 364 1084 372 1077 q 357 1111 357 1092 q 372 1145 357 1131 q 406 1160 386 1160 q 440 1145 425 1160 q 454 1111 454 1131 q 440 1077 454 1092 q 406 1063 425 1063 q 372 1077 386 1063 z "},"Ì":{"ha":375,"x_min":93,"x_max":281,"o":"m 139 0 l 139 957 l 236 957 l 236 0 l 139 0 m 168 1308 l 281 1076 l 235 1049 l 93 1265 l 168 1308 z "},"Í":{"ha":375,"x_min":93,"x_max":281,"o":"m 139 0 l 139 957 l 236 957 l 236 0 l 139 0 m 93 1076 l 206 1308 l 281 1265 l 139 1049 l 93 1076 z "},"Î":{"ha":375,"x_min":61,"x_max":314,"o":"m 139 0 l 139 957 l 236 957 l 236 0 l 139 0 m 150 1283 l 225 1283 l 314 1069 l 257 1049 l 188 1201 l 118 1049 l 61 1069 l 150 1283 z "},"Ï":{"ha":375,"x_min":65,"x_max":308,"o":"m 139 0 l 139 957 l 236 957 l 236 0 l 139 0 m 80 1077 q 73 1084 80 1077 q 65 1111 65 1092 q 80 1145 65 1131 q 114 1160 94 1160 q 148 1145 133 1160 q 163 1111 163 1131 q 148 1077 163 1092 q 114 1063 133 1063 q 80 1077 94 1063 m 226 1077 q 218 1084 226 1077 q 211 1111 211 1092 q 226 1145 211 1131 q 260 1160 240 1160 q 294 1145 279 1160 q 308 1111 308 1131 q 294 1077 308 1092 q 260 1063 279 1063 q 226 1077 240 1063 z "},"Ð":{"ha":779,"x_min":28,"x_max":738,"o":"m 28 431 l 28 514 l 69 514 l 69 957 l 265 957 q 619 823 501 957 q 738 478 738 689 q 690 237 738 342 q 533 66 642 132 q 265 0 425 0 l 69 0 l 69 431 l 28 431 m 639 478 q 543 758 639 658 q 265 858 447 858 l 168 858 l 168 514 l 360 514 l 360 431 l 168 431 l 168 99 l 265 99 q 542 199 446 99 q 639 478 639 299 z "},"Ñ":{"ha":826,"x_min":69,"x_max":757,"o":"m 643 0 l 167 794 l 167 0 l 69 0 l 69 957 l 183 957 l 660 163 l 660 957 l 757 957 l 757 0 l 643 0 m 428 1094 q 333 1072 374 1061 q 258 1142 292 1083 l 306 1169 q 350 1139 335 1139 q 400 1161 365 1139 q 495 1185 457 1196 q 567 1114 533 1175 l 521 1088 q 490 1115 503 1110 q 469 1116 478 1119 q 428 1094 460 1113 z "},"Ò":{"ha":886,"x_min":42,"x_max":844,"o":"m 42 478 q 149 828 42 686 q 444 971 257 971 q 738 828 632 971 q 844 478 844 686 q 738 128 844 271 q 444 -14 632 -14 q 149 128 257 -14 q 42 478 42 271 m 139 478 q 228 198 139 314 q 443 82 317 82 q 659 198 569 82 q 749 478 749 314 q 659 758 749 642 q 443 875 569 875 q 228 759 317 875 q 139 478 139 643 m 424 1308 l 536 1076 l 490 1049 l 349 1265 l 424 1308 z "},"Ó":{"ha":886,"x_min":42,"x_max":844,"o":"m 42 478 q 149 828 42 686 q 444 971 257 971 q 738 828 632 971 q 844 478 844 686 q 738 128 844 271 q 444 -14 632 -14 q 149 128 257 -14 q 42 478 42 271 m 139 478 q 228 198 139 314 q 443 82 317 82 q 659 198 569 82 q 749 478 749 314 q 659 758 749 642 q 443 875 569 875 q 228 759 317 875 q 139 478 139 643 m 349 1076 l 461 1308 l 536 1265 l 394 1049 l 349 1076 z "},"Ô":{"ha":886,"x_min":42,"x_max":844,"o":"m 42 478 q 149 828 42 686 q 444 971 257 971 q 738 828 632 971 q 844 478 844 686 q 738 128 844 271 q 444 -14 632 -14 q 149 128 257 -14 q 42 478 42 271 m 139 478 q 228 198 139 314 q 443 82 317 82 q 659 198 569 82 q 749 478 749 314 q 659 758 749 642 q 443 875 569 875 q 228 759 317 875 q 139 478 139 643 m 406 1283 l 481 1283 l 569 1069 l 513 1049 l 443 1201 l 374 1049 l 317 1069 l 406 1283 z "},"Õ":{"ha":886,"x_min":42,"x_max":844,"o":"m 42 478 q 149 828 42 686 q 444 971 257 971 q 738 828 632 971 q 844 478 844 686 q 738 128 844 271 q 444 -14 632 -14 q 149 128 257 -14 q 42 478 42 271 m 139 478 q 228 198 139 314 q 443 82 317 82 q 659 198 569 82 q 749 478 749 314 q 659 758 749 642 q 443 875 569 875 q 228 759 317 875 q 139 478 139 643 m 458 1094 q 363 1072 404 1061 q 289 1142 322 1083 l 336 1169 q 381 1139 365 1139 q 431 1161 396 1139 q 526 1185 488 1196 q 597 1114 564 1175 l 551 1088 q 521 1115 533 1110 q 499 1116 508 1119 q 458 1094 490 1113 z "},"Ö":{"ha":886,"x_min":42,"x_max":844,"o":"m 42 478 q 149 828 42 686 q 444 971 257 971 q 738 828 632 971 q 844 478 844 686 q 738 128 844 271 q 444 -14 632 -14 q 149 128 257 -14 q 42 478 42 271 m 139 478 q 228 198 139 314 q 443 82 317 82 q 659 198 569 82 q 749 478 749 314 q 659 758 749 642 q 443 875 569 875 q 228 759 317 875 q 139 478 139 643 m 335 1077 q 328 1084 335 1077 q 321 1111 321 1092 q 335 1145 321 1131 q 369 1160 350 1160 q 403 1145 389 1160 q 418 1111 418 1131 q 403 1077 418 1092 q 369 1063 389 1063 q 335 1077 350 1063 m 481 1077 q 474 1084 481 1077 q 467 1111 467 1092 q 481 1145 467 1131 q 515 1160 496 1160 q 549 1145 535 1160 q 564 1111 564 1131 q 549 1077 564 1092 q 515 1063 535 1063 q 481 1077 496 1063 z "},"×":{"ha":440,"x_min":28,"x_max":413,"o":"m 97 182 l 28 251 l 156 403 l 28 556 l 97 625 l 219 479 l 343 625 l 413 556 l 283 403 l 413 251 l 343 182 l 219 328 l 97 182 z "},"Ø":{"ha":886,"x_min":42,"x_max":844,"o":"m 42 478 q 149 828 42 686 q 444 971 257 971 q 499 967 472 971 l 511 1026 l 611 1026 l 593 942 q 778 765 713 890 q 844 478 844 639 q 738 128 844 271 q 444 -14 632 -14 q 388 -10 414 -14 l 375 -69 l 275 -69 l 293 15 q 108 193 174 67 q 42 478 42 319 m 749 478 q 699 693 749 596 q 571 838 650 790 l 407 85 q 443 82 432 82 q 659 198 569 82 q 749 478 749 314 m 139 478 q 188 262 139 358 q 315 118 236 165 l 478 872 q 443 875 456 875 q 228 759 317 875 q 139 478 139 643 z "},"Ù":{"ha":886,"x_min":69,"x_max":817,"o":"m 719 519 l 719 957 l 817 957 l 817 478 q 794 290 817 376 q 728 135 772 204 q 612 26 685 65 q 444 -14 539 -14 q 165 126 260 -14 q 69 478 69 267 l 69 957 l 167 957 l 167 519 q 237 199 167 317 q 444 82 307 82 q 650 199 581 82 q 719 519 719 317 m 424 1308 l 536 1076 l 490 1049 l 349 1265 l 424 1308 z "},"Ú":{"ha":886,"x_min":69,"x_max":817,"o":"m 719 519 l 719 957 l 817 957 l 817 478 q 794 290 817 376 q 728 135 772 204 q 612 26 685 65 q 444 -14 539 -14 q 165 126 260 -14 q 69 478 69 267 l 69 957 l 167 957 l 167 519 q 237 199 167 317 q 444 82 307 82 q 650 199 581 82 q 719 519 719 317 m 349 1076 l 461 1308 l 536 1265 l 394 1049 l 349 1076 z "},"Û":{"ha":886,"x_min":69,"x_max":817,"o":"m 719 519 l 719 957 l 817 957 l 817 478 q 794 290 817 376 q 728 135 772 204 q 612 26 685 65 q 444 -14 539 -14 q 165 126 260 -14 q 69 478 69 267 l 69 957 l 167 957 l 167 519 q 237 199 167 317 q 444 82 307 82 q 650 199 581 82 q 719 519 719 317 m 406 1283 l 481 1283 l 569 1069 l 513 1049 l 443 1201 l 374 1049 l 317 1069 l 406 1283 z "},"Ü":{"ha":886,"x_min":69,"x_max":817,"o":"m 719 519 l 719 957 l 817 957 l 817 478 q 794 290 817 376 q 728 135 772 204 q 612 26 685 65 q 444 -14 539 -14 q 165 126 260 -14 q 69 478 69 267 l 69 957 l 167 957 l 167 519 q 237 199 167 317 q 444 82 307 82 q 650 199 581 82 q 719 519 719 317 m 349 1077 q 342 1084 349 1077 q 335 1111 335 1092 q 349 1145 335 1131 q 383 1160 364 1160 q 417 1145 403 1160 q 432 1111 432 1131 q 417 1077 432 1092 q 383 1063 403 1063 q 349 1077 364 1063 m 495 1077 q 488 1084 495 1077 q 481 1111 481 1092 q 495 1145 481 1131 q 529 1160 510 1160 q 563 1145 549 1160 q 578 1111 578 1131 q 563 1077 578 1092 q 529 1063 549 1063 q 495 1077 510 1063 z "},"Ý":{"ha":650,"x_min":28,"x_max":622,"o":"m 275 0 l 275 385 l 28 957 l 133 957 l 325 511 l 517 957 l 622 957 l 372 378 l 372 0 l 275 0 m 231 1076 l 343 1308 l 418 1265 l 276 1049 l 231 1076 z "},"Þ":{"ha":622,"x_min":69,"x_max":581,"o":"m 69 0 l 69 957 l 167 957 l 167 719 l 249 719 q 492 659 404 719 q 581 475 581 599 q 492 292 581 351 q 249 232 404 232 l 167 232 l 167 0 l 69 0 m 207 622 l 167 622 l 167 329 l 207 329 q 419 364 354 329 q 483 475 483 399 q 419 587 483 551 q 207 622 354 622 z "},"ß":{"ha":700,"x_min":69,"x_max":658,"o":"m 226 96 l 325 96 q 505 146 447 96 q 563 282 563 196 q 325 483 563 483 l 211 483 l 211 581 l 325 581 q 451 618 404 581 q 497 718 497 656 q 453 819 497 781 q 338 858 408 858 q 165 622 165 858 l 165 0 l 69 0 l 69 622 q 135 867 69 778 q 338 956 201 956 q 515 894 438 956 q 593 718 593 832 q 569 617 593 667 q 510 540 546 568 q 658 282 658 468 q 568 72 658 144 q 325 0 478 0 l 226 0 l 226 96 z "},"à":{"ha":719,"x_min":42,"x_max":650,"o":"m 650 719 l 650 0 l 553 0 l 553 75 q 346 -14 472 -14 q 122 94 203 -14 q 42 360 42 203 q 122 625 42 517 q 346 733 203 733 q 553 644 472 733 l 553 719 l 650 719 m 199 555 q 169 514 199 555 q 139 360 139 474 q 199 165 139 246 q 346 83 260 83 q 492 165 432 83 q 553 360 553 246 q 492 555 553 474 q 346 636 432 636 q 199 555 260 636 m 328 1071 l 440 839 l 394 811 l 253 1028 l 328 1071 z "},"á":{"ha":719,"x_min":42,"x_max":650,"o":"m 650 719 l 650 0 l 553 0 l 553 75 q 346 -14 472 -14 q 122 94 203 -14 q 42 360 42 203 q 122 625 42 517 q 346 733 203 733 q 553 644 472 733 l 553 719 l 650 719 m 199 555 q 169 514 199 555 q 139 360 139 474 q 199 165 139 246 q 346 83 260 83 q 492 165 432 83 q 553 360 553 246 q 492 555 553 474 q 346 636 432 636 q 199 555 260 636 m 253 839 l 365 1071 l 440 1028 l 299 811 l 253 839 z "},"â":{"ha":719,"x_min":42,"x_max":650,"o":"m 650 719 l 650 0 l 553 0 l 553 75 q 346 -14 472 -14 q 122 94 203 -14 q 42 360 42 203 q 122 625 42 517 q 346 733 203 733 q 553 644 472 733 l 553 719 l 650 719 m 199 555 q 169 514 199 555 q 139 360 139 474 q 199 165 139 246 q 346 83 260 83 q 492 165 432 83 q 553 360 553 246 q 492 555 553 474 q 346 636 432 636 q 199 555 260 636 m 308 1046 l 383 1046 l 472 832 l 415 811 l 346 964 l 276 811 l 219 832 l 308 1046 z "},"ã":{"ha":719,"x_min":42,"x_max":650,"o":"m 650 719 l 650 0 l 553 0 l 553 75 q 346 -14 472 -14 q 122 94 203 -14 q 42 360 42 203 q 122 625 42 517 q 346 733 203 733 q 553 644 472 733 l 553 719 l 650 719 m 199 555 q 169 514 199 555 q 139 360 139 474 q 199 165 139 246 q 346 83 260 83 q 492 165 432 83 q 553 360 553 246 q 492 555 553 474 q 346 636 432 636 q 199 555 260 636 m 361 857 q 266 835 307 824 q 192 904 225 846 l 239 932 q 283 901 268 901 q 333 924 299 901 q 428 948 390 958 q 500 876 467 938 l 454 850 q 424 877 436 872 q 402 878 411 882 q 361 857 393 875 z "},"ä":{"ha":719,"x_min":42,"x_max":650,"o":"m 650 719 l 650 0 l 553 0 l 553 75 q 346 -14 472 -14 q 122 94 203 -14 q 42 360 42 203 q 122 625 42 517 q 346 733 203 733 q 553 644 472 733 l 553 719 l 650 719 m 199 555 q 169 514 199 555 q 139 360 139 474 q 199 165 139 246 q 346 83 260 83 q 492 165 432 83 q 553 360 553 246 q 492 555 553 474 q 346 636 432 636 q 199 555 260 636 m 240 840 q 232 847 240 840 q 225 874 225 854 q 240 908 225 893 q 274 922 254 922 q 308 908 293 922 q 322 874 322 893 q 308 840 322 854 q 274 825 293 825 q 240 840 254 825 m 385 840 q 378 847 385 840 q 371 874 371 854 q 385 908 371 893 q 419 922 400 922 q 453 908 439 922 q 468 874 468 893 q 453 840 468 854 q 419 825 439 825 q 385 840 400 825 z "},"å":{"ha":719,"x_min":42,"x_max":650,"o":"m 650 719 l 650 0 l 553 0 l 553 75 q 346 -14 472 -14 q 122 94 203 -14 q 42 360 42 203 q 122 625 42 517 q 346 733 203 733 q 553 644 472 733 l 553 719 l 650 719 m 199 555 q 169 514 199 555 q 139 360 139 474 q 199 165 139 246 q 346 83 260 83 q 492 165 432 83 q 553 360 553 246 q 492 555 553 474 q 346 636 432 636 q 199 555 260 636 m 266 842 q 250 858 266 842 q 235 922 235 874 q 266 1002 235 971 q 346 1033 297 1033 q 426 1002 394 1033 q 457 922 457 971 q 426 842 457 874 q 346 811 394 811 q 266 842 297 811 m 315 953 q 309 947 315 953 q 303 922 303 940 q 315 892 303 904 q 346 879 328 879 q 376 892 364 879 q 389 922 389 904 q 376 953 389 940 q 346 965 364 965 q 315 953 328 965 z "},"æ":{"ha":1244,"x_min":42,"x_max":1203,"o":"m 650 719 l 650 586 q 899 733 735 733 q 1122 625 1042 733 q 1203 360 1203 517 l 692 360 q 755 161 692 239 q 899 83 818 83 q 996 116 946 83 q 1076 217 1046 149 l 1164 167 q 1059 35 1126 83 q 899 -14 992 -14 q 650 132 733 -14 l 650 0 l 553 0 l 553 75 q 346 -14 472 -14 q 122 94 203 -14 q 42 360 42 203 q 122 625 42 517 q 346 733 203 733 q 553 644 471 733 l 553 719 l 650 719 m 199 555 q 169 514 199 555 q 139 360 139 474 q 199 165 139 246 q 346 83 260 83 q 492 165 432 83 q 553 360 553 246 q 492 555 553 474 q 346 636 432 636 q 199 555 260 636 m 1017 586 q 990 611 1017 586 q 899 636 964 636 q 780 586 833 636 q 704 457 726 536 l 1092 457 q 1017 586 1069 536 z "},"ç":{"ha":653,"x_min":42,"x_max":611,"o":"m 297 -168 l 308 -11 q 112 108 182 3 q 42 360 42 213 q 122 625 42 517 q 346 733 203 733 q 506 685 439 733 q 611 553 574 636 l 524 503 q 443 603 493 571 q 346 636 393 636 q 202 558 265 636 q 139 360 139 481 q 202 161 139 239 q 346 83 265 83 q 443 116 393 83 q 524 217 493 149 l 611 167 q 378 -12 540 4 l 371 -99 l 394 -99 q 498 -129 463 -99 q 533 -210 533 -160 q 498 -290 533 -260 q 394 -321 463 -321 l 283 -321 l 283 -251 l 381 -251 q 465 -210 465 -251 q 381 -168 465 -168 l 297 -168 z "},"è":{"ha":692,"x_min":42,"x_max":650,"o":"m 122 94 q 82 149 122 94 q 42 360 42 203 q 122 625 42 517 q 346 733 203 733 q 569 625 489 733 q 650 360 650 517 l 139 360 q 202 161 139 239 q 346 83 265 83 q 443 116 393 83 q 524 217 493 149 l 611 167 q 506 35 574 83 q 346 -14 439 -14 q 122 94 203 -14 m 464 586 q 438 611 464 586 q 346 636 411 636 q 227 586 281 636 q 151 457 174 536 l 539 457 q 464 586 517 536 m 326 1071 l 439 839 l 393 811 l 251 1028 l 326 1071 z "},"é":{"ha":692,"x_min":42,"x_max":650,"o":"m 122 94 q 82 149 122 94 q 42 360 42 203 q 122 625 42 517 q 346 733 203 733 q 569 625 489 733 q 650 360 650 517 l 139 360 q 202 161 139 239 q 346 83 265 83 q 443 116 393 83 q 524 217 493 149 l 611 167 q 506 35 574 83 q 346 -14 439 -14 q 122 94 203 -14 m 464 586 q 438 611 464 586 q 346 636 411 636 q 227 586 281 636 q 151 457 174 536 l 539 457 q 464 586 517 536 m 251 839 l 364 1071 l 439 1028 l 297 811 l 251 839 z "},"ê":{"ha":692,"x_min":42,"x_max":650,"o":"m 122 94 q 82 149 122 94 q 42 360 42 203 q 122 625 42 517 q 346 733 203 733 q 569 625 489 733 q 650 360 650 517 l 139 360 q 202 161 139 239 q 346 83 265 83 q 443 116 393 83 q 524 217 493 149 l 611 167 q 506 35 574 83 q 346 -14 439 -14 q 122 94 203 -14 m 464 586 q 438 611 464 586 q 346 636 411 636 q 227 586 281 636 q 151 457 174 536 l 539 457 q 464 586 517 536 m 307 1046 l 382 1046 l 471 832 l 414 811 l 344 964 l 275 811 l 218 832 l 307 1046 z "},"ë":{"ha":692,"x_min":42,"x_max":650,"o":"m 122 94 q 82 149 122 94 q 42 360 42 203 q 122 625 42 517 q 346 733 203 733 q 569 625 489 733 q 650 360 650 517 l 139 360 q 202 161 139 239 q 346 83 265 83 q 443 116 393 83 q 524 217 493 149 l 611 167 q 506 35 574 83 q 346 -14 439 -14 q 122 94 203 -14 m 464 586 q 438 611 464 586 q 346 636 411 636 q 227 586 281 636 q 151 457 174 536 l 539 457 q 464 586 517 536 m 252 840 q 245 847 252 840 q 238 874 238 854 q 252 908 238 893 q 286 922 267 922 q 320 908 306 922 q 335 874 335 893 q 320 840 335 854 q 286 825 306 825 q 252 840 267 825 m 398 840 q 391 847 398 840 q 383 874 383 854 q 398 908 383 893 q 432 922 413 922 q 466 908 451 922 q 481 874 481 893 q 466 840 481 854 q 432 825 451 825 q 398 840 413 825 z "},"ì":{"ha":264,"x_min":38,"x_max":225,"o":"m 83 0 l 83 719 l 181 719 l 181 0 l 83 0 m 113 1071 l 225 839 l 179 811 l 38 1028 l 113 1071 z "},"í":{"ha":264,"x_min":38,"x_max":225,"o":"m 83 0 l 83 719 l 181 719 l 181 0 l 83 0 m 38 839 l 150 1071 l 225 1028 l 83 811 l 38 839 z "},"î":{"ha":264,"x_min":6,"x_max":258,"o":"m 83 0 l 83 719 l 181 719 l 181 0 l 83 0 m 94 1046 l 169 1046 l 258 832 l 201 811 l 132 964 l 63 811 l 6 832 l 94 1046 z "},"ï":{"ha":264,"x_min":11,"x_max":254,"o":"m 83 0 l 83 719 l 181 719 l 181 0 l 83 0 m 26 840 q 18 847 26 840 q 11 874 11 854 q 26 908 11 893 q 60 922 40 922 q 94 908 79 922 q 108 874 108 893 q 94 840 108 854 q 60 825 79 825 q 26 840 40 825 m 172 840 q 164 847 172 840 q 157 874 157 854 q 172 908 157 893 q 206 922 186 922 q 240 908 225 922 q 254 874 254 893 q 240 840 254 854 q 206 825 225 825 q 172 840 186 825 z "},"ð":{"ha":699,"x_min":42,"x_max":657,"o":"m 513 939 l 540 893 l 471 850 q 610 626 563 756 q 657 358 657 496 q 576 94 657 201 q 350 -14 494 -14 q 124 94 206 -14 q 42 358 42 201 q 124 623 42 515 q 350 731 206 731 q 469 707 413 731 q 392 801 438 756 l 318 757 l 290 803 l 350 839 q 300 872 322 860 l 300 971 q 431 889 369 939 l 513 939 m 198 560 q 168 522 198 560 q 139 358 139 485 q 198 157 139 232 q 350 82 257 82 q 501 156 443 82 q 561 358 560 231 q 547 455 558 410 q 511 542 535 500 q 447 610 488 585 q 350 635 406 635 q 198 560 257 635 z "},"ñ":{"ha":733,"x_min":69,"x_max":678,"o":"m 581 0 l 581 360 q 520 555 581 474 q 374 636 460 636 q 230 559 290 636 q 167 371 169 482 l 167 0 l 69 0 l 69 719 l 167 719 l 167 644 q 374 733 249 733 q 597 625 517 733 q 678 360 678 517 l 678 0 l 581 0 m 382 857 q 287 835 328 824 q 213 904 246 846 l 260 932 q 304 901 289 901 q 354 924 319 901 q 449 948 411 958 q 521 876 488 938 l 475 850 q 444 877 457 872 q 423 878 432 882 q 382 857 414 875 z "},"ò":{"ha":692,"x_min":42,"x_max":650,"o":"m 122 94 q 82 149 122 94 q 42 360 42 203 q 122 625 42 517 q 346 733 203 733 q 569 625 489 733 q 650 360 650 517 q 569 94 650 203 q 346 -14 489 -14 q 122 94 203 -14 m 199 555 q 169 514 199 555 q 139 360 139 474 q 199 165 139 246 q 346 83 260 83 q 492 165 432 83 q 553 360 553 246 q 492 555 553 474 q 346 636 432 636 q 199 555 260 636 m 328 1071 l 440 839 l 394 811 l 253 1028 l 328 1071 z "},"ó":{"ha":692,"x_min":42,"x_max":650,"o":"m 122 94 q 82 149 122 94 q 42 360 42 203 q 122 625 42 517 q 346 733 203 733 q 569 625 489 733 q 650 360 650 517 q 569 94 650 203 q 346 -14 489 -14 q 122 94 203 -14 m 199 555 q 169 514 199 555 q 139 360 139 474 q 199 165 139 246 q 346 83 260 83 q 492 165 432 83 q 553 360 553 246 q 492 555 553 474 q 346 636 432 636 q 199 555 260 636 m 253 839 l 365 1071 l 440 1028 l 299 811 l 253 839 z "},"ô":{"ha":692,"x_min":42,"x_max":650,"o":"m 122 94 q 82 149 122 94 q 42 360 42 203 q 122 625 42 517 q 346 733 203 733 q 569 625 489 733 q 650 360 650 517 q 569 94 650 203 q 346 -14 489 -14 q 122 94 203 -14 m 199 555 q 169 514 199 555 q 139 360 139 474 q 199 165 139 246 q 346 83 260 83 q 492 165 432 83 q 553 360 553 246 q 492 555 553 474 q 346 636 432 636 q 199 555 260 636 m 308 1046 l 383 1046 l 472 832 l 415 811 l 346 964 l 276 811 l 219 832 l 308 1046 z "},"õ":{"ha":692,"x_min":42,"x_max":650,"o":"m 122 94 q 82 149 122 94 q 42 360 42 203 q 122 625 42 517 q 346 733 203 733 q 569 625 489 733 q 650 360 650 517 q 569 94 650 203 q 346 -14 489 -14 q 122 94 203 -14 m 199 555 q 169 514 199 555 q 139 360 139 474 q 199 165 139 246 q 346 83 260 83 q 492 165 432 83 q 553 360 553 246 q 492 555 553 474 q 346 636 432 636 q 199 555 260 636 m 361 857 q 266 835 307 824 q 192 904 225 846 l 239 932 q 283 901 268 901 q 333 924 299 901 q 428 948 390 958 q 500 876 467 938 l 454 850 q 424 877 436 872 q 402 878 411 882 q 361 857 393 875 z "},"ö":{"ha":692,"x_min":42,"x_max":650,"o":"m 122 94 q 82 149 122 94 q 42 360 42 203 q 122 625 42 517 q 346 733 203 733 q 569 625 489 733 q 650 360 650 517 q 569 94 650 203 q 346 -14 489 -14 q 122 94 203 -14 m 199 555 q 169 514 199 555 q 139 360 139 474 q 199 165 139 246 q 346 83 260 83 q 492 165 432 83 q 553 360 553 246 q 492 555 553 474 q 346 636 432 636 q 199 555 260 636 m 240 840 q 232 847 240 840 q 225 874 225 854 q 240 908 225 893 q 274 922 254 922 q 308 908 293 922 q 322 874 322 893 q 308 840 322 854 q 274 825 293 825 q 240 840 254 825 m 385 840 q 378 847 385 840 q 371 874 371 854 q 385 908 371 893 q 419 922 400 922 q 453 908 439 922 q 468 874 468 893 q 453 840 468 854 q 419 825 439 825 q 385 840 400 825 z "},"÷":{"ha":481,"x_min":28,"x_max":453,"o":"m 453 451 l 453 354 l 28 354 l 28 451 l 453 451 m 206 528 q 199 536 206 528 q 192 563 192 543 q 206 597 192 582 q 240 611 221 611 q 274 597 260 611 q 289 563 289 582 q 274 528 289 543 q 240 514 260 514 q 206 528 221 514 m 206 209 q 199 216 206 209 q 192 243 192 224 q 206 277 192 263 q 240 292 221 292 q 274 277 260 292 q 289 243 289 263 q 274 209 289 224 q 240 194 260 194 q 206 209 221 194 z "},"ø":{"ha":692,"x_min":42,"x_max":650,"o":"m 42 360 q 122 625 42 517 q 346 733 203 733 q 388 731 360 733 l 401 789 l 501 789 l 479 701 q 606 566 561 658 q 650 360 650 474 q 569 94 650 203 q 346 -14 489 -14 q 307 -11 332 -14 l 293 -69 l 193 -69 l 214 17 q 86 152 131 60 q 42 360 42 244 m 139 360 q 239 122 139 204 l 364 635 q 346 636 357 636 q 199 555 260 636 q 139 360 139 474 m 553 360 q 526 495 553 433 q 454 594 499 557 l 329 83 l 346 83 q 492 165 432 83 q 553 360 553 246 z "},"ù":{"ha":733,"x_min":56,"x_max":664,"o":"m 567 360 l 567 719 l 664 719 l 664 0 l 567 0 l 567 75 q 360 -14 486 -14 q 136 94 217 -14 q 56 360 56 203 l 56 719 l 153 719 l 153 360 q 213 165 153 246 q 360 83 274 83 q 506 165 446 83 q 567 360 567 246 m 342 1071 l 454 839 l 408 811 l 267 1028 l 342 1071 z "},"ú":{"ha":733,"x_min":56,"x_max":664,"o":"m 567 360 l 567 719 l 664 719 l 664 0 l 567 0 l 567 75 q 360 -14 486 -14 q 136 94 217 -14 q 56 360 56 203 l 56 719 l 153 719 l 153 360 q 213 165 153 246 q 360 83 274 83 q 506 165 446 83 q 567 360 567 246 m 267 839 l 379 1071 l 454 1028 l 313 811 l 267 839 z "},"û":{"ha":733,"x_min":56,"x_max":664,"o":"m 567 360 l 567 719 l 664 719 l 664 0 l 567 0 l 567 75 q 360 -14 486 -14 q 136 94 217 -14 q 56 360 56 203 l 56 719 l 153 719 l 153 360 q 213 165 153 246 q 360 83 274 83 q 506 165 446 83 q 567 360 567 246 m 322 1046 l 397 1046 l 486 832 l 429 811 l 360 964 l 290 811 l 233 832 l 322 1046 z "},"ü":{"ha":733,"x_min":56,"x_max":664,"o":"m 567 360 l 567 719 l 664 719 l 664 0 l 567 0 l 567 75 q 360 -14 486 -14 q 136 94 217 -14 q 56 360 56 203 l 56 719 l 153 719 l 153 360 q 213 165 153 246 q 360 83 274 83 q 506 165 446 83 q 567 360 567 246 m 253 840 q 246 847 253 840 q 239 874 239 854 q 253 908 239 893 q 288 922 268 922 q 322 908 307 922 q 336 874 336 893 q 322 840 336 854 q 288 825 307 825 q 253 840 268 825 m 399 840 q 392 847 399 840 q 385 874 385 854 q 399 908 385 893 q 433 922 414 922 q 467 908 453 922 q 482 874 482 893 q 467 840 482 854 q 433 825 453 825 q 399 840 414 825 z "},"ý":{"ha":690,"x_min":28,"x_max":663,"o":"m 663 719 l 300 -268 l 196 -268 l 293 -3 l 28 719 l 131 719 l 344 136 l 558 719 l 663 719 m 251 839 l 364 1071 l 439 1028 l 297 811 l 251 839 z "},"þ":{"ha":636,"x_min":69,"x_max":594,"o":"m 69 -268 l 69 957 l 167 957 l 167 665 q 332 733 232 733 q 528 627 463 733 q 594 360 594 521 q 524 94 594 203 q 332 -14 454 -14 q 167 60 233 -14 l 167 -268 l 69 -268 m 167 360 q 213 163 167 243 q 332 83 258 83 q 451 163 406 83 q 497 360 497 243 q 451 556 497 476 q 332 636 406 636 q 215 560 261 636 q 167 371 169 483 l 167 360 z "},"ÿ":{"ha":690,"x_min":28,"x_max":663,"o":"m 663 719 l 300 -268 l 196 -268 l 293 -3 l 28 719 l 131 719 l 344 136 l 558 719 l 663 719 m 238 840 q 231 847 238 840 q 224 874 224 854 q 238 908 224 893 q 272 922 253 922 q 306 908 292 922 q 321 874 321 893 q 306 840 321 854 q 272 825 292 825 q 238 840 253 825 m 384 840 q 377 847 384 840 q 369 874 369 854 q 384 908 369 893 q 418 922 399 922 q 452 908 438 922 q 467 874 467 893 q 452 840 467 854 q 418 825 438 825 q 384 840 399 825 z "},"Ā":{"ha":863,"x_min":28,"x_max":835,"o":"m 483 957 l 835 0 l 731 0 l 611 322 l 250 322 l 132 0 l 28 0 l 379 957 l 483 957 m 431 815 l 285 419 l 576 419 l 431 815 m 279 1076 l 279 1146 l 583 1146 l 583 1076 l 279 1076 z "},"ā":{"ha":719,"x_min":42,"x_max":650,"o":"m 650 719 l 650 0 l 553 0 l 553 75 q 346 -14 472 -14 q 122 94 203 -14 q 42 360 42 203 q 122 625 42 517 q 346 733 203 733 q 553 644 472 733 l 553 719 l 650 719 m 199 555 q 169 514 199 555 q 139 360 139 474 q 199 165 139 246 q 346 83 260 83 q 492 165 432 83 q 553 360 553 246 q 492 555 553 474 q 346 636 432 636 q 199 555 260 636 m 194 839 l 194 908 l 499 908 l 499 839 l 194 839 z "},"Ă":{"ha":863,"x_min":28,"x_max":835,"o":"m 483 957 l 835 0 l 731 0 l 611 322 l 250 322 l 132 0 l 28 0 l 379 957 l 483 957 m 431 815 l 285 419 l 576 419 l 431 815 m 321 1188 l 389 1188 q 432 1117 389 1117 q 475 1188 475 1117 l 543 1188 q 513 1084 543 1119 q 432 1049 482 1049 q 351 1084 382 1049 q 321 1188 321 1119 z "},"ă":{"ha":719,"x_min":42,"x_max":650,"o":"m 650 719 l 650 0 l 553 0 l 553 75 q 346 -14 472 -14 q 122 94 203 -14 q 42 360 42 203 q 122 625 42 517 q 346 733 203 733 q 553 644 472 733 l 553 719 l 650 719 m 199 555 q 169 514 199 555 q 139 360 139 474 q 199 165 139 246 q 346 83 260 83 q 492 165 432 83 q 553 360 553 246 q 492 555 553 474 q 346 636 432 636 q 199 555 260 636 m 235 950 l 303 950 q 346 879 303 879 q 389 950 389 879 l 457 950 q 426 847 457 882 q 346 811 396 811 q 265 847 296 811 q 235 950 235 882 z "},"Ą":{"ha":863,"x_min":28,"x_max":900,"o":"m 483 957 l 835 0 l 810 -11 q 751 -85 735 -44 q 846 -89 769 -122 l 871 -78 l 900 -139 l 861 -156 q 758 -168 807 -179 q 689 -114 710 -157 q 683 -44 674 -79 q 724 17 693 -10 l 611 322 l 250 322 l 132 0 l 28 0 l 379 957 l 483 957 m 431 815 l 285 419 l 576 419 l 431 815 z "},"ą":{"ha":719,"x_min":42,"x_max":715,"o":"m 715 -167 l 676 -183 q 574 -196 622 -207 q 504 -142 525 -185 q 501 -66 488 -104 q 553 0 515 -28 l 553 74 q 346 -14 472 -14 q 122 94 203 -14 q 42 360 42 203 q 122 625 42 517 q 346 733 203 733 q 553 646 472 733 l 553 719 l 650 719 l 650 -28 l 625 -39 q 567 -112 550 -72 q 661 -117 586 -151 l 686 -106 l 715 -167 m 199 555 q 169 514 199 555 q 139 360 139 474 q 199 165 139 246 q 346 83 260 83 q 492 165 432 83 q 553 360 553 246 q 492 555 553 474 q 346 636 432 636 q 199 555 260 636 z "},"Ć":{"ha":853,"x_min":42,"x_max":811,"o":"m 449 874 q 226 765 313 874 q 140 478 140 656 q 226 192 140 301 q 449 83 313 83 q 610 139 538 83 q 726 294 682 194 l 811 244 q 666 56 757 125 q 449 -14 575 -14 q 227 56 321 -14 q 88 235 133 125 q 42 478 42 344 q 150 828 42 686 q 449 971 258 971 q 666 901 575 971 q 811 713 757 832 l 726 663 q 610 818 682 763 q 449 874 538 874 m 332 1076 l 444 1308 l 519 1265 l 378 1049 l 332 1076 z "},"ć":{"ha":653,"x_min":42,"x_max":611,"o":"m 202 558 q 170 519 202 558 q 139 360 139 481 q 202 161 139 239 q 346 83 265 83 q 443 116 393 83 q 524 217 493 149 l 611 167 q 506 35 574 83 q 346 -14 439 -14 q 122 94 203 -14 q 42 360 42 203 q 122 625 42 517 q 346 733 203 733 q 506 685 439 733 q 611 553 574 636 l 524 503 q 443 603 493 571 q 346 636 393 636 q 202 558 265 636 m 232 839 l 344 1071 l 419 1028 l 278 811 l 232 839 z "},"Ĉ":{"ha":853,"x_min":42,"x_max":811,"o":"m 449 874 q 226 765 313 874 q 140 478 140 656 q 226 192 140 301 q 449 83 313 83 q 610 139 538 83 q 726 294 682 194 l 811 244 q 666 56 757 125 q 449 -14 575 -14 q 227 56 321 -14 q 88 235 133 125 q 42 478 42 344 q 150 828 42 686 q 449 971 258 971 q 666 901 575 971 q 811 713 757 832 l 726 663 q 610 818 682 763 q 449 874 538 874 m 389 1283 l 464 1283 l 553 1069 l 496 1049 l 426 1201 l 357 1049 l 300 1069 l 389 1283 z "},"ĉ":{"ha":653,"x_min":42,"x_max":611,"o":"m 202 558 q 170 519 202 558 q 139 360 139 481 q 202 161 139 239 q 346 83 265 83 q 443 116 393 83 q 524 217 493 149 l 611 167 q 506 35 574 83 q 346 -14 439 -14 q 122 94 203 -14 q 42 360 42 203 q 122 625 42 517 q 346 733 203 733 q 506 685 439 733 q 611 553 574 636 l 524 503 q 443 603 493 571 q 346 636 393 636 q 202 558 265 636 m 288 1046 l 363 1046 l 451 832 l 394 811 l 325 964 l 256 811 l 199 832 l 288 1046 z "},"Ċ":{"ha":853,"x_min":42,"x_max":811,"o":"m 449 874 q 226 765 313 874 q 140 478 140 656 q 226 192 140 301 q 449 83 313 83 q 610 139 538 83 q 726 294 682 194 l 811 244 q 666 56 757 125 q 449 -14 575 -14 q 227 56 321 -14 q 88 235 133 125 q 42 478 42 344 q 150 828 42 686 q 449 971 258 971 q 666 901 575 971 q 811 713 757 832 l 726 663 q 610 818 682 763 q 449 874 538 874 m 392 1077 q 385 1084 392 1077 q 378 1111 378 1092 q 392 1145 378 1131 q 426 1160 407 1160 q 460 1145 446 1160 q 475 1111 475 1131 q 460 1077 475 1092 q 426 1063 446 1063 q 392 1077 407 1063 z "},"ċ":{"ha":653,"x_min":42,"x_max":611,"o":"m 202 558 q 170 519 202 558 q 139 360 139 481 q 202 161 139 239 q 346 83 265 83 q 443 116 393 83 q 524 217 493 149 l 611 167 q 506 35 574 83 q 346 -14 439 -14 q 122 94 203 -14 q 42 360 42 203 q 122 625 42 517 q 346 733 203 733 q 506 685 439 733 q 611 553 574 636 l 524 503 q 443 603 493 571 q 346 636 393 636 q 202 558 265 636 m 291 840 q 284 847 291 840 q 276 874 276 854 q 291 908 276 893 q 325 922 306 922 q 359 908 344 922 q 374 874 374 893 q 359 840 374 854 q 325 825 344 825 q 291 840 306 825 z "},"Č":{"ha":853,"x_min":42,"x_max":811,"o":"m 449 874 q 226 765 313 874 q 140 478 140 656 q 226 192 140 301 q 449 83 313 83 q 610 139 538 83 q 726 294 682 194 l 811 244 q 666 56 757 125 q 449 -14 575 -14 q 227 56 321 -14 q 88 235 133 125 q 42 478 42 344 q 150 828 42 686 q 449 971 258 971 q 666 901 575 971 q 811 713 757 832 l 726 663 q 610 818 682 763 q 449 874 538 874 m 464 1049 l 389 1049 l 300 1263 l 357 1283 l 426 1131 l 496 1283 l 553 1263 l 464 1049 z "},"č":{"ha":653,"x_min":42,"x_max":611,"o":"m 202 558 q 170 519 202 558 q 139 360 139 481 q 202 161 139 239 q 346 83 265 83 q 443 116 393 83 q 524 217 493 149 l 611 167 q 506 35 574 83 q 346 -14 439 -14 q 122 94 203 -14 q 42 360 42 203 q 122 625 42 517 q 346 733 203 733 q 506 685 439 733 q 611 553 574 636 l 524 503 q 443 603 493 571 q 346 636 393 636 q 202 558 265 636 m 363 811 l 288 811 l 199 1025 l 256 1046 l 325 893 l 394 1046 l 451 1025 l 363 811 z "},"Ď":{"ha":779,"x_min":69,"x_max":738,"o":"m 69 0 l 69 957 l 265 957 q 619 823 501 957 q 738 478 738 689 q 690 237 738 342 q 533 66 642 132 q 265 0 425 0 l 69 0 m 639 478 q 543 758 639 658 q 265 858 447 858 l 168 858 l 168 99 l 265 99 q 542 199 446 99 q 639 478 639 299 m 350 1049 l 275 1049 l 186 1263 l 243 1283 l 313 1131 l 382 1283 l 439 1263 l 350 1049 z "},"ď":{"ha":871,"x_min":42,"x_max":857,"o":"m 650 957 l 650 0 l 553 0 l 553 75 q 346 -14 471 -14 q 122 94 203 -14 q 42 360 42 203 q 122 625 42 517 q 346 733 203 733 q 553 644 471 733 l 553 957 l 650 957 m 199 555 q 169 514 199 555 q 139 360 139 474 q 199 165 139 246 q 346 83 260 83 q 492 165 432 83 q 553 360 553 246 q 492 555 553 474 q 346 636 432 636 q 199 555 260 636 m 760 858 q 774 892 760 878 q 808 907 789 907 q 842 892 828 907 q 857 858 857 878 q 853 839 857 847 l 794 704 l 756 713 l 760 858 z "},"Đ":{"ha":779,"x_min":28,"x_max":738,"o":"m 28 431 l 28 514 l 69 514 l 69 957 l 265 957 q 619 823 501 957 q 738 478 738 689 q 690 237 738 342 q 533 66 642 132 q 265 0 425 0 l 69 0 l 69 431 l 28 431 m 639 478 q 543 758 639 658 q 265 858 447 858 l 168 858 l 168 514 l 360 514 l 360 431 l 168 431 l 168 99 l 265 99 q 542 199 446 99 q 639 478 639 299 z "},"đ":{"ha":733,"x_min":42,"x_max":719,"o":"m 650 957 l 650 846 l 719 846 l 719 790 l 650 790 l 650 0 l 553 0 l 553 75 q 346 -14 471 -14 q 122 94 203 -14 q 42 360 42 203 q 122 625 42 517 q 346 733 203 733 q 553 644 471 733 l 553 790 l 483 790 l 483 846 l 553 846 l 553 957 l 650 957 m 199 555 q 169 514 199 555 q 139 360 139 474 q 199 165 139 246 q 346 83 260 83 q 492 165 432 83 q 553 360 553 246 q 492 555 553 474 q 346 636 432 636 q 199 555 260 636 z "},"Ē":{"ha":667,"x_min":69,"x_max":611,"o":"m 69 0 l 69 957 l 611 957 l 611 860 l 167 860 l 167 457 l 611 457 l 611 360 l 167 360 l 167 97 l 611 97 l 611 0 l 69 0 m 181 1076 l 181 1146 l 485 1146 l 485 1076 l 181 1076 z "},"ē":{"ha":692,"x_min":42,"x_max":650,"o":"m 122 94 q 82 149 122 94 q 42 360 42 203 q 122 625 42 517 q 346 733 203 733 q 569 625 489 733 q 650 360 650 517 l 139 360 q 202 161 139 239 q 346 83 265 83 q 443 116 393 83 q 524 217 493 149 l 611 167 q 506 35 574 83 q 346 -14 439 -14 q 122 94 203 -14 m 464 586 q 438 611 464 586 q 346 636 411 636 q 227 586 281 636 q 151 457 174 536 l 539 457 q 464 586 517 536 m 193 839 l 193 908 l 497 908 l 497 839 l 193 839 z "},"Ĕ":{"ha":667,"x_min":69,"x_max":611,"o":"m 69 0 l 69 957 l 611 957 l 611 860 l 167 860 l 167 457 l 611 457 l 611 360 l 167 360 l 167 97 l 611 97 l 611 0 l 69 0 m 222 1188 l 290 1188 q 333 1117 290 1117 q 376 1188 376 1117 l 444 1188 q 414 1084 444 1119 q 333 1049 383 1049 q 253 1084 283 1049 q 222 1188 222 1119 z "},"ĕ":{"ha":692,"x_min":42,"x_max":650,"o":"m 122 94 q 82 149 122 94 q 42 360 42 203 q 122 625 42 517 q 346 733 203 733 q 569 625 489 733 q 650 360 650 517 l 139 360 q 202 161 139 239 q 346 83 265 83 q 443 116 393 83 q 524 217 493 149 l 611 167 q 506 35 574 83 q 346 -14 439 -14 q 122 94 203 -14 m 464 586 q 438 611 464 586 q 346 636 411 636 q 227 586 281 636 q 151 457 174 536 l 539 457 q 464 586 517 536 m 233 950 l 301 950 q 344 879 301 879 q 388 950 388 879 l 456 950 q 425 847 456 882 q 344 811 394 811 q 264 847 294 811 q 233 950 233 882 z "},"Ė":{"ha":667,"x_min":69,"x_max":611,"o":"m 69 0 l 69 957 l 611 957 l 611 860 l 167 860 l 167 457 l 611 457 l 611 360 l 167 360 l 167 97 l 611 97 l 611 0 l 69 0 m 299 1077 q 292 1084 299 1077 q 285 1111 285 1092 q 299 1145 285 1131 q 333 1160 314 1160 q 367 1145 353 1160 q 382 1111 382 1131 q 367 1077 382 1092 q 333 1063 353 1063 q 299 1077 314 1063 z "},"ė":{"ha":692,"x_min":42,"x_max":650,"o":"m 122 94 q 82 149 122 94 q 42 360 42 203 q 122 625 42 517 q 346 733 203 733 q 569 625 489 733 q 650 360 650 517 l 139 360 q 202 161 139 239 q 346 83 265 83 q 443 116 393 83 q 524 217 493 149 l 611 167 q 506 35 574 83 q 346 -14 439 -14 q 122 94 203 -14 m 464 586 q 438 611 464 586 q 346 636 411 636 q 227 586 281 636 q 151 457 174 536 l 539 457 q 464 586 517 536 m 324 840 q 317 847 324 840 q 310 874 310 854 q 324 908 310 893 q 358 922 339 922 q 392 908 378 922 q 407 874 407 893 q 392 840 407 854 q 358 825 378 825 q 324 840 339 825 z "},"Ę":{"ha":667,"x_min":69,"x_max":611,"o":"m 69 0 l 69 957 l 611 957 l 611 860 l 167 860 l 167 457 l 611 457 l 611 360 l 167 360 l 167 97 l 611 97 l 611 0 l 408 0 l 383 -11 q 325 -85 308 -44 q 419 -89 343 -122 l 444 -78 l 474 -139 l 435 -156 q 332 -168 381 -179 q 263 -114 283 -157 q 282 0 236 -56 l 69 0 z "},"ę":{"ha":692,"x_min":42,"x_max":650,"o":"m 564 -114 l 525 -131 q 422 -143 471 -154 q 353 -89 374 -132 q 350 -14 336 -53 l 346 -14 q 122 94 203 -14 q 42 360 42 203 q 122 625 42 517 q 346 733 203 733 q 569 625 489 733 q 650 360 650 517 l 139 360 q 202 161 139 239 q 346 83 265 83 q 443 116 393 83 q 524 217 493 149 l 611 167 q 458 7 564 60 q 415 -60 399 -24 q 510 -64 435 -99 l 535 -53 l 564 -114 m 464 586 q 438 611 464 586 q 346 636 411 636 q 227 586 281 636 q 151 457 174 536 l 539 457 q 464 586 517 536 z "},"Ě":{"ha":667,"x_min":69,"x_max":611,"o":"m 69 0 l 69 957 l 611 957 l 611 860 l 167 860 l 167 457 l 611 457 l 611 360 l 167 360 l 167 97 l 611 97 l 611 0 l 69 0 m 371 1049 l 296 1049 l 207 1263 l 264 1283 l 333 1131 l 403 1283 l 460 1263 l 371 1049 z "},"ě":{"ha":692,"x_min":42,"x_max":650,"o":"m 122 94 q 82 149 122 94 q 42 360 42 203 q 122 625 42 517 q 346 733 203 733 q 569 625 489 733 q 650 360 650 517 l 139 360 q 202 161 139 239 q 346 83 265 83 q 443 116 393 83 q 524 217 493 149 l 611 167 q 506 35 574 83 q 346 -14 439 -14 q 122 94 203 -14 m 464 586 q 438 611 464 586 q 346 636 411 636 q 227 586 281 636 q 151 457 174 536 l 539 457 q 464 586 517 536 m 382 811 l 307 811 l 218 1025 l 275 1046 l 344 893 l 414 1046 l 471 1025 l 382 811 z "},"Ĝ":{"ha":894,"x_min":42,"x_max":853,"o":"m 450 438 l 450 535 l 853 535 q 748 135 853 283 q 449 -14 643 -14 q 227 56 321 -14 q 88 235 133 125 q 42 478 42 344 q 150 828 42 686 q 449 971 258 971 q 666 901 575 971 q 811 713 757 832 l 726 663 q 610 818 682 763 q 449 874 538 874 q 226 765 313 874 q 140 478 140 656 q 226 192 140 301 q 449 83 313 83 q 652 174 572 83 q 749 438 732 264 l 450 438 m 410 1283 l 485 1283 l 574 1069 l 517 1049 l 447 1201 l 378 1049 l 321 1069 l 410 1283 z "},"ĝ":{"ha":719,"x_min":42,"x_max":650,"o":"m 650 719 l 650 92 q 569 -174 650 -65 q 346 -282 489 -282 q 185 -233 253 -282 q 81 -101 118 -185 l 168 -51 q 249 -152 199 -119 q 346 -185 299 -185 q 486 -115 425 -185 q 553 75 547 -46 q 346 -14 472 -14 q 122 94 203 -14 q 42 360 42 203 q 122 625 42 517 q 346 733 203 733 q 553 644 471 733 l 553 719 l 650 719 m 199 555 q 169 514 199 555 q 139 360 139 474 q 199 165 139 246 q 346 83 260 83 q 492 165 432 83 q 553 360 553 246 q 492 555 553 474 q 346 636 432 636 q 199 555 260 636 m 307 1046 l 382 1046 l 471 832 l 414 811 l 344 964 l 275 811 l 218 832 l 307 1046 z "},"Ğ":{"ha":894,"x_min":42,"x_max":853,"o":"m 450 438 l 450 535 l 853 535 q 748 135 853 283 q 449 -14 643 -14 q 227 56 321 -14 q 88 235 133 125 q 42 478 42 344 q 150 828 42 686 q 449 971 258 971 q 666 901 575 971 q 811 713 757 832 l 726 663 q 610 818 682 763 q 449 874 538 874 q 226 765 313 874 q 140 478 140 656 q 226 192 140 301 q 449 83 313 83 q 652 174 572 83 q 749 438 732 264 l 450 438 m 336 1188 l 404 1188 q 447 1117 404 1117 q 490 1188 490 1117 l 558 1188 q 528 1084 558 1119 q 447 1049 497 1049 q 367 1084 397 1049 q 336 1188 336 1119 z "},"ğ":{"ha":719,"x_min":42,"x_max":650,"o":"m 650 719 l 650 92 q 569 -174 650 -65 q 346 -282 489 -282 q 185 -233 253 -282 q 81 -101 118 -185 l 168 -51 q 249 -152 199 -119 q 346 -185 299 -185 q 486 -115 425 -185 q 553 75 547 -46 q 346 -14 472 -14 q 122 94 203 -14 q 42 360 42 203 q 122 625 42 517 q 346 733 203 733 q 553 644 471 733 l 553 719 l 650 719 m 199 555 q 169 514 199 555 q 139 360 139 474 q 199 165 139 246 q 346 83 260 83 q 492 165 432 83 q 553 360 553 246 q 492 555 553 474 q 346 636 432 636 q 199 555 260 636 m 235 950 l 303 950 q 346 879 303 879 q 389 950 389 879 l 457 950 q 426 847 457 882 q 346 811 396 811 q 265 847 296 811 q 235 950 235 882 z "},"Ġ":{"ha":894,"x_min":42,"x_max":853,"o":"m 450 438 l 450 535 l 853 535 q 748 135 853 283 q 449 -14 643 -14 q 227 56 321 -14 q 88 235 133 125 q 42 478 42 344 q 150 828 42 686 q 449 971 258 971 q 666 901 575 971 q 811 713 757 832 l 726 663 q 610 818 682 763 q 449 874 538 874 q 226 765 313 874 q 140 478 140 656 q 226 192 140 301 q 449 83 313 83 q 652 174 572 83 q 749 438 732 264 l 450 438 m 413 1077 q 406 1084 413 1077 q 399 1111 399 1092 q 413 1145 399 1131 q 447 1160 428 1160 q 481 1145 467 1160 q 496 1111 496 1131 q 481 1077 496 1092 q 447 1063 467 1063 q 413 1077 428 1063 z "},"ġ":{"ha":719,"x_min":42,"x_max":650,"o":"m 650 719 l 650 92 q 569 -174 650 -65 q 346 -282 489 -282 q 185 -233 253 -282 q 81 -101 118 -185 l 168 -51 q 249 -152 199 -119 q 346 -185 299 -185 q 486 -115 425 -185 q 553 75 547 -46 q 346 -14 472 -14 q 122 94 203 -14 q 42 360 42 203 q 122 625 42 517 q 346 733 203 733 q 553 644 471 733 l 553 719 l 650 719 m 199 555 q 169 514 199 555 q 139 360 139 474 q 199 165 139 246 q 346 83 260 83 q 492 165 432 83 q 553 360 553 246 q 492 555 553 474 q 346 636 432 636 q 199 555 260 636 m 312 840 q 305 847 312 840 q 297 874 297 854 q 312 908 297 893 q 346 922 326 922 q 380 908 365 922 q 394 874 394 893 q 380 840 394 854 q 346 825 365 825 q 312 840 326 825 z "},"Ģ":{"ha":894,"x_min":42,"x_max":853,"o":"m 450 438 l 450 535 l 853 535 q 748 135 853 283 q 449 -14 643 -14 q 227 56 321 -14 q 88 235 133 125 q 42 478 42 344 q 150 828 42 686 q 449 971 258 971 q 666 901 575 971 q 811 713 757 832 l 726 663 q 610 818 682 763 q 449 874 538 874 q 226 765 313 874 q 140 478 140 656 q 226 192 140 301 q 449 83 313 83 q 652 174 572 83 q 749 438 732 264 l 450 438 m 414 -96 q 428 -62 414 -76 q 463 -47 443 -47 q 497 -62 482 -47 q 511 -96 511 -76 q 507 -115 511 -107 l 449 -250 l 410 -242 l 414 -96 z "},"ģ":{"ha":719,"x_min":42,"x_max":650,"o":"m 650 719 l 650 92 q 569 -174 650 -65 q 346 -282 489 -282 q 185 -233 253 -282 q 81 -101 118 -185 l 168 -51 q 249 -152 199 -119 q 346 -185 299 -185 q 486 -115 425 -185 q 553 75 547 -46 q 346 -14 472 -14 q 122 94 203 -14 q 42 360 42 203 q 122 625 42 517 q 346 733 203 733 q 553 644 471 733 l 553 719 l 650 719 m 199 555 q 169 514 199 555 q 139 360 139 474 q 199 165 139 246 q 346 83 260 83 q 492 165 432 83 q 553 360 553 246 q 492 555 553 474 q 346 636 432 636 q 199 555 260 636 m 301 957 q 316 991 301 976 q 350 1006 331 1006 q 384 991 369 1006 q 399 957 399 976 q 394 938 399 946 l 336 803 l 297 811 l 301 957 z "},"Ĥ":{"ha":806,"x_min":69,"x_max":736,"o":"m 639 0 l 639 360 l 167 360 l 167 0 l 69 0 l 69 957 l 167 957 l 167 457 l 639 457 l 639 957 l 736 957 l 736 0 l 639 0 m 365 1283 l 440 1283 l 529 1069 l 472 1049 l 403 1201 l 333 1049 l 276 1069 l 365 1283 z "},"ĥ":{"ha":733,"x_min":69,"x_max":678,"o":"m 581 0 l 581 360 q 520 555 581 474 q 374 636 460 636 q 230 559 290 636 q 167 371 169 482 l 167 0 l 69 0 l 69 957 l 167 957 l 167 646 q 374 733 247 733 q 597 625 517 733 q 678 360 678 517 l 678 0 l 581 0 m 336 1046 l 411 1046 l 500 832 l 443 811 l 374 964 l 304 811 l 247 832 l 336 1046 z "},"Ħ":{"ha":806,"x_min":28,"x_max":778,"o":"m 28 499 l 28 596 l 69 596 l 69 957 l 167 957 l 167 596 l 639 596 l 639 957 l 736 957 l 736 596 l 778 596 l 778 499 l 736 499 l 736 0 l 639 0 l 639 360 l 167 360 l 167 0 l 69 0 l 69 499 l 28 499 m 167 457 l 639 457 l 639 499 l 167 499 l 167 457 z "},"ħ":{"ha":747,"x_min":14,"x_max":692,"o":"m 14 790 l 14 846 l 83 846 l 83 957 l 181 957 l 181 846 l 250 846 l 250 790 l 181 790 l 181 646 q 388 733 261 733 q 611 625 531 733 q 692 360 692 517 l 692 0 l 594 0 l 594 360 q 534 555 594 474 q 388 636 474 636 q 244 559 304 636 q 181 371 183 482 l 181 0 l 83 0 l 83 790 l 14 790 z "},"Ĩ":{"ha":375,"x_min":33,"x_max":342,"o":"m 139 0 l 139 957 l 236 957 l 236 0 l 139 0 m 203 1094 q 108 1072 149 1061 q 33 1142 67 1083 l 81 1169 q 125 1139 110 1139 q 175 1161 140 1139 q 270 1185 232 1196 q 342 1114 308 1175 l 296 1088 q 265 1115 278 1110 q 244 1116 253 1119 q 203 1094 235 1113 z "},"ĩ":{"ha":264,"x_min":-22,"x_max":286,"o":"m 83 0 l 83 719 l 181 719 l 181 0 l 83 0 m 147 857 q 52 835 93 824 q -22 904 11 846 l 25 932 q 69 901 54 901 q 119 924 85 901 q 215 948 176 958 q 286 876 253 938 l 240 850 q 210 877 222 872 q 188 878 197 882 q 147 857 179 875 z "},"Ī":{"ha":375,"x_min":35,"x_max":339,"o":"m 139 0 l 139 957 l 236 957 l 236 0 l 139 0 m 35 1076 l 35 1146 l 339 1146 l 339 1076 l 35 1076 z "},"ī":{"ha":264,"x_min":-19,"x_max":285,"o":"m 83 0 l 83 719 l 181 719 l 181 0 l 83 0 m -19 839 l -19 908 l 285 908 l 285 839 l -19 839 z "},"Ĭ":{"ha":375,"x_min":76,"x_max":299,"o":"m 139 0 l 139 957 l 236 957 l 236 0 l 139 0 m 76 1188 l 144 1188 q 188 1117 144 1117 q 231 1188 231 1117 l 299 1188 q 268 1084 299 1119 q 188 1049 238 1049 q 107 1084 138 1049 q 76 1188 76 1119 z "},"ĭ":{"ha":264,"x_min":21,"x_max":243,"o":"m 83 0 l 83 719 l 181 719 l 181 0 l 83 0 m 21 950 l 89 950 q 132 879 89 879 q 175 950 175 879 l 243 950 q 213 847 243 882 q 132 811 182 811 q 51 847 82 811 q 21 950 21 882 z "},"Į":{"ha":375,"x_min":74,"x_max":301,"o":"m 301 -139 l 263 -156 q 160 -168 208 -179 q 90 -114 111 -157 q 88 -38 74 -76 q 139 26 101 0 l 139 957 l 236 957 l 236 0 l 211 -11 q 153 -85 136 -44 q 247 -89 172 -124 l 272 -78 l 301 -139 z "},"į":{"ha":264,"x_min":18,"x_max":246,"o":"m 246 -139 l 207 -156 q 103 -168 153 -179 q 35 -114 54 -157 q 32 -37 18 -76 q 83 28 46 1 l 83 719 l 181 719 l 181 0 l 156 -11 q 97 -85 78 -44 q 192 -89 114 -122 l 217 -78 l 246 -139 m 98 790 q 91 797 98 790 q 83 824 83 804 q 98 858 83 843 q 132 872 113 872 q 166 858 151 872 q 181 824 181 843 q 166 790 181 804 q 132 775 151 775 q 98 790 113 775 z "},"İ":{"ha":375,"x_min":139,"x_max":236,"o":"m 139 0 l 139 957 l 236 957 l 236 0 l 139 0 m 153 1077 q 146 1084 153 1077 q 139 1111 139 1092 q 153 1145 139 1131 q 188 1160 168 1160 q 222 1145 207 1160 q 236 1111 236 1131 q 222 1077 236 1092 q 188 1063 207 1063 q 153 1077 168 1063 z "},"ı":{"ha":264,"x_min":83,"x_max":181,"o":"m 83 0 l 83 719 l 181 719 l 181 0 l 83 0 z "},"Ĵ":{"ha":415,"x_min":42,"x_max":424,"o":"m 249 401 l 249 957 l 346 957 l 346 360 q 265 94 346 203 q 42 -14 185 -14 l 42 83 q 249 401 249 83 m 260 1283 l 335 1283 l 424 1069 l 367 1049 l 297 1201 l 228 1049 l 171 1069 l 260 1283 z "},"ĵ":{"ha":292,"x_min":-68,"x_max":272,"o":"m 97 50 l 97 719 l 194 719 l 194 50 q 130 -194 194 -106 q -68 -282 65 -282 l -68 -185 q 56 -133 14 -185 q 97 50 97 -81 m 108 1046 l 183 1046 l 272 832 l 215 811 l 146 964 l 76 811 l 19 832 l 108 1046 z "},"Ķ":{"ha":792,"x_min":69,"x_max":778,"o":"m 69 0 l 69 957 l 167 957 l 167 489 l 568 957 l 694 957 l 304 503 l 778 0 l 646 0 l 242 429 l 167 342 l 167 0 l 69 0 m 307 -96 q 322 -62 307 -76 q 356 -47 336 -47 q 390 -62 375 -47 q 404 -96 404 -76 q 400 -115 404 -107 l 342 -250 l 303 -242 l 307 -96 z "},"ķ":{"ha":667,"x_min":69,"x_max":653,"o":"m 69 0 l 69 957 l 167 957 l 167 426 l 444 719 l 578 719 l 272 399 l 653 0 l 518 0 l 206 328 l 167 286 l 167 0 l 69 0 m 258 -96 q 273 -62 258 -76 q 307 -47 288 -47 q 341 -62 326 -47 q 356 -96 356 -76 q 351 -115 356 -107 l 293 -250 l 254 -242 l 258 -96 z "},"ĸ":{"ha":667,"x_min":69,"x_max":653,"o":"m 69 0 l 69 719 l 167 719 l 167 426 l 444 719 l 578 719 l 272 399 l 653 0 l 518 0 l 206 328 l 167 286 l 167 0 l 69 0 z "},"Ĺ":{"ha":639,"x_min":25,"x_max":611,"o":"m 69 0 l 69 957 l 167 957 l 167 97 l 611 97 l 611 0 l 69 0 m 25 1076 l 138 1308 l 213 1265 l 71 1049 l 25 1076 z "},"ĺ":{"ha":264,"x_min":38,"x_max":225,"o":"m 83 0 l 83 957 l 181 957 l 181 0 l 83 0 m 38 1047 l 150 1279 l 225 1236 l 83 1019 l 38 1047 z "},"Ļ":{"ha":639,"x_min":69,"x_max":611,"o":"m 69 0 l 69 957 l 167 957 l 167 97 l 611 97 l 611 0 l 69 0 m 300 -96 q 315 -62 300 -76 q 349 -47 329 -47 q 383 -62 368 -47 q 397 -96 397 -76 q 393 -115 397 -107 l 335 -250 l 296 -242 l 300 -96 z "},"ļ":{"ha":264,"x_min":81,"x_max":182,"o":"m 83 0 l 83 957 l 181 957 l 181 0 l 83 0 m 85 -110 q 99 -76 85 -90 q 133 -61 114 -61 q 167 -76 153 -61 q 182 -110 182 -90 q 178 -129 182 -121 l 119 -264 l 81 -256 l 85 -110 z "},"Ľ":{"ha":639,"x_min":-8,"x_max":611,"o":"m 69 0 l 69 957 l 167 957 l 167 97 l 611 97 l 611 0 l 69 0 m 156 1049 l 81 1049 l -8 1263 l 49 1283 l 118 1131 l 188 1283 l 244 1263 l 156 1049 z "},"ľ":{"ha":374,"x_min":83,"x_max":360,"o":"m 83 0 l 83 957 l 181 957 l 181 0 l 83 0 m 263 858 q 277 892 263 878 q 311 907 292 907 q 345 892 331 907 q 360 858 360 878 q 356 839 360 847 l 297 704 l 258 713 l 263 858 z "},"Ŀ":{"ha":639,"x_min":69,"x_max":611,"o":"m 69 0 l 69 957 l 167 957 l 167 97 l 611 97 l 611 0 l 69 0 m 341 452 q 334 459 341 452 q 326 486 326 467 q 341 520 326 506 q 375 535 356 535 q 409 520 394 535 q 424 486 424 506 q 409 452 424 467 q 375 438 394 438 q 341 452 356 438 z "},"ŀ":{"ha":389,"x_min":83,"x_max":361,"o":"m 83 0 l 83 957 l 181 957 l 181 0 l 83 0 m 278 459 q 271 466 278 459 q 264 493 264 474 q 278 527 264 513 q 313 542 293 542 q 347 527 332 542 q 361 493 361 513 q 347 459 361 474 q 313 444 332 444 q 278 459 293 444 z "},"Ł":{"ha":692,"x_min":14,"x_max":664,"o":"m 122 0 l 122 425 l 42 379 l 14 428 l 122 490 l 122 957 l 219 957 l 219 546 l 301 593 l 329 544 l 219 481 l 219 97 l 664 97 l 664 0 l 122 0 z "},"ł":{"ha":343,"x_min":14,"x_max":329,"o":"m 118 0 l 118 422 l 42 379 l 14 428 l 118 488 l 118 957 l 215 957 l 215 543 l 301 593 l 329 544 l 215 479 l 215 0 l 118 0 z "},"Ń":{"ha":826,"x_min":69,"x_max":757,"o":"m 643 0 l 167 794 l 167 0 l 69 0 l 69 957 l 183 957 l 660 163 l 660 957 l 757 957 l 757 0 l 643 0 m 319 1076 l 432 1308 l 507 1265 l 365 1049 l 319 1076 z "},"ń":{"ha":733,"x_min":69,"x_max":678,"o":"m 581 0 l 581 360 q 520 555 581 474 q 374 636 460 636 q 230 559 290 636 q 167 371 169 482 l 167 0 l 69 0 l 69 719 l 167 719 l 167 644 q 374 733 249 733 q 597 625 517 733 q 678 360 678 517 l 678 0 l 581 0 m 272 839 l 385 1071 l 460 1028 l 318 811 l 272 839 z "},"Ņ":{"ha":826,"x_min":69,"x_max":757,"o":"m 643 0 l 167 794 l 167 0 l 69 0 l 69 957 l 183 957 l 660 163 l 660 957 l 757 957 l 757 0 l 643 0 m 367 -96 q 381 -62 367 -76 q 415 -47 396 -47 q 449 -62 435 -47 q 464 -96 464 -76 q 460 -115 464 -107 l 401 -250 l 363 -242 l 367 -96 z "},"ņ":{"ha":733,"x_min":69,"x_max":678,"o":"m 581 0 l 581 360 q 520 555 581 474 q 374 636 460 636 q 230 559 290 636 q 167 371 169 482 l 167 0 l 69 0 l 69 719 l 167 719 l 167 644 q 374 733 249 733 q 597 625 517 733 q 678 360 678 517 l 678 0 l 581 0 m 326 -96 q 341 -62 326 -76 q 375 -47 356 -47 q 409 -62 394 -47 q 424 -96 424 -76 q 419 -115 424 -107 l 361 -250 l 322 -242 l 326 -96 z "},"Ň":{"ha":826,"x_min":69,"x_max":757,"o":"m 643 0 l 167 794 l 167 0 l 69 0 l 69 957 l 183 957 l 660 163 l 660 957 l 757 957 l 757 0 l 643 0 m 450 1049 l 375 1049 l 286 1263 l 343 1283 l 413 1131 l 482 1283 l 539 1263 l 450 1049 z "},"ň":{"ha":733,"x_min":69,"x_max":678,"o":"m 581 0 l 581 360 q 520 555 581 474 q 374 636 460 636 q 230 559 290 636 q 167 371 169 482 l 167 0 l 69 0 l 69 719 l 167 719 l 167 644 q 374 733 249 733 q 597 625 517 733 q 678 360 678 517 l 678 0 l 581 0 m 404 811 l 329 811 l 240 1025 l 297 1046 l 367 893 l 436 1046 l 493 1025 l 404 811 z "},"ŉ":{"ha":850,"x_min":14,"x_max":794,"o":"m 697 0 l 697 360 q 637 555 697 474 q 490 636 576 636 q 347 559 407 636 q 283 371 286 482 l 283 0 l 186 0 l 186 719 l 283 719 l 283 644 q 490 733 365 733 q 714 625 633 733 q 794 360 794 517 l 794 0 l 697 0 m 18 858 q 33 892 18 878 q 67 907 47 907 q 101 892 86 907 q 115 858 115 878 q 111 839 115 847 l 53 704 l 14 713 l 18 858 z "},"Ŋ":{"ha":826,"x_min":69,"x_max":757,"o":"m 757 957 l 757 0 q 681 -203 757 -125 q 453 -282 604 -282 l 453 -185 q 598 -149 547 -185 q 657 -25 649 -114 l 167 794 l 167 0 l 69 0 l 69 957 l 183 957 l 660 163 l 660 957 l 757 957 z "},"ŋ":{"ha":733,"x_min":69,"x_max":678,"o":"m 415 -185 q 539 -133 500 -185 q 581 29 578 -82 l 581 360 q 520 555 581 474 q 374 636 460 636 q 230 559 290 636 q 167 371 169 482 l 167 0 l 69 0 l 69 719 l 167 719 l 167 644 q 374 733 249 733 q 597 625 517 733 q 678 360 678 517 l 678 0 q 613 -204 678 -126 q 415 -282 547 -282 l 415 -185 z "},"Ō":{"ha":886,"x_min":42,"x_max":844,"o":"m 42 478 q 149 828 42 686 q 444 971 257 971 q 738 828 632 971 q 844 478 844 686 q 738 128 844 271 q 444 -14 632 -14 q 149 128 257 -14 q 42 478 42 271 m 139 478 q 228 198 139 314 q 443 82 317 82 q 659 198 569 82 q 749 478 749 314 q 659 758 749 642 q 443 875 569 875 q 228 759 317 875 q 139 478 139 643 m 290 1076 l 290 1146 l 594 1146 l 594 1076 l 290 1076 z "},"ō":{"ha":692,"x_min":42,"x_max":650,"o":"m 122 94 q 82 149 122 94 q 42 360 42 203 q 122 625 42 517 q 346 733 203 733 q 569 625 489 733 q 650 360 650 517 q 569 94 650 203 q 346 -14 489 -14 q 122 94 203 -14 m 199 555 q 169 514 199 555 q 139 360 139 474 q 199 165 139 246 q 346 83 260 83 q 492 165 432 83 q 553 360 553 246 q 492 555 553 474 q 346 636 432 636 q 199 555 260 636 m 194 839 l 194 908 l 499 908 l 499 839 l 194 839 z "},"Ŏ":{"ha":886,"x_min":42,"x_max":844,"o":"m 42 478 q 149 828 42 686 q 444 971 257 971 q 738 828 632 971 q 844 478 844 686 q 738 128 844 271 q 444 -14 632 -14 q 149 128 257 -14 q 42 478 42 271 m 139 478 q 228 198 139 314 q 443 82 317 82 q 659 198 569 82 q 749 478 749 314 q 659 758 749 642 q 443 875 569 875 q 228 759 317 875 q 139 478 139 643 m 332 1188 l 400 1188 q 443 1117 400 1117 q 486 1188 486 1117 l 554 1188 q 524 1084 554 1119 q 443 1049 493 1049 q 363 1084 393 1049 q 332 1188 332 1119 z "},"ŏ":{"ha":692,"x_min":42,"x_max":650,"o":"m 122 94 q 82 149 122 94 q 42 360 42 203 q 122 625 42 517 q 346 733 203 733 q 569 625 489 733 q 650 360 650 517 q 569 94 650 203 q 346 -14 489 -14 q 122 94 203 -14 m 199 555 q 169 514 199 555 q 139 360 139 474 q 199 165 139 246 q 346 83 260 83 q 492 165 432 83 q 553 360 553 246 q 492 555 553 474 q 346 636 432 636 q 199 555 260 636 m 235 950 l 303 950 q 346 879 303 879 q 389 950 389 879 l 457 950 q 426 847 457 882 q 346 811 396 811 q 265 847 296 811 q 235 950 235 882 z "},"Ő":{"ha":886,"x_min":42,"x_max":844,"o":"m 42 478 q 149 828 42 686 q 444 971 257 971 q 738 828 632 971 q 844 478 844 686 q 738 128 844 271 q 444 -14 632 -14 q 149 128 257 -14 q 42 478 42 271 m 139 478 q 228 198 139 314 q 443 82 317 82 q 659 198 569 82 q 749 478 749 314 q 659 758 749 642 q 443 875 569 875 q 228 759 317 875 q 139 478 139 643 m 317 1058 l 346 1313 l 429 1301 l 369 1049 l 317 1058 m 456 1058 l 485 1313 l 568 1301 l 508 1049 l 456 1058 z "},"ő":{"ha":692,"x_min":42,"x_max":650,"o":"m 122 94 q 82 149 122 94 q 42 360 42 203 q 122 625 42 517 q 346 733 203 733 q 569 625 489 733 q 650 360 650 517 q 569 94 650 203 q 346 -14 489 -14 q 122 94 203 -14 m 199 555 q 169 514 199 555 q 139 360 139 474 q 199 165 139 246 q 346 83 260 83 q 492 165 432 83 q 553 360 553 246 q 492 555 553 474 q 346 636 432 636 q 199 555 260 636 m 221 821 l 250 1075 l 333 1064 l 274 811 l 221 821 m 360 821 l 389 1075 l 472 1064 l 413 811 l 360 821 z "},"Œ":{"ha":972,"x_min":42,"x_max":917,"o":"m 444 0 q 153 138 264 0 q 42 478 42 276 q 153 819 42 681 q 444 957 264 957 l 917 957 l 917 860 l 542 860 l 542 457 l 917 457 l 917 360 l 542 360 l 542 97 l 917 97 l 917 0 l 444 0 m 444 96 l 444 861 q 228 751 317 861 q 139 478 139 640 q 228 206 139 315 q 444 96 317 96 z "},"œ":{"ha":1106,"x_min":42,"x_max":1064,"o":"m 346 733 q 553 644 472 733 q 760 733 633 733 q 983 625 903 733 q 1064 360 1064 517 l 553 360 q 616 161 553 239 q 760 83 679 83 q 857 116 807 83 q 938 217 907 149 l 1025 167 q 920 35 988 83 q 760 -14 853 -14 q 553 74 633 -14 q 346 -14 472 -14 q 122 94 203 -14 q 42 360 42 203 q 122 625 42 517 q 346 733 203 733 m 493 165 q 456 360 456 253 q 493 553 456 467 q 346 636 432 636 q 199 555 260 636 q 139 360 139 474 q 199 165 139 246 q 346 83 260 83 q 493 165 433 83 m 878 586 q 851 611 878 586 q 760 636 825 636 q 641 586 694 636 q 565 457 588 536 l 953 457 q 878 586 931 536 z "},"Ŕ":{"ha":722,"x_min":69,"x_max":708,"o":"m 69 0 l 69 957 l 290 957 q 553 874 457 957 q 650 660 650 790 q 589 481 650 557 q 418 375 528 406 l 708 0 l 586 0 l 308 360 l 167 360 l 167 0 l 69 0 m 249 457 q 553 660 553 457 q 249 860 553 860 l 167 860 l 167 457 l 249 457 m 197 1076 l 310 1308 l 385 1265 l 243 1049 l 197 1076 z "},"ŕ":{"ha":388,"x_min":83,"x_max":346,"o":"m 181 388 l 181 0 l 83 0 l 83 388 q 148 631 83 543 q 346 719 213 719 l 346 622 q 181 388 181 622 m 121 839 l 233 1071 l 308 1028 l 167 811 l 121 839 z "},"Ŗ":{"ha":722,"x_min":69,"x_max":708,"o":"m 69 0 l 69 957 l 290 957 q 553 874 457 957 q 650 660 650 790 q 589 481 650 557 q 418 375 528 406 l 708 0 l 586 0 l 308 360 l 167 360 l 167 0 l 69 0 m 249 457 q 553 660 553 457 q 249 860 553 860 l 167 860 l 167 457 l 249 457 m 307 -96 q 322 -62 307 -76 q 356 -47 336 -47 q 390 -62 375 -47 q 404 -96 404 -76 q 400 -115 404 -107 l 342 -250 l 303 -242 l 307 -96 z "},"ŗ":{"ha":388,"x_min":74,"x_max":346,"o":"m 181 388 l 181 0 l 83 0 l 83 388 q 148 631 83 543 q 346 719 213 719 l 346 622 q 181 388 181 622 m 78 -96 q 92 -62 78 -76 q 126 -47 107 -47 q 160 -62 146 -47 q 175 -96 175 -76 q 171 -115 175 -107 l 113 -250 l 74 -242 l 78 -96 z "},"Ř":{"ha":722,"x_min":69,"x_max":708,"o":"m 69 0 l 69 957 l 290 957 q 553 874 457 957 q 650 660 650 790 q 589 481 650 557 q 418 375 528 406 l 708 0 l 586 0 l 308 360 l 167 360 l 167 0 l 69 0 m 249 457 q 553 660 553 457 q 249 860 553 860 l 167 860 l 167 457 l 249 457 m 329 1049 l 254 1049 l 165 1263 l 222 1283 l 292 1131 l 361 1283 l 418 1263 l 329 1049 z "},"ř":{"ha":388,"x_min":83,"x_max":346,"o":"m 181 388 l 181 0 l 83 0 l 83 388 q 148 631 83 543 q 346 719 213 719 l 346 622 q 181 388 181 622 m 251 811 l 176 811 l 88 1025 l 144 1046 l 214 893 l 283 1046 l 340 1025 l 251 811 z "},"Ś":{"ha":692,"x_min":42,"x_max":650,"o":"m 551 260 q 535 333 551 303 q 485 382 519 363 q 422 411 450 401 q 342 433 393 421 q 259 454 289 446 q 186 483 229 463 q 121 529 143 504 q 81 597 99 554 q 64 697 64 640 q 140 894 64 817 q 338 971 215 971 q 506 916 433 971 q 619 767 578 861 l 532 718 q 449 832 500 792 q 338 872 399 872 q 215 826 268 872 q 163 697 163 779 q 178 624 163 654 q 229 575 194 594 q 292 546 264 556 q 372 524 321 536 q 455 503 425 511 q 528 474 485 494 q 593 428 571 453 q 633 360 615 403 q 650 260 650 317 q 557 61 650 136 q 338 -14 464 -14 q 42 190 132 -14 l 129 239 q 338 85 196 85 q 484 128 417 85 q 551 260 551 172 m 251 1076 l 364 1308 l 439 1265 l 297 1049 l 251 1076 z "},"ś":{"ha":603,"x_min":42,"x_max":561,"o":"m 465 190 q 453 242 465 221 q 412 278 440 264 q 361 299 383 292 q 297 315 339 306 q 228 332 253 325 q 167 356 204 339 q 112 394 131 374 q 78 449 93 414 q 64 531 64 485 q 132 671 64 608 q 306 733 200 733 q 461 686 394 733 q 557 558 528 639 l 471 510 q 406 604 451 571 q 306 638 360 638 q 205 606 250 638 q 160 531 160 575 q 172 478 160 500 q 213 443 185 457 q 264 422 242 429 q 328 406 286 415 q 397 389 372 396 q 458 365 421 382 q 513 327 494 347 q 547 272 532 307 q 561 190 561 236 q 488 46 561 104 q 306 -12 415 -12 q 42 161 117 -12 l 128 210 q 306 83 179 83 q 416 111 367 83 q 465 190 465 139 m 208 839 l 321 1071 l 396 1028 l 254 811 l 208 839 z "},"Ŝ":{"ha":692,"x_min":42,"x_max":650,"o":"m 551 260 q 535 333 551 303 q 485 382 519 363 q 422 411 450 401 q 342 433 393 421 q 259 454 289 446 q 186 483 229 463 q 121 529 143 504 q 81 597 99 554 q 64 697 64 640 q 140 894 64 817 q 338 971 215 971 q 506 916 433 971 q 619 767 578 861 l 532 718 q 449 832 500 792 q 338 872 399 872 q 215 826 268 872 q 163 697 163 779 q 178 624 163 654 q 229 575 194 594 q 292 546 264 556 q 372 524 321 536 q 455 503 425 511 q 528 474 485 494 q 593 428 571 453 q 633 360 615 403 q 650 260 650 317 q 557 61 650 136 q 338 -14 464 -14 q 42 190 132 -14 l 129 239 q 338 85 196 85 q 484 128 417 85 q 551 260 551 172 m 308 1283 l 383 1283 l 472 1069 l 415 1049 l 346 1201 l 276 1049 l 219 1069 l 308 1283 z "},"ŝ":{"ha":603,"x_min":42,"x_max":561,"o":"m 465 190 q 453 242 465 221 q 412 278 440 264 q 361 299 383 292 q 297 315 339 306 q 228 332 253 325 q 167 356 204 339 q 112 394 131 374 q 78 449 93 414 q 64 531 64 485 q 132 671 64 608 q 306 733 200 733 q 461 686 394 733 q 557 558 528 639 l 471 510 q 406 604 451 571 q 306 638 360 638 q 205 606 250 638 q 160 531 160 575 q 172 478 160 500 q 213 443 185 457 q 264 422 242 429 q 328 406 286 415 q 397 389 372 396 q 458 365 421 382 q 513 327 494 347 q 547 272 532 307 q 561 190 561 236 q 488 46 561 104 q 306 -12 415 -12 q 42 161 117 -12 l 128 210 q 306 83 179 83 q 416 111 367 83 q 465 190 465 139 m 264 1046 l 339 1046 l 428 832 l 371 811 l 301 964 l 232 811 l 175 832 l 264 1046 z "},"Ş":{"ha":692,"x_min":42,"x_max":650,"o":"m 306 -168 l 317 -12 q 42 190 126 -3 l 129 239 q 338 85 196 85 q 484 128 417 85 q 551 260 551 172 q 535 333 551 303 q 485 382 519 363 q 422 411 450 401 q 342 433 393 421 q 259 454 289 446 q 186 483 229 463 q 121 529 143 504 q 81 597 99 554 q 64 697 64 640 q 140 894 64 817 q 338 971 215 971 q 506 916 433 971 q 619 767 578 861 l 532 718 q 449 832 500 792 q 338 872 399 872 q 215 826 268 872 q 163 697 163 779 q 178 624 163 654 q 229 575 194 594 q 292 546 264 556 q 372 524 321 536 q 455 503 425 511 q 528 474 485 494 q 593 428 571 453 q 633 360 615 403 q 650 260 650 317 q 574 76 650 149 q 386 -11 497 3 l 379 -99 l 403 -99 q 506 -129 471 -99 q 542 -210 542 -160 q 506 -290 542 -260 q 403 -321 471 -321 l 292 -321 l 292 -251 l 389 -251 q 474 -210 474 -251 q 389 -168 474 -168 l 306 -168 z "},"ş":{"ha":603,"x_min":42,"x_max":561,"o":"m 250 -168 l 261 -10 q 42 161 107 8 l 128 210 q 306 83 179 83 q 416 111 367 83 q 465 190 465 139 q 453 242 465 221 q 412 278 440 264 q 361 299 383 292 q 297 315 339 306 q 228 332 253 325 q 167 356 204 339 q 112 394 131 374 q 78 449 93 414 q 64 531 64 485 q 132 671 64 608 q 306 733 200 733 q 461 686 394 733 q 557 558 528 639 l 471 510 q 406 604 451 571 q 306 638 360 638 q 205 606 250 638 q 160 531 160 575 q 172 478 160 500 q 213 443 185 457 q 264 422 242 429 q 328 406 286 415 q 397 389 372 396 q 458 365 421 382 q 513 327 494 347 q 547 272 532 307 q 561 190 561 236 q 497 52 561 108 q 331 -11 432 -4 l 324 -99 l 347 -99 q 451 -129 415 -99 q 486 -210 486 -160 q 451 -290 486 -260 q 347 -321 415 -321 l 236 -321 l 236 -251 l 333 -251 q 418 -210 418 -251 q 333 -168 418 -168 l 250 -168 z "},"Š":{"ha":692,"x_min":42,"x_max":650,"o":"m 551 260 q 535 333 551 303 q 485 382 519 363 q 422 411 450 401 q 342 433 393 421 q 259 454 289 446 q 186 483 229 463 q 121 529 143 504 q 81 597 99 554 q 64 697 64 640 q 140 894 64 817 q 338 971 215 971 q 506 916 433 971 q 619 767 578 861 l 532 718 q 449 832 500 792 q 338 872 399 872 q 215 826 268 872 q 163 697 163 779 q 178 624 163 654 q 229 575 194 594 q 292 546 264 556 q 372 524 321 536 q 455 503 425 511 q 528 474 485 494 q 593 428 571 453 q 633 360 615 403 q 650 260 650 317 q 557 61 650 136 q 338 -14 464 -14 q 42 190 132 -14 l 129 239 q 338 85 196 85 q 484 128 417 85 q 551 260 551 172 m 383 1049 l 308 1049 l 219 1263 l 276 1283 l 346 1131 l 415 1283 l 472 1263 l 383 1049 z "},"š":{"ha":603,"x_min":42,"x_max":561,"o":"m 465 190 q 453 242 465 221 q 412 278 440 264 q 361 299 383 292 q 297 315 339 306 q 228 332 253 325 q 167 356 204 339 q 112 394 131 374 q 78 449 93 414 q 64 531 64 485 q 132 671 64 608 q 306 733 200 733 q 461 686 394 733 q 557 558 528 639 l 471 510 q 406 604 451 571 q 306 638 360 638 q 205 606 250 638 q 160 531 160 575 q 172 478 160 500 q 213 443 185 457 q 264 422 242 429 q 328 406 286 415 q 397 389 372 396 q 458 365 421 382 q 513 327 494 347 q 547 272 532 307 q 561 190 561 236 q 488 46 561 104 q 306 -12 415 -12 q 42 161 117 -12 l 128 210 q 306 83 179 83 q 416 111 367 83 q 465 190 465 139 m 339 811 l 264 811 l 175 1025 l 232 1046 l 301 893 l 371 1046 l 428 1025 l 339 811 z "},"Ţ":{"ha":667,"x_min":28,"x_max":639,"o":"m 28 860 l 28 957 l 639 957 l 639 860 l 382 860 l 382 0 l 285 0 l 285 860 l 28 860 m 292 -96 q 306 -62 292 -76 q 340 -47 321 -47 q 374 -62 360 -47 q 389 -96 389 -76 q 385 -115 389 -107 l 326 -250 l 288 -242 l 292 -96 z "},"ţ":{"ha":528,"x_min":28,"x_max":500,"o":"m 222 -96 q 237 -62 222 -76 q 271 -47 251 -47 q 305 -62 290 -47 q 319 -96 319 -76 q 315 -115 319 -107 l 257 -250 l 218 -242 l 222 -96 m 28 622 l 28 719 l 215 719 l 215 957 l 313 957 l 313 719 l 500 719 l 500 622 l 313 622 l 313 0 l 215 0 l 215 622 l 28 622 z "},"Ť":{"ha":667,"x_min":28,"x_max":639,"o":"m 28 860 l 28 957 l 639 957 l 639 860 l 382 860 l 382 0 l 285 0 l 285 860 l 28 860 m 371 1049 l 296 1049 l 207 1263 l 264 1283 l 333 1131 l 403 1283 l 460 1263 l 371 1049 z "},"ť":{"ha":571,"x_min":28,"x_max":557,"o":"m 460 969 q 474 1003 460 989 q 508 1018 489 1018 q 542 1003 528 1018 q 557 969 557 989 q 553 950 557 958 l 494 815 l 456 824 l 460 969 m 28 719 l 28 622 l 215 622 l 215 0 l 313 0 l 313 622 l 500 622 l 500 719 l 313 719 l 313 957 l 215 957 l 215 719 l 28 719 z "},"Ŧ":{"ha":667,"x_min":28,"x_max":639,"o":"m 28 860 l 28 957 l 639 957 l 639 860 l 382 860 l 382 775 l 597 775 l 597 678 l 382 678 l 382 0 l 285 0 l 285 678 l 69 678 l 69 775 l 285 775 l 285 860 l 28 860 z "},"ŧ":{"ha":528,"x_min":28,"x_max":500,"o":"m 28 417 l 28 514 l 215 514 l 215 622 l 28 622 l 28 719 l 215 719 l 215 957 l 313 957 l 313 719 l 500 719 l 500 622 l 313 622 l 313 514 l 500 514 l 500 417 l 313 417 l 313 0 l 215 0 l 215 417 l 28 417 z "},"Ũ":{"ha":886,"x_min":69,"x_max":817,"o":"m 719 519 l 719 957 l 817 957 l 817 478 q 794 290 817 376 q 728 135 772 204 q 612 26 685 65 q 444 -14 539 -14 q 165 126 260 -14 q 69 478 69 267 l 69 957 l 167 957 l 167 519 q 237 199 167 317 q 444 82 307 82 q 650 199 581 82 q 719 519 719 317 m 458 1094 q 363 1072 404 1061 q 289 1142 322 1083 l 336 1169 q 381 1139 365 1139 q 431 1161 396 1139 q 526 1185 488 1196 q 597 1114 564 1175 l 551 1088 q 521 1115 533 1110 q 499 1116 508 1119 q 458 1094 490 1113 z "},"ũ":{"ha":733,"x_min":56,"x_max":664,"o":"m 567 360 l 567 719 l 664 719 l 664 0 l 567 0 l 567 75 q 360 -14 486 -14 q 136 94 217 -14 q 56 360 56 203 l 56 719 l 153 719 l 153 360 q 213 165 153 246 q 360 83 274 83 q 506 165 446 83 q 567 360 567 246 m 375 857 q 280 835 321 824 q 206 904 239 846 l 253 932 q 297 901 282 901 q 347 924 313 901 q 442 948 404 958 q 514 876 481 938 l 468 850 q 438 877 450 872 q 416 878 425 882 q 375 857 407 875 z "},"Ū":{"ha":886,"x_min":69,"x_max":817,"o":"m 719 519 l 719 957 l 817 957 l 817 478 q 794 290 817 376 q 728 135 772 204 q 612 26 685 65 q 444 -14 539 -14 q 165 126 260 -14 q 69 478 69 267 l 69 957 l 167 957 l 167 519 q 237 199 167 317 q 444 82 307 82 q 650 199 581 82 q 719 519 719 317 m 290 1076 l 290 1146 l 594 1146 l 594 1076 l 290 1076 z "},"ū":{"ha":733,"x_min":56,"x_max":664,"o":"m 567 360 l 567 719 l 664 719 l 664 0 l 567 0 l 567 75 q 360 -14 486 -14 q 136 94 217 -14 q 56 360 56 203 l 56 719 l 153 719 l 153 360 q 213 165 153 246 q 360 83 274 83 q 506 165 446 83 q 567 360 567 246 m 208 839 l 208 908 l 513 908 l 513 839 l 208 839 z "},"Ŭ":{"ha":886,"x_min":69,"x_max":817,"o":"m 719 519 l 719 957 l 817 957 l 817 478 q 794 290 817 376 q 728 135 772 204 q 612 26 685 65 q 444 -14 539 -14 q 165 126 260 -14 q 69 478 69 267 l 69 957 l 167 957 l 167 519 q 237 199 167 317 q 444 82 307 82 q 650 199 581 82 q 719 519 719 317 m 332 1188 l 400 1188 q 443 1117 400 1117 q 486 1188 486 1117 l 554 1188 q 524 1084 554 1119 q 443 1049 493 1049 q 363 1084 393 1049 q 332 1188 332 1119 z "},"ŭ":{"ha":733,"x_min":56,"x_max":664,"o":"m 567 360 l 567 719 l 664 719 l 664 0 l 567 0 l 567 75 q 360 -14 486 -14 q 136 94 217 -14 q 56 360 56 203 l 56 719 l 153 719 l 153 360 q 213 165 153 246 q 360 83 274 83 q 506 165 446 83 q 567 360 567 246 m 249 950 l 317 950 q 360 879 317 879 q 403 950 403 879 l 471 950 q 440 847 471 882 q 360 811 410 811 q 279 847 310 811 q 249 950 249 882 z "},"Ů":{"ha":886,"x_min":69,"x_max":817,"o":"m 719 519 l 719 957 l 817 957 l 817 478 q 794 290 817 376 q 728 135 772 204 q 612 26 685 65 q 444 -14 539 -14 q 165 126 260 -14 q 69 478 69 267 l 69 957 l 167 957 l 167 519 q 237 199 167 317 q 444 82 307 82 q 650 199 581 82 q 719 519 719 317 m 363 1080 q 348 1095 363 1080 q 332 1160 332 1111 q 363 1240 332 1208 q 443 1271 394 1271 q 523 1240 492 1271 q 554 1160 554 1208 q 523 1080 554 1111 q 443 1049 492 1049 q 363 1080 394 1049 m 413 1190 q 406 1184 413 1190 q 400 1160 400 1178 q 413 1129 400 1142 q 443 1117 425 1117 q 474 1129 461 1117 q 486 1160 486 1142 q 474 1190 486 1178 q 443 1203 461 1203 q 413 1190 425 1203 z "},"ů":{"ha":733,"x_min":56,"x_max":664,"o":"m 567 360 l 567 719 l 664 719 l 664 0 l 567 0 l 567 75 q 360 -14 486 -14 q 136 94 217 -14 q 56 360 56 203 l 56 719 l 153 719 l 153 360 q 213 165 153 246 q 360 83 274 83 q 506 165 446 83 q 567 360 567 246 m 280 842 q 264 858 280 842 q 249 922 249 874 q 280 1002 249 971 q 360 1033 311 1033 q 440 1002 408 1033 q 471 922 471 971 q 440 842 471 874 q 360 811 408 811 q 280 842 311 811 m 329 953 q 323 947 329 953 q 317 922 317 940 q 329 892 317 904 q 360 879 342 879 q 390 892 378 879 q 403 922 403 904 q 390 953 403 940 q 360 965 378 965 q 329 953 342 965 z "},"Ű":{"ha":886,"x_min":69,"x_max":817,"o":"m 719 519 l 719 957 l 817 957 l 817 478 q 794 290 817 376 q 728 135 772 204 q 612 26 685 65 q 444 -14 539 -14 q 165 126 260 -14 q 69 478 69 267 l 69 957 l 167 957 l 167 519 q 237 199 167 317 q 444 82 307 82 q 650 199 581 82 q 719 519 719 317 m 317 1058 l 346 1313 l 429 1301 l 369 1049 l 317 1058 m 456 1058 l 485 1313 l 568 1301 l 508 1049 l 456 1058 z "},"ű":{"ha":733,"x_min":56,"x_max":664,"o":"m 567 360 l 567 719 l 664 719 l 664 0 l 567 0 l 567 75 q 360 -14 486 -14 q 136 94 217 -14 q 56 360 56 203 l 56 719 l 153 719 l 153 360 q 213 165 153 246 q 360 83 274 83 q 506 165 446 83 q 567 360 567 246 m 235 821 l 264 1075 l 347 1064 l 288 811 l 235 821 m 374 821 l 403 1075 l 486 1064 l 426 811 l 374 821 z "},"Ų":{"ha":886,"x_min":69,"x_max":817,"o":"m 542 -164 q 440 -177 489 -189 q 369 -122 390 -165 q 388 -10 344 -64 q 150 148 231 13 q 69 478 69 283 l 69 957 l 167 957 l 167 519 q 237 199 167 317 q 444 82 307 82 q 650 199 581 82 q 719 519 719 317 l 719 957 l 817 957 l 817 478 q 740 166 817 294 q 515 -8 664 38 q 432 -93 410 -40 q 526 -97 451 -132 l 551 -86 l 581 -147 l 542 -164 z "},"ų":{"ha":733,"x_min":56,"x_max":729,"o":"m 664 719 l 664 -28 l 567 -28 l 567 719 l 664 719 m 153 719 l 153 360 l 56 360 l 56 719 l 153 719 m 567 360 l 664 360 q 583 94 664 203 q 360 -14 503 -14 q 136 94 217 -14 q 56 360 56 203 l 153 360 q 213 165 153 246 q 360 83 274 83 q 506 165 446 83 q 567 360 567 246 m 729 -167 l 690 -183 q 587 -196 636 -207 q 518 -142 538 -185 q 521 -51 497 -97 q 599 18 544 -6 l 636 35 l 664 -28 l 639 -39 q 581 -112 561 -72 q 675 -117 597 -150 l 700 -106 l 729 -167 z "},"Ŵ":{"ha":1136,"x_min":28,"x_max":1108,"o":"m 849 0 l 568 808 l 288 0 l 185 0 l 28 957 l 126 957 l 251 193 l 517 957 l 619 957 l 885 193 l 1010 957 l 1108 957 l 951 0 l 849 0 m 531 1283 l 606 1283 l 694 1069 l 638 1049 l 568 1201 l 499 1049 l 442 1069 l 531 1283 z "},"ŵ":{"ha":1019,"x_min":28,"x_max":992,"o":"m 708 0 l 510 571 l 311 0 l 208 0 l 28 719 l 128 719 l 267 167 l 458 719 l 561 719 l 753 167 l 892 719 l 992 719 l 811 0 l 708 0 m 472 1046 l 547 1046 l 636 832 l 579 811 l 510 964 l 440 811 l 383 832 l 472 1046 z "},"Ŷ":{"ha":650,"x_min":28,"x_max":622,"o":"m 275 0 l 275 385 l 28 957 l 133 957 l 325 511 l 517 957 l 622 957 l 372 378 l 372 0 l 275 0 m 288 1283 l 363 1283 l 451 1069 l 394 1049 l 325 1201 l 256 1049 l 199 1069 l 288 1283 z "},"ŷ":{"ha":690,"x_min":28,"x_max":663,"o":"m 663 719 l 300 -268 l 196 -268 l 293 -3 l 28 719 l 131 719 l 344 136 l 558 719 l 663 719 m 307 1046 l 382 1046 l 471 832 l 414 811 l 344 964 l 275 811 l 218 832 l 307 1046 z "},"Ÿ":{"ha":650,"x_min":28,"x_max":622,"o":"m 275 0 l 275 385 l 28 957 l 133 957 l 325 511 l 517 957 l 622 957 l 372 378 l 372 0 l 275 0 m 217 1077 q 210 1084 217 1077 q 203 1111 203 1092 q 217 1145 203 1131 q 251 1160 232 1160 q 285 1145 271 1160 q 300 1111 300 1131 q 285 1077 300 1092 q 251 1063 271 1063 q 217 1077 232 1063 m 363 1077 q 356 1084 363 1077 q 349 1111 349 1092 q 363 1145 349 1131 q 397 1160 378 1160 q 431 1145 417 1160 q 446 1111 446 1131 q 431 1077 446 1092 q 397 1063 417 1063 q 363 1077 378 1063 z "},"Ź":{"ha":667,"x_min":28,"x_max":639,"o":"m 28 860 l 28 957 l 639 957 l 639 860 l 143 97 l 639 97 l 639 0 l 28 0 l 28 97 l 524 860 l 28 860 m 239 1076 l 351 1308 l 426 1265 l 285 1049 l 239 1076 z "},"ź":{"ha":568,"x_min":42,"x_max":526,"o":"m 42 622 l 42 719 l 526 719 l 526 622 l 160 97 l 526 97 l 526 0 l 42 0 l 42 97 l 408 622 l 42 622 m 190 839 l 303 1071 l 378 1028 l 236 811 l 190 839 z "},"Ż":{"ha":667,"x_min":28,"x_max":639,"o":"m 28 860 l 28 957 l 639 957 l 639 860 l 143 97 l 639 97 l 639 0 l 28 0 l 28 97 l 524 860 l 28 860 m 299 1077 q 292 1084 299 1077 q 285 1111 285 1092 q 299 1145 285 1131 q 333 1160 314 1160 q 367 1145 353 1160 q 382 1111 382 1131 q 367 1077 382 1092 q 333 1063 353 1063 q 299 1077 314 1063 z "},"ż":{"ha":568,"x_min":42,"x_max":526,"o":"m 42 622 l 42 719 l 526 719 l 526 622 l 160 97 l 526 97 l 526 0 l 42 0 l 42 97 l 408 622 l 42 622 m 249 840 q 242 847 249 840 q 235 874 235 854 q 249 908 235 893 q 283 922 264 922 q 317 908 303 922 q 332 874 332 893 q 317 840 332 854 q 283 825 303 825 q 249 840 264 825 z "},"Ž":{"ha":667,"x_min":28,"x_max":639,"o":"m 28 860 l 28 957 l 639 957 l 639 860 l 143 97 l 639 97 l 639 0 l 28 0 l 28 97 l 524 860 l 28 860 m 371 1049 l 296 1049 l 207 1263 l 264 1283 l 333 1131 l 403 1283 l 460 1263 l 371 1049 z "},"ž":{"ha":568,"x_min":42,"x_max":526,"o":"m 42 622 l 42 719 l 526 719 l 526 622 l 160 97 l 526 97 l 526 0 l 42 0 l 42 97 l 408 622 l 42 622 m 321 811 l 246 811 l 157 1025 l 214 1046 l 283 893 l 353 1046 l 410 1025 l 321 811 z "},"ƒ":{"ha":553,"x_min":42,"x_max":511,"o":"m 325 583 l 325 556 l 511 556 l 511 458 l 325 458 l 325 332 q 251 90 325 179 q 42 0 178 0 l 42 97 q 183 162 139 97 q 228 374 228 226 l 228 458 l 42 458 l 42 556 l 228 556 l 228 625 q 301 867 228 778 q 511 957 375 957 l 511 860 q 369 795 414 860 q 325 583 325 731 z "},"Ơ":{"ha":922,"x_min":42,"x_max":894,"o":"m 42 478 q 149 828 42 686 q 444 971 257 971 q 729 839 619 971 l 767 839 q 799 894 799 839 l 799 957 l 893 957 l 893 894 q 868 792 894 833 q 789 743 842 751 q 844 478 844 624 q 738 128 844 271 q 444 -14 632 -14 q 149 128 257 -14 q 42 478 42 271 m 139 478 q 228 198 139 314 q 443 82 317 82 q 659 198 569 82 q 749 478 749 314 q 659 758 749 642 q 443 875 569 875 q 228 759 317 875 q 139 478 139 643 z "},"ơ":{"ha":769,"x_min":42,"x_max":742,"o":"m 122 94 q 82 149 122 94 q 42 360 42 203 q 122 625 42 517 q 346 733 203 733 q 586 601 500 733 l 614 601 q 646 657 646 601 l 646 719 l 740 719 l 740 657 q 710 554 742 596 q 629 506 679 513 q 650 360 650 436 q 569 94 650 203 q 346 -14 489 -14 q 122 94 203 -14 m 199 555 q 169 514 199 555 q 139 360 139 474 q 199 165 139 246 q 346 83 260 83 q 492 165 432 83 q 553 360 553 246 q 492 555 553 474 q 346 636 432 636 q 199 555 260 636 z "},"Ư":{"ha":999,"x_min":69,"x_max":971,"o":"m 719 519 l 719 957 l 817 957 l 817 839 l 843 839 q 875 894 875 839 l 875 957 l 969 957 l 969 894 q 939 784 971 826 q 843 742 907 742 l 817 742 l 817 478 q 794 290 817 376 q 728 135 772 204 q 612 26 685 65 q 444 -14 539 -14 q 165 126 260 -14 q 69 478 69 267 l 69 957 l 167 957 l 167 519 q 237 199 167 317 q 444 82 307 82 q 650 199 581 82 q 719 519 719 317 z "},"ư":{"ha":846,"x_min":56,"x_max":818,"o":"m 567 360 l 567 719 l 664 719 l 664 601 l 690 601 q 722 657 722 601 l 722 719 l 817 719 l 817 657 q 786 547 818 589 q 690 504 754 504 l 664 504 l 664 0 l 567 0 l 567 75 q 360 -14 486 -14 q 136 94 217 -14 q 56 360 56 203 l 56 719 l 153 719 l 153 360 q 213 165 153 246 q 360 83 274 83 q 506 165 446 83 q 567 360 567 246 z "},"Ǽ":{"ha":981,"x_min":28,"x_max":925,"o":"m 386 0 l 386 360 l 264 360 l 132 0 l 28 0 l 379 957 l 925 957 l 925 860 l 483 860 l 483 457 l 925 457 l 925 360 l 483 360 l 483 97 l 925 97 l 925 0 l 386 0 m 299 457 l 386 457 l 386 693 l 299 457 m 404 1076 l 517 1308 l 592 1265 l 450 1049 l 404 1076 z "},"ǽ":{"ha":1244,"x_min":42,"x_max":1203,"o":"m 650 719 l 650 586 q 899 733 735 733 q 1122 625 1042 733 q 1203 360 1203 517 l 692 360 q 755 161 692 239 q 899 83 818 83 q 996 116 946 83 q 1076 217 1046 149 l 1164 167 q 1059 35 1126 83 q 899 -14 992 -14 q 650 132 733 -14 l 650 0 l 553 0 l 553 75 q 346 -14 472 -14 q 122 94 203 -14 q 42 360 42 203 q 122 625 42 517 q 346 733 203 733 q 553 644 471 733 l 553 719 l 650 719 m 199 555 q 169 514 199 555 q 139 360 139 474 q 199 165 139 246 q 346 83 260 83 q 492 165 432 83 q 553 360 553 246 q 492 555 553 474 q 346 636 432 636 q 199 555 260 636 m 1017 586 q 990 611 1017 586 q 899 636 964 636 q 780 586 833 636 q 704 457 726 536 l 1092 457 q 1017 586 1069 536 m 528 839 l 640 1071 l 715 1028 l 574 811 l 528 839 z "},"Ǿ":{"ha":886,"x_min":42,"x_max":844,"o":"m 349 1076 l 461 1308 l 536 1265 l 394 1049 l 349 1076 m 42 478 q 149 828 42 686 q 444 971 257 971 q 499 967 472 971 l 511 1026 l 611 1026 l 593 942 q 778 765 713 890 q 844 478 844 639 q 738 128 844 271 q 444 -14 632 -14 q 388 -10 414 -14 l 375 -69 l 275 -69 l 293 15 q 108 193 174 67 q 42 478 42 319 m 749 478 q 699 693 749 596 q 571 838 650 790 l 407 85 q 443 82 432 82 q 659 198 569 82 q 749 478 749 314 m 139 478 q 188 262 139 358 q 315 118 236 165 l 478 872 q 443 875 456 875 q 228 759 317 875 q 139 478 139 643 z "},"ǿ":{"ha":692,"x_min":42,"x_max":650,"o":"m 42 360 q 122 625 42 517 q 346 733 203 733 q 388 731 360 733 l 401 789 l 501 789 l 479 701 q 606 566 561 658 q 650 360 650 474 q 569 94 650 203 q 346 -14 489 -14 q 307 -11 332 -14 l 293 -69 l 193 -69 l 214 17 q 86 152 131 60 q 42 360 42 244 m 139 360 q 239 122 139 204 l 364 635 q 346 636 357 636 q 199 555 260 636 q 139 360 139 474 m 553 360 q 526 495 553 433 q 454 594 499 557 l 329 83 l 346 83 q 492 165 432 83 q 553 360 553 246 m 253 839 l 365 1071 l 440 1028 l 299 811 l 253 839 z "},"Ș":{"ha":692,"x_min":42,"x_max":650,"o":"m 551 260 q 535 333 551 303 q 485 382 519 363 q 422 411 450 401 q 342 433 393 421 q 259 454 289 446 q 186 483 229 463 q 121 529 143 504 q 81 597 99 554 q 64 697 64 640 q 140 894 64 817 q 338 971 215 971 q 506 916 433 971 q 619 767 578 861 l 532 718 q 449 832 500 792 q 338 872 399 872 q 215 826 268 872 q 163 697 163 779 q 178 624 163 654 q 229 575 194 594 q 292 546 264 556 q 372 524 321 536 q 455 503 425 511 q 528 474 485 494 q 593 428 571 453 q 633 360 615 403 q 650 260 650 317 q 557 61 650 136 q 338 -14 464 -14 q 42 190 132 -14 l 129 239 q 338 85 196 85 q 484 128 417 85 q 551 260 551 172 m 314 -110 q 328 -76 314 -90 q 363 -61 343 -61 q 397 -76 382 -61 q 411 -110 411 -90 q 407 -129 411 -121 l 349 -264 l 310 -256 l 314 -110 z "},"ș":{"ha":603,"x_min":42,"x_max":561,"o":"m 465 190 q 453 242 465 221 q 412 278 440 264 q 361 299 383 292 q 297 315 339 306 q 228 332 253 325 q 167 356 204 339 q 112 394 131 374 q 78 449 93 414 q 64 531 64 485 q 132 671 64 608 q 306 733 200 733 q 461 686 394 733 q 557 558 528 639 l 471 510 q 406 604 451 571 q 306 638 360 638 q 205 606 250 638 q 160 531 160 575 q 172 478 160 500 q 213 443 185 457 q 264 422 242 429 q 328 406 286 415 q 397 389 372 396 q 458 365 421 382 q 513 327 494 347 q 547 272 532 307 q 561 190 561 236 q 488 46 561 104 q 306 -12 415 -12 q 42 161 117 -12 l 128 210 q 306 83 179 83 q 416 111 367 83 q 465 190 465 139 m 251 -96 q 266 -62 251 -76 q 300 -47 281 -47 q 334 -62 319 -47 q 349 -96 349 -76 q 344 -115 349 -107 l 286 -250 l 247 -242 l 251 -96 z "},"ȷ":{"ha":292,"x_min":-68,"x_max":194,"o":"m 97 50 l 97 719 l 194 719 l 194 50 q 130 -194 194 -106 q -68 -282 65 -282 l -68 -185 q 56 -133 14 -185 q 97 50 97 -81 z "},"ˆ":{"ha":281,"x_min":14,"x_max":267,"o":"m 103 1046 l 178 1046 l 267 832 l 210 811 l 140 964 l 71 811 l 14 832 l 103 1046 z "},"ˇ":{"ha":281,"x_min":14,"x_max":267,"o":"m 178 811 l 103 811 l 14 1025 l 71 1046 l 140 893 l 210 1046 l 267 1025 l 178 811 z "},"˘":{"ha":250,"x_min":14,"x_max":236,"o":"m 14 950 l 82 950 q 125 879 82 879 q 168 950 168 879 l 236 950 q 206 847 236 882 q 125 811 175 811 q 44 847 75 811 q 14 950 14 882 z "},"˙":{"ha":125,"x_min":14,"x_max":111,"o":"m 28 840 q 21 847 28 840 q 14 874 14 854 q 28 908 14 893 q 63 922 43 922 q 97 908 82 922 q 111 874 111 893 q 97 840 111 854 q 63 825 82 825 q 28 840 43 825 z "},"˚":{"ha":250,"x_min":14,"x_max":236,"o":"m 45 842 q 30 858 45 842 q 14 922 14 874 q 45 1002 14 971 q 125 1033 76 1033 q 205 1002 174 1033 q 236 922 236 971 q 205 842 236 874 q 125 811 174 811 q 45 842 76 811 m 94 953 q 88 947 94 953 q 82 922 82 940 q 94 892 82 904 q 125 879 107 879 q 156 892 143 879 q 168 922 168 904 q 156 953 168 940 q 125 965 143 965 q 94 953 107 965 z "},"˛":{"ha":249,"x_min":3,"x_max":235,"o":"m 235 -139 l 196 -156 q 92 -168 142 -179 q 24 -114 43 -157 q 26 -24 3 -69 q 104 46 50 22 l 142 63 l 169 0 l 144 -11 q 86 -85 67 -44 q 181 -89 103 -122 l 206 -78 l 235 -139 z "},"˜":{"ha":336,"x_min":14,"x_max":322,"o":"m 183 857 q 88 835 129 824 q 14 904 47 846 l 61 932 q 106 901 90 901 q 156 924 121 901 q 251 948 213 958 q 322 876 289 938 l 276 850 q 246 877 258 872 q 224 878 233 882 q 183 857 215 875 z "},"˝":{"ha":279,"x_min":14,"x_max":265,"o":"m 14 821 l 43 1075 l 126 1064 l 67 811 l 14 821 m 153 821 l 182 1075 l 265 1064 l 206 811 l 153 821 z "},"̀":{"ha":215,"x_min":14,"x_max":201,"o":"m 89 1071 l 201 839 l 156 811 l 14 1028 l 89 1071 z "},"́":{"ha":215,"x_min":14,"x_max":201,"o":"m 14 839 l 126 1071 l 201 1028 l 60 811 l 14 839 z "},"̃":{"ha":336,"x_min":14,"x_max":322,"o":"m 183 857 q 88 835 129 824 q 14 904 47 846 l 61 932 q 106 901 90 901 q 156 924 121 901 q 251 948 213 958 q 322 876 289 938 l 276 850 q 246 877 258 872 q 224 878 233 882 q 183 857 215 875 z "},"̉":{"ha":222,"x_min":42,"x_max":181,"o":"m 49 817 l 42 939 q 113 981 113 939 q 42 1022 113 1022 l 42 1092 q 145 1061 110 1092 q 181 981 181 1031 q 156 908 181 936 q 107 875 131 881 l 104 817 l 49 817 z "},"̣":{"ha":125,"x_min":14,"x_max":111,"o":"m 28 -137 q 21 -130 28 -137 q 14 -103 14 -122 q 28 -69 14 -83 q 63 -54 43 -54 q 97 -69 82 -54 q 111 -103 111 -83 q 97 -137 111 -122 q 63 -151 82 -151 q 28 -137 43 -151 z "},"Ѐ":{"ha":667,"x_min":69,"x_max":611,"o":"m 69 0 l 69 957 l 611 957 l 611 860 l 167 860 l 167 457 l 611 457 l 611 360 l 167 360 l 167 97 l 611 97 l 611 0 l 69 0 m 314 1308 l 426 1076 l 381 1049 l 239 1265 l 314 1308 z "},"Ё":{"ha":667,"x_min":69,"x_max":611,"o":"m 69 0 l 69 957 l 611 957 l 611 860 l 167 860 l 167 457 l 611 457 l 611 360 l 167 360 l 167 97 l 611 97 l 611 0 l 69 0 m 226 1077 q 218 1084 226 1077 q 211 1111 211 1092 q 226 1145 211 1131 q 260 1160 240 1160 q 294 1145 279 1160 q 308 1111 308 1131 q 294 1077 308 1092 q 260 1063 279 1063 q 226 1077 240 1063 m 372 1077 q 364 1084 372 1077 q 357 1111 357 1092 q 372 1145 357 1131 q 406 1160 386 1160 q 440 1145 425 1160 q 454 1111 454 1131 q 440 1077 454 1092 q 406 1063 425 1063 q 372 1077 386 1063 z "},"Ђ":{"ha":872,"x_min":28,"x_max":831,"o":"m 28 860 l 28 957 l 639 957 l 639 860 l 382 860 l 382 651 q 558 731 453 731 q 758 626 686 731 q 831 365 831 522 q 753 103 831 207 q 536 0 675 0 l 536 99 q 678 169 622 99 q 733 365 733 239 q 684 563 733 492 q 558 633 635 633 q 433 560 483 633 q 382 357 383 488 l 382 0 l 285 0 l 285 343 l 285 358 l 285 860 l 28 860 z "},"Ѓ":{"ha":639,"x_min":69,"x_max":611,"o":"m 69 0 l 69 957 l 611 957 l 611 860 l 167 860 l 167 0 l 69 0 m 225 1076 l 338 1308 l 413 1265 l 271 1049 l 225 1076 z "},"Є":{"ha":724,"x_min":42,"x_max":682,"o":"m 604 199 l 682 135 q 408 -14 571 -14 q 140 129 239 -14 q 42 478 42 272 q 83 723 42 613 q 210 902 125 833 q 408 971 294 971 q 682 822 571 971 l 604 760 q 408 874 517 874 q 216 764 292 874 q 140 478 140 654 l 140 457 l 636 457 l 636 360 l 150 360 q 244 158 174 233 q 408 83 314 83 q 604 199 515 83 z "},"Ѕ":{"ha":692,"x_min":42,"x_max":650,"o":"m 551 260 q 535 333 551 303 q 485 382 519 363 q 422 411 450 401 q 342 433 393 421 q 259 454 289 446 q 186 483 229 463 q 121 529 143 504 q 81 597 99 554 q 64 697 64 640 q 140 894 64 817 q 338 971 215 971 q 506 916 433 971 q 619 767 578 861 l 532 718 q 449 832 500 792 q 338 872 399 872 q 215 826 268 872 q 163 697 163 779 q 178 624 163 654 q 229 575 194 594 q 292 546 264 556 q 372 524 321 536 q 455 503 425 511 q 528 474 485 494 q 593 428 571 453 q 633 360 615 403 q 650 260 650 317 q 557 61 650 136 q 338 -14 464 -14 q 42 190 132 -14 l 129 239 q 338 85 196 85 q 484 128 417 85 q 551 260 551 172 z "},"І":{"ha":556,"x_min":42,"x_max":514,"o":"m 42 860 l 42 957 l 514 957 l 514 860 l 326 860 l 326 97 l 514 97 l 514 0 l 42 0 l 42 97 l 229 97 l 229 860 l 42 860 z "},"Ї":{"ha":556,"x_min":42,"x_max":514,"o":"m 172 1077 q 164 1084 172 1077 q 157 1111 157 1092 q 172 1145 157 1131 q 206 1160 186 1160 q 240 1145 225 1160 q 254 1111 254 1131 q 240 1077 254 1092 q 206 1063 225 1063 q 172 1077 186 1063 m 317 1077 q 310 1084 317 1077 q 303 1111 303 1092 q 317 1145 303 1131 q 351 1160 332 1160 q 385 1145 371 1160 q 400 1111 400 1131 q 385 1077 400 1092 q 351 1063 371 1063 q 317 1077 332 1063 m 42 860 l 42 957 l 514 957 l 514 860 l 326 860 l 326 97 l 514 97 l 514 0 l 42 0 l 42 97 l 229 97 l 229 860 l 42 860 z "},"Ј":{"ha":415,"x_min":42,"x_max":346,"o":"m 249 401 l 249 957 l 346 957 l 346 360 q 265 94 346 203 q 42 -14 185 -14 l 42 83 q 249 401 249 83 z "},"Љ":{"ha":996,"x_min":28,"x_max":954,"o":"m 469 0 l 469 860 l 263 860 l 263 290 q 208 62 263 138 q 28 -14 153 -14 l 28 83 q 133 131 100 83 q 165 318 165 178 l 165 957 l 567 957 l 567 525 l 622 525 q 864 456 774 525 q 954 261 954 388 q 865 68 954 136 q 622 0 775 0 l 469 0 m 581 428 l 567 428 l 567 97 l 581 97 q 793 135 729 97 q 857 261 857 174 q 792 388 857 349 q 581 428 728 428 z "},"Њ":{"ha":929,"x_min":83,"x_max":888,"o":"m 111 428 l 111 525 l 403 525 l 403 957 l 500 957 l 500 525 l 556 525 q 797 456 707 525 q 888 261 888 388 q 798 68 888 136 q 556 0 708 0 l 403 0 l 403 428 l 111 428 m 514 428 l 500 428 l 500 97 l 514 97 q 726 135 663 97 q 790 261 790 174 q 726 388 790 349 q 514 428 661 428 m 83 0 l 83 957 l 181 957 l 181 0 l 83 0 z "},"Ћ":{"ha":969,"x_min":28,"x_max":914,"o":"m 28 860 l 28 957 l 639 957 l 639 860 l 403 860 l 403 631 q 610 719 485 719 q 833 611 753 719 q 914 346 914 503 l 914 0 l 817 0 l 817 346 q 756 541 817 460 q 610 622 696 622 q 466 545 526 622 q 403 357 406 468 l 403 0 l 306 0 l 306 860 l 28 860 z "},"Ќ":{"ha":792,"x_min":69,"x_max":778,"o":"m 69 0 l 69 957 l 167 957 l 167 489 l 568 957 l 694 957 l 304 503 l 778 0 l 646 0 l 242 429 l 167 342 l 167 0 l 69 0 m 260 1076 l 372 1308 l 447 1265 l 306 1049 l 260 1076 z "},"Ѝ":{"ha":826,"x_min":69,"x_max":757,"o":"m 183 0 l 660 794 l 660 0 l 757 0 l 757 957 l 643 957 l 167 163 l 167 957 l 69 957 l 69 0 l 183 0 m 394 1308 l 507 1076 l 461 1049 l 319 1265 l 394 1308 z "},"Ў":{"ha":690,"x_min":28,"x_max":663,"o":"m 663 957 l 311 0 l 207 0 l 293 233 l 28 957 l 131 957 l 344 374 l 558 957 l 663 957 m 233 1188 l 301 1188 q 344 1117 301 1117 q 388 1188 388 1117 l 456 1188 q 425 1084 456 1119 q 344 1049 394 1049 q 264 1084 294 1049 q 233 1188 233 1119 z "},"Џ":{"ha":792,"x_min":69,"x_max":722,"o":"m 69 0 l 69 957 l 167 957 l 167 97 l 625 97 l 625 957 l 722 957 l 722 0 l 444 0 l 444 -139 l 347 -139 l 347 0 l 69 0 z "},"А":{"ha":863,"x_min":28,"x_max":835,"o":"m 483 957 l 835 0 l 731 0 l 611 322 l 250 322 l 132 0 l 28 0 l 379 957 l 483 957 m 431 815 l 285 419 l 576 419 l 431 815 z "},"Б":{"ha":638,"x_min":69,"x_max":596,"o":"m 69 0 l 69 957 l 526 957 l 526 860 l 167 860 l 167 525 l 264 525 q 506 456 415 525 q 596 261 596 388 q 506 68 596 136 q 264 0 417 0 l 69 0 m 222 428 l 167 428 l 167 97 l 222 97 q 435 135 371 97 q 499 261 499 174 q 434 388 499 349 q 222 428 369 428 z "},"В":{"ha":710,"x_min":69,"x_max":668,"o":"m 69 0 l 69 957 l 254 957 q 519 894 424 957 q 615 701 615 831 q 514 506 615 572 q 668 271 668 436 q 570 71 668 142 q 307 0 472 0 l 69 0 m 571 271 q 551 351 571 317 q 501 403 531 385 q 425 431 471 421 q 342 444 379 442 q 254 447 304 447 l 168 447 l 168 99 l 307 99 q 506 146 442 99 q 571 271 571 193 m 254 858 l 168 858 l 168 546 l 254 546 q 518 701 518 546 q 254 858 518 858 z "},"Г":{"ha":639,"x_min":69,"x_max":611,"o":"m 69 0 l 69 957 l 611 957 l 611 860 l 167 860 l 167 0 l 69 0 z "},"Д":{"ha":832,"x_min":28,"x_max":804,"o":"m 249 304 l 249 957 l 693 957 l 693 97 l 804 97 l 804 -139 l 707 -139 l 707 0 l 125 0 l 125 -139 l 28 -139 l 28 97 l 111 97 q 212 142 175 97 q 249 304 249 186 m 346 304 q 304 97 346 168 l 596 97 l 596 860 l 346 860 l 346 304 z "},"Е":{"ha":667,"x_min":69,"x_max":611,"o":"m 69 0 l 69 957 l 611 957 l 611 860 l 167 860 l 167 457 l 611 457 l 611 360 l 167 360 l 167 97 l 611 97 l 611 0 l 69 0 z "},"Ж":{"ha":1047,"x_min":14,"x_max":1033,"o":"m 133 957 l 440 526 l 475 526 l 475 957 l 572 957 l 572 526 l 607 526 l 914 957 l 1033 957 l 692 478 l 1033 0 l 914 0 l 607 429 l 572 429 l 572 0 l 475 0 l 475 429 l 440 429 l 133 0 l 14 0 l 356 478 l 14 957 l 133 957 z "},"З":{"ha":543,"x_min":28,"x_max":501,"o":"m 115 431 l 115 528 l 229 528 q 354 581 304 531 q 404 700 404 631 q 357 824 404 775 q 231 874 310 874 q 96 810 157 874 l 28 881 q 231 971 122 971 q 426 893 351 971 q 501 700 501 815 q 469 576 501 636 q 386 479 438 517 q 470 383 439 442 q 501 258 501 324 q 426 65 501 143 q 231 -14 351 -14 q 28 78 124 -14 l 96 149 q 231 85 157 85 q 357 134 310 85 q 404 258 404 183 q 354 378 404 328 q 229 431 304 428 l 115 431 z "},"И":{"ha":826,"x_min":69,"x_max":757,"o":"m 660 794 l 183 0 l 69 0 l 69 957 l 167 957 l 167 163 l 643 957 l 757 957 l 757 0 l 660 0 l 660 794 z "},"Й":{"ha":826,"x_min":69,"x_max":757,"o":"m 183 0 l 660 794 l 660 0 l 757 0 l 757 957 l 643 957 l 167 163 l 167 957 l 69 957 l 69 0 l 183 0 m 301 1188 l 369 1188 q 413 1117 369 1117 q 456 1188 456 1117 l 524 1188 q 493 1084 524 1119 q 413 1049 463 1049 q 332 1084 363 1049 q 301 1188 301 1119 z "},"К":{"ha":792,"x_min":69,"x_max":778,"o":"m 69 0 l 69 957 l 167 957 l 167 489 l 568 957 l 694 957 l 304 503 l 778 0 l 646 0 l 242 429 l 167 342 l 167 0 l 69 0 z "},"Л":{"ha":832,"x_min":28,"x_max":763,"o":"m 165 290 l 165 957 l 763 957 l 763 0 l 665 0 l 665 860 l 263 860 l 263 290 q 208 62 263 138 q 28 -14 153 -14 l 28 83 q 128 128 92 83 q 165 290 165 172 z "},"М":{"ha":972,"x_min":42,"x_max":931,"o":"m 42 0 l 111 957 l 214 957 l 486 151 l 758 957 l 861 957 l 931 0 l 832 0 l 781 719 l 538 0 l 435 0 l 192 719 l 140 0 l 42 0 z "},"Н":{"ha":806,"x_min":69,"x_max":736,"o":"m 639 0 l 639 360 l 167 360 l 167 0 l 69 0 l 69 957 l 167 957 l 167 457 l 639 457 l 639 957 l 736 957 l 736 0 l 639 0 z "},"О":{"ha":886,"x_min":42,"x_max":844,"o":"m 42 478 q 149 828 42 686 q 444 971 257 971 q 738 828 632 971 q 844 478 844 686 q 738 128 844 271 q 444 -14 632 -14 q 149 128 257 -14 q 42 478 42 271 m 139 478 q 228 198 139 314 q 443 82 317 82 q 659 198 569 82 q 749 478 749 314 q 659 758 749 642 q 443 875 569 875 q 228 759 317 875 q 139 478 139 643 z "},"П":{"ha":806,"x_min":69,"x_max":736,"o":"m 69 0 l 69 957 l 736 957 l 736 0 l 639 0 l 639 860 l 167 860 l 167 0 l 69 0 z "},"Р":{"ha":678,"x_min":69,"x_max":636,"o":"m 276 360 l 167 360 l 167 0 l 69 0 l 69 957 l 276 957 q 540 874 443 957 q 636 660 636 790 q 540 444 636 528 q 276 360 443 360 m 235 860 l 167 860 l 167 457 l 235 457 q 539 660 539 457 q 235 860 539 860 z "},"С":{"ha":853,"x_min":42,"x_max":811,"o":"m 449 874 q 226 765 313 874 q 140 478 140 656 q 226 192 140 301 q 449 83 313 83 q 610 139 538 83 q 726 294 682 194 l 811 244 q 666 56 757 125 q 449 -14 575 -14 q 227 56 321 -14 q 88 235 133 125 q 42 478 42 344 q 150 828 42 686 q 449 971 258 971 q 666 901 575 971 q 811 713 757 832 l 726 663 q 610 818 682 763 q 449 874 538 874 z "},"Т":{"ha":667,"x_min":28,"x_max":639,"o":"m 28 860 l 28 957 l 639 957 l 639 860 l 382 860 l 382 0 l 285 0 l 285 860 l 28 860 z "},"У":{"ha":690,"x_min":28,"x_max":663,"o":"m 663 957 l 311 0 l 207 0 l 293 233 l 28 957 l 131 957 l 344 374 l 558 957 l 663 957 z "},"Ф":{"ha":692,"x_min":42,"x_max":650,"o":"m 109 224 q 75 276 109 224 q 42 471 42 328 q 109 717 42 614 q 297 840 176 821 l 297 957 l 394 957 l 394 840 q 583 717 515 821 q 650 471 650 614 q 583 224 650 328 q 394 100 515 119 l 394 0 l 297 0 l 297 100 q 109 224 176 119 m 508 299 q 530 336 508 299 q 553 471 553 374 q 508 642 553 568 q 394 739 463 717 l 394 201 q 508 299 463 224 m 183 642 q 161 605 183 642 q 139 471 139 568 q 183 299 139 374 q 297 201 228 224 l 297 739 q 183 642 228 717 z "},"Х":{"ha":739,"x_min":28,"x_max":711,"o":"m 597 0 l 369 382 l 142 0 l 28 0 l 313 478 l 28 957 l 142 957 l 369 574 l 597 957 l 711 957 l 426 478 l 711 0 l 597 0 z "},"Ц":{"ha":847,"x_min":69,"x_max":819,"o":"m 69 0 l 69 957 l 167 957 l 167 97 l 625 97 l 625 957 l 722 957 l 722 97 l 819 97 l 819 -139 l 722 -139 l 722 0 l 69 0 z "},"Ч":{"ha":733,"x_min":56,"x_max":664,"o":"m 153 957 l 153 597 q 213 402 153 483 q 360 321 274 321 q 503 398 443 321 q 567 586 564 475 l 567 957 l 664 957 l 664 0 l 567 0 l 567 311 q 360 224 486 224 q 136 332 217 224 q 56 597 56 440 l 56 957 l 153 957 z "},"Ш":{"ha":903,"x_min":69,"x_max":833,"o":"m 69 0 l 69 957 l 167 957 l 167 97 l 403 97 l 403 957 l 500 957 l 500 97 l 736 97 l 736 957 l 833 957 l 833 0 l 69 0 z "},"Щ":{"ha":958,"x_min":69,"x_max":931,"o":"m 69 0 l 69 957 l 167 957 l 167 97 l 403 97 l 403 957 l 500 957 l 500 97 l 736 97 l 736 957 l 833 957 l 833 97 l 931 97 l 931 -139 l 833 -139 l 833 0 l 69 0 z "},"Ъ":{"ha":693,"x_min":28,"x_max":651,"o":"m 28 860 l 28 957 l 125 957 l 222 957 l 222 525 l 319 525 q 561 456 471 525 q 651 261 651 388 q 562 68 651 136 q 319 0 472 0 l 125 0 l 125 860 l 28 860 m 278 428 l 222 428 l 222 97 l 278 97 q 490 135 426 97 q 554 261 554 174 q 490 388 554 349 q 278 428 425 428 z "},"Ы":{"ha":860,"x_min":69,"x_max":776,"o":"m 69 0 l 69 957 l 167 957 l 167 525 l 222 525 q 464 456 374 525 q 554 261 554 388 q 465 68 554 136 q 222 0 375 0 l 69 0 m 679 0 l 679 957 l 776 957 l 776 0 l 679 0 m 181 428 l 167 428 l 167 97 l 181 97 q 393 135 329 97 q 457 261 457 174 q 392 388 457 349 q 181 428 328 428 z "},"Ь":{"ha":596,"x_min":69,"x_max":554,"o":"m 69 0 l 69 957 l 167 957 l 167 525 l 222 525 q 464 456 374 525 q 554 261 554 388 q 465 68 554 136 q 222 0 375 0 l 69 0 m 181 428 l 167 428 l 167 97 l 181 97 q 393 135 329 97 q 457 261 457 174 q 392 388 457 349 q 181 428 328 428 z "},"Э":{"ha":724,"x_min":42,"x_max":682,"o":"m 42 135 l 119 199 q 315 83 208 83 q 479 158 410 83 q 572 360 549 233 l 88 360 l 88 457 l 583 457 l 583 478 q 508 764 583 654 q 315 874 432 874 q 119 760 207 874 l 42 822 q 315 971 153 971 q 514 902 429 971 q 640 723 599 833 q 682 478 682 613 q 583 129 682 272 q 315 -14 485 -14 q 42 135 153 -14 z "},"Ю":{"ha":956,"x_min":83,"x_max":914,"o":"m 306 478 q 323 667 306 581 q 376 822 340 753 q 472 931 411 892 q 611 971 532 971 q 787 901 717 971 q 885 724 857 831 q 914 478 914 617 q 840 125 914 264 q 611 -14 765 -14 q 406 88 479 -14 q 313 360 332 190 l 181 360 l 181 0 l 83 0 l 83 957 l 181 957 l 181 457 l 306 457 l 306 478 m 403 478 q 458 190 403 299 q 611 82 513 82 q 763 190 708 82 q 818 478 818 299 q 763 767 818 658 q 611 875 708 875 q 458 767 513 875 q 403 478 403 658 z "},"Я":{"ha":722,"x_min":14,"x_max":653,"o":"m 653 957 l 653 0 l 556 0 l 556 360 l 414 360 l 136 0 l 14 0 l 304 375 q 133 481 194 406 q 72 660 72 557 q 169 874 72 790 q 432 957 265 957 l 653 957 m 474 457 l 556 457 l 556 860 l 474 860 q 169 660 169 860 q 474 457 169 457 z "},"а":{"ha":719,"x_min":42,"x_max":650,"o":"m 650 719 l 650 0 l 553 0 l 553 75 q 346 -14 472 -14 q 122 94 203 -14 q 42 360 42 203 q 122 625 42 517 q 346 733 203 733 q 553 644 472 733 l 553 719 l 650 719 m 199 555 q 169 514 199 555 q 139 360 139 474 q 199 165 139 246 q 346 83 260 83 q 492 165 432 83 q 553 360 553 246 q 492 555 553 474 q 346 636 432 636 q 199 555 260 636 z "},"б":{"ha":601,"x_min":42,"x_max":560,"o":"m 42 301 q 77 563 42 456 q 183 728 113 669 q 344 811 254 786 q 560 836 435 836 l 560 739 q 417 729 476 739 q 301 694 357 719 q 208 616 244 668 q 153 486 171 564 q 300 532 215 532 q 486 453 413 532 q 560 260 560 374 q 486 67 560 146 q 300 -12 413 -12 q 112 65 182 -12 q 42 301 42 143 m 138 260 q 185 134 140 185 q 300 83 229 83 q 418 134 372 83 q 464 260 464 185 q 418 384 464 333 q 300 435 372 435 q 183 384 229 435 q 138 260 138 333 z "},"в":{"ha":565,"x_min":69,"x_max":524,"o":"m 69 0 l 69 719 l 228 719 q 415 672 347 719 q 483 524 483 624 q 467 447 483 485 q 422 386 450 410 q 524 207 524 326 q 454 54 524 108 q 268 0 385 0 l 69 0 m 165 331 l 165 96 l 268 96 q 426 207 426 96 q 378 297 426 265 q 239 331 329 328 l 165 331 m 228 624 l 165 624 l 165 428 l 228 428 q 389 524 389 428 q 228 624 389 624 z "},"г":{"ha":569,"x_min":69,"x_max":542,"o":"m 69 0 l 69 719 l 542 719 l 542 622 l 167 622 l 167 0 l 69 0 z "},"д":{"ha":776,"x_min":28,"x_max":749,"o":"m 207 346 l 207 719 l 665 719 l 665 97 l 749 97 l 749 -139 l 651 -139 l 651 0 l 125 0 l 125 -139 l 28 -139 l 28 97 l 69 97 q 207 346 207 97 m 304 346 q 250 97 304 186 l 568 97 l 568 622 l 304 622 l 304 346 z "},"е":{"ha":692,"x_min":42,"x_max":650,"o":"m 122 94 q 82 149 122 94 q 42 360 42 203 q 122 625 42 517 q 346 733 203 733 q 569 625 489 733 q 650 360 650 517 l 139 360 q 202 161 139 239 q 346 83 265 83 q 443 116 393 83 q 524 217 493 149 l 611 167 q 506 35 574 83 q 346 -14 439 -14 q 122 94 203 -14 m 464 586 q 438 611 464 586 q 346 636 411 636 q 227 586 281 636 q 151 457 174 536 l 539 457 q 464 586 517 536 z "},"ж":{"ha":881,"x_min":14,"x_max":867,"o":"m 133 719 l 357 408 l 392 408 l 392 719 l 489 719 l 489 408 l 524 408 l 747 719 l 867 719 l 608 360 l 867 0 l 747 0 l 524 311 l 489 311 l 489 0 l 392 0 l 392 311 l 357 311 l 133 0 l 14 0 l 272 360 l 14 719 l 133 719 z "},"з":{"ha":432,"x_min":28,"x_max":390,"o":"m 94 315 l 94 413 l 185 413 q 264 444 235 413 q 293 526 293 476 q 263 606 293 576 q 185 636 233 636 q 94 588 139 636 l 29 661 q 185 732 100 732 q 337 670 283 732 q 390 526 390 608 q 319 363 390 429 q 390 201 390 300 q 338 49 390 110 q 185 -12 285 -12 q 28 60 100 -12 l 94 129 q 185 83 139 83 q 265 116 238 83 q 293 201 293 149 q 265 281 293 249 q 189 315 236 313 l 94 315 z "},"и":{"ha":733,"x_min":69,"x_max":664,"o":"m 167 146 l 547 719 l 664 719 l 664 0 l 567 0 l 567 572 l 186 0 l 69 0 l 69 719 l 167 719 l 167 146 z "},"й":{"ha":733,"x_min":69,"x_max":664,"o":"m 254 950 l 322 950 q 365 879 322 879 q 408 950 408 879 l 476 950 q 446 847 476 882 q 365 811 415 811 q 285 847 315 811 q 254 950 254 882 m 547 719 l 167 146 l 167 719 l 69 719 l 69 0 l 186 0 l 567 572 l 567 0 l 664 0 l 664 719 l 547 719 z "},"к":{"ha":667,"x_min":69,"x_max":653,"o":"m 69 0 l 69 719 l 167 719 l 167 426 l 444 719 l 578 719 l 272 399 l 653 0 l 518 0 l 206 328 l 167 286 l 167 0 l 69 0 z "},"л":{"ha":763,"x_min":28,"x_max":693,"o":"m 165 290 l 165 719 l 693 719 l 693 0 l 596 0 l 596 622 l 263 622 l 263 290 q 208 62 263 138 q 28 -14 153 -14 l 28 83 q 128 128 92 83 q 165 290 165 172 z "},"м":{"ha":835,"x_min":56,"x_max":779,"o":"m 56 0 l 97 719 l 201 719 l 417 139 l 633 719 l 738 719 l 779 0 l 681 0 l 653 492 l 469 0 l 365 0 l 182 492 l 154 0 l 56 0 z "},"н":{"ha":708,"x_min":69,"x_max":639,"o":"m 542 0 l 542 318 l 167 318 l 167 0 l 69 0 l 69 719 l 167 719 l 167 415 l 542 415 l 542 719 l 639 719 l 639 0 l 542 0 z "},"о":{"ha":692,"x_min":42,"x_max":650,"o":"m 122 94 q 82 149 122 94 q 42 360 42 203 q 122 625 42 517 q 346 733 203 733 q 569 625 489 733 q 650 360 650 517 q 569 94 650 203 q 346 -14 489 -14 q 122 94 203 -14 m 199 555 q 169 514 199 555 q 139 360 139 474 q 199 165 139 246 q 346 83 260 83 q 492 165 432 83 q 553 360 553 246 q 492 555 553 474 q 346 636 432 636 q 199 555 260 636 z "},"п":{"ha":694,"x_min":69,"x_max":625,"o":"m 528 0 l 528 622 l 167 622 l 167 0 l 69 0 l 69 719 l 625 719 l 625 0 l 528 0 z "},"р":{"ha":719,"x_min":69,"x_max":678,"o":"m 69 -268 l 69 719 l 167 719 l 167 646 q 374 733 247 733 q 597 625 517 733 q 678 360 678 517 q 597 94 678 203 q 374 -14 517 -14 q 167 75 247 -14 l 167 -268 l 69 -268 m 227 555 q 197 514 227 555 q 167 360 167 474 q 227 165 167 246 q 374 83 288 83 q 520 165 460 83 q 581 360 581 246 q 520 555 581 474 q 374 636 460 636 q 227 555 288 636 z "},"с":{"ha":653,"x_min":42,"x_max":611,"o":"m 202 558 q 170 519 202 558 q 139 360 139 481 q 202 161 139 239 q 346 83 265 83 q 443 116 393 83 q 524 217 493 149 l 611 167 q 506 35 574 83 q 346 -14 439 -14 q 122 94 203 -14 q 42 360 42 203 q 122 625 42 517 q 346 733 203 733 q 506 685 439 733 q 611 553 574 636 l 524 503 q 443 603 493 571 q 346 636 393 636 q 202 558 265 636 z "},"т":{"ha":556,"x_min":28,"x_max":528,"o":"m 28 622 l 28 719 l 528 719 l 528 622 l 326 622 l 326 0 l 229 0 l 229 622 l 28 622 z "},"у":{"ha":690,"x_min":28,"x_max":663,"o":"m 663 719 l 300 -268 l 196 -268 l 293 -3 l 28 719 l 131 719 l 344 136 l 558 719 l 663 719 z "},"ф":{"ha":831,"x_min":42,"x_max":789,"o":"m 367 0 l 367 58 q 134 150 226 71 q 42 360 42 229 q 134 569 42 490 q 367 661 226 647 l 367 719 l 464 719 l 464 661 q 697 569 604 647 q 789 360 789 490 q 697 150 789 229 q 464 58 604 71 l 464 0 l 367 0 m 626 227 q 659 256 626 227 q 692 360 692 285 q 626 492 692 435 q 464 563 561 550 l 464 156 q 626 227 561 169 m 139 360 q 203 227 139 285 q 367 156 268 169 l 367 563 q 203 493 268 550 q 139 360 139 436 z "},"х":{"ha":629,"x_min":28,"x_max":601,"o":"m 601 719 l 372 360 l 601 0 l 486 0 l 314 269 l 143 0 l 28 0 l 257 360 l 28 719 l 143 719 l 314 450 l 486 719 l 601 719 z "},"ц":{"ha":778,"x_min":69,"x_max":750,"o":"m 69 0 l 69 719 l 167 719 l 167 97 l 556 97 l 556 719 l 653 719 l 653 97 l 750 97 l 750 -139 l 653 -139 l 653 0 l 69 0 z "},"ч":{"ha":636,"x_min":42,"x_max":567,"o":"m 469 638 l 469 719 l 567 719 l 567 0 l 469 0 l 469 296 q 304 222 400 222 q 112 331 182 222 q 42 596 42 439 l 42 719 l 139 719 l 139 638 q 183 404 139 489 q 304 319 228 319 q 425 404 381 319 q 469 638 469 489 z "},"ш":{"ha":875,"x_min":69,"x_max":806,"o":"m 69 0 l 69 719 l 167 719 l 167 97 l 389 97 l 389 719 l 486 719 l 486 97 l 708 97 l 708 719 l 806 719 l 806 0 l 69 0 z "},"щ":{"ha":931,"x_min":69,"x_max":903,"o":"m 69 0 l 69 719 l 167 719 l 167 97 l 389 97 l 389 719 l 486 719 l 486 97 l 708 97 l 708 719 l 806 719 l 806 97 l 903 97 l 903 -139 l 806 -139 l 806 0 l 69 0 z "},"ъ":{"ha":693,"x_min":28,"x_max":651,"o":"m 28 622 l 28 719 l 222 719 l 222 525 l 319 525 q 561 456 471 525 q 651 261 651 388 q 562 68 651 136 q 319 0 472 0 l 125 0 l 125 622 l 28 622 m 278 428 l 222 428 l 222 97 l 278 97 q 490 135 426 97 q 554 261 554 174 q 490 388 554 349 q 278 428 425 428 z "},"ы":{"ha":860,"x_min":69,"x_max":776,"o":"m 69 0 l 69 719 l 167 719 l 167 525 l 222 525 q 464 456 374 525 q 554 261 554 388 q 465 68 554 136 q 222 0 375 0 l 69 0 m 181 428 l 167 428 l 167 97 l 181 97 q 393 135 329 97 q 457 261 457 174 q 392 388 457 349 q 181 428 328 428 m 679 0 l 679 719 l 776 719 l 776 0 l 679 0 z "},"ь":{"ha":596,"x_min":69,"x_max":554,"o":"m 69 0 l 69 719 l 167 719 l 167 525 l 222 525 q 464 456 374 525 q 554 261 554 388 q 465 68 554 136 q 222 0 375 0 l 69 0 m 181 428 l 167 428 l 167 97 l 181 97 q 393 135 329 97 q 457 261 457 174 q 392 388 457 349 q 181 428 328 428 z "},"э":{"ha":653,"x_min":42,"x_max":611,"o":"m 107 318 l 107 415 l 510 415 q 435 575 494 514 q 307 636 376 636 q 210 603 260 636 q 129 503 160 571 l 42 553 q 147 685 79 636 q 307 733 214 733 q 531 625 450 733 q 611 360 611 517 q 531 94 611 203 q 307 -14 450 -14 q 147 35 214 -14 q 42 167 79 83 l 129 217 q 210 116 160 149 q 307 83 260 83 q 440 149 381 83 q 511 318 500 214 l 107 318 z "},"ю":{"ha":860,"x_min":83,"x_max":818,"o":"m 83 0 l 83 719 l 181 719 l 181 408 l 322 408 q 394 642 331 550 q 569 733 457 733 q 755 626 692 733 q 818 360 818 519 q 755 93 818 200 q 569 -14 692 -14 q 394 78 457 -14 q 322 311 331 169 l 181 311 l 181 0 l 83 0 m 458 558 q 438 519 458 558 q 418 360 418 481 q 458 161 418 239 q 569 83 497 83 q 681 161 642 83 q 721 360 721 239 q 681 558 721 481 q 569 636 642 636 q 458 558 497 636 z "},"я":{"ha":547,"x_min":14,"x_max":478,"o":"m 332 719 l 478 719 l 478 0 l 381 0 l 381 353 l 332 353 l 331 353 l 125 -1 l 14 0 l 225 364 q 83 535 83 400 q 149 674 83 628 q 332 719 215 719 m 374 450 l 381 450 l 381 622 l 374 622 q 179 535 179 622 q 374 450 179 450 z "},"ѐ":{"ha":692,"x_min":42,"x_max":650,"o":"m 122 94 q 82 149 122 94 q 42 360 42 203 q 122 625 42 517 q 346 733 203 733 q 569 625 489 733 q 650 360 650 517 l 139 360 q 202 161 139 239 q 346 83 265 83 q 443 116 393 83 q 524 217 493 149 l 611 167 q 506 35 574 83 q 346 -14 439 -14 q 122 94 203 -14 m 464 586 q 438 611 464 586 q 346 636 411 636 q 227 586 281 636 q 151 457 174 536 l 539 457 q 464 586 517 536 m 326 1071 l 439 839 l 393 811 l 251 1028 l 326 1071 z "},"ё":{"ha":692,"x_min":42,"x_max":650,"o":"m 122 94 q 82 149 122 94 q 42 360 42 203 q 122 625 42 517 q 346 733 203 733 q 569 625 489 733 q 650 360 650 517 l 139 360 q 202 161 139 239 q 346 83 265 83 q 443 116 393 83 q 524 217 493 149 l 611 167 q 506 35 574 83 q 346 -14 439 -14 q 122 94 203 -14 m 464 586 q 438 611 464 586 q 346 636 411 636 q 227 586 281 636 q 151 457 174 536 l 539 457 q 464 586 517 536 m 252 840 q 245 847 252 840 q 238 874 238 854 q 252 908 238 893 q 286 922 267 922 q 320 908 306 922 q 335 874 335 893 q 320 840 335 854 q 286 825 306 825 q 252 840 267 825 m 398 840 q 391 847 398 840 q 383 874 383 854 q 398 908 383 893 q 432 922 413 922 q 466 908 451 922 q 481 874 481 893 q 466 840 481 854 q 432 825 451 825 q 398 840 413 825 z "},"ђ":{"ha":719,"x_min":14,"x_max":664,"o":"m 14 790 l 14 846 l 56 846 l 56 957 l 153 957 l 153 846 l 236 846 l 236 790 l 153 790 l 153 646 q 360 735 235 735 q 583 626 503 735 q 664 361 664 518 l 664 50 q 599 -194 664 -106 q 401 -282 535 -282 l 401 -185 q 525 -133 483 -185 q 567 50 567 -81 l 567 319 q 508 551 567 465 q 360 638 449 638 q 215 555 274 638 q 153 333 156 472 l 153 0 l 56 0 l 56 361 l 56 375 l 56 790 l 14 790 z "},"ѓ":{"ha":569,"x_min":69,"x_max":542,"o":"m 69 0 l 69 719 l 542 719 l 542 622 l 167 622 l 167 0 l 69 0 m 190 839 l 303 1071 l 378 1028 l 236 811 l 190 839 z "},"є":{"ha":653,"x_min":42,"x_max":611,"o":"m 543 415 l 543 318 l 140 318 q 213 149 153 214 q 346 83 274 83 q 443 116 393 83 q 524 217 493 149 l 611 167 q 506 35 574 83 q 346 -14 439 -14 q 122 94 203 -14 q 42 360 42 203 q 122 625 42 517 q 346 733 203 733 q 506 685 439 733 q 611 553 574 636 l 524 503 q 443 603 493 571 q 346 636 393 636 q 216 575 275 636 q 143 415 157 514 l 543 415 z "},"ѕ":{"ha":603,"x_min":42,"x_max":561,"o":"m 465 190 q 453 242 465 221 q 412 278 440 264 q 361 299 383 292 q 297 315 339 306 q 228 332 253 325 q 167 356 204 339 q 112 394 131 374 q 78 449 93 414 q 64 531 64 485 q 132 671 64 608 q 306 733 200 733 q 461 686 394 733 q 557 558 528 639 l 471 510 q 406 604 451 571 q 306 638 360 638 q 205 606 250 638 q 160 531 160 575 q 172 478 160 500 q 213 443 185 457 q 264 422 242 429 q 328 406 286 415 q 397 389 372 396 q 458 365 421 382 q 513 327 494 347 q 547 272 532 307 q 561 190 561 236 q 488 46 561 104 q 306 -12 415 -12 q 42 161 117 -12 l 128 210 q 306 83 179 83 q 416 111 367 83 q 465 190 465 139 z "},"і":{"ha":264,"x_min":83,"x_max":181,"o":"m 181 719 l 181 0 l 83 0 l 83 719 l 181 719 m 98 790 q 91 797 98 790 q 83 824 83 804 q 98 858 83 843 q 132 872 113 872 q 166 858 151 872 q 181 824 181 843 q 166 790 181 804 q 132 775 151 775 q 98 790 113 775 z "},"ї":{"ha":264,"x_min":11,"x_max":254,"o":"m 83 0 l 83 719 l 181 719 l 181 0 l 83 0 m 26 840 q 18 847 26 840 q 11 874 11 854 q 26 908 11 893 q 60 922 40 922 q 94 908 79 922 q 108 874 108 893 q 94 840 108 854 q 60 825 79 825 q 26 840 40 825 m 172 840 q 164 847 172 840 q 157 874 157 854 q 172 908 157 893 q 206 922 186 922 q 240 908 225 922 q 254 874 254 893 q 240 840 254 854 q 206 825 225 825 q 172 840 186 825 z "},"ј":{"ha":292,"x_min":-68,"x_max":194,"o":"m 97 50 l 97 719 l 194 719 l 194 50 q 130 -194 194 -106 q -68 -282 65 -282 l -68 -185 q 56 -133 14 -185 q 97 50 97 -81 m 112 790 q 105 797 112 790 q 97 824 97 804 q 112 858 97 843 q 146 872 126 872 q 180 858 165 872 q 194 824 194 843 q 180 790 194 804 q 146 775 165 775 q 112 790 126 775 z "},"љ":{"ha":996,"x_min":28,"x_max":954,"o":"m 469 0 l 469 622 l 263 622 l 263 290 q 208 62 263 138 q 28 -14 153 -14 l 28 83 q 133 131 100 83 q 165 318 165 178 l 165 719 l 567 719 l 567 525 l 622 525 q 864 456 774 525 q 954 261 954 388 q 865 68 954 136 q 622 0 775 0 l 469 0 m 581 428 l 567 428 l 567 97 l 581 97 q 793 135 729 97 q 857 261 857 174 q 792 388 857 349 q 581 428 728 428 z "},"њ":{"ha":929,"x_min":83,"x_max":888,"o":"m 83 0 l 83 719 l 181 719 l 181 525 l 403 525 l 403 719 l 500 719 l 500 525 l 556 525 q 797 456 707 525 q 888 261 888 388 q 798 68 888 136 q 556 0 708 0 l 403 0 l 403 428 l 181 428 l 181 0 l 83 0 m 514 428 l 500 428 l 500 97 l 514 97 q 726 135 663 97 q 790 261 790 174 q 726 388 790 349 q 514 428 661 428 z "},"ћ":{"ha":719,"x_min":14,"x_max":664,"o":"m 14 790 l 14 846 l 56 846 l 56 957 l 153 957 l 153 846 l 236 846 l 236 790 l 153 790 l 153 646 q 360 735 235 735 q 583 626 503 735 q 664 361 664 518 l 664 0 l 567 0 l 567 319 q 508 551 567 465 q 360 638 449 638 q 215 555 274 638 q 153 333 156 472 l 153 0 l 56 0 l 56 790 l 14 790 z "},"ќ":{"ha":667,"x_min":69,"x_max":653,"o":"m 69 0 l 69 719 l 167 719 l 167 426 l 444 719 l 578 719 l 272 399 l 653 0 l 518 0 l 206 328 l 167 286 l 167 0 l 69 0 m 239 839 l 351 1071 l 426 1028 l 285 811 l 239 839 z "},"ѝ":{"ha":733,"x_min":69,"x_max":664,"o":"m 347 1071 l 460 839 l 414 811 l 272 1028 l 347 1071 m 547 719 l 167 146 l 167 719 l 69 719 l 69 0 l 186 0 l 567 572 l 567 0 l 664 0 l 664 719 l 547 719 z "},"ў":{"ha":690,"x_min":28,"x_max":663,"o":"m 663 719 l 300 -268 l 196 -268 l 293 -3 l 28 719 l 131 719 l 344 136 l 558 719 l 663 719 m 233 950 l 301 950 q 344 879 301 879 q 388 950 388 879 l 456 950 q 425 847 456 882 q 344 811 394 811 q 264 847 294 811 q 233 950 233 882 z "},"џ":{"ha":722,"x_min":69,"x_max":653,"o":"m 69 0 l 69 719 l 167 719 l 167 97 l 556 97 l 556 719 l 653 719 l 653 0 l 410 0 l 410 -139 l 313 -139 l 313 0 l 69 0 z "},"Ѣ":{"ha":693,"x_min":28,"x_max":651,"o":"m 28 860 l 28 957 l 361 957 l 361 860 l 222 860 l 222 525 l 319 525 q 561 456 471 525 q 651 261 651 388 q 562 68 651 136 q 319 0 472 0 l 125 0 l 125 860 l 28 860 m 278 428 l 222 428 l 222 97 l 278 97 q 490 135 426 97 q 554 261 554 174 q 490 388 554 349 q 278 428 425 428 z "},"ѣ":{"ha":679,"x_min":14,"x_max":638,"o":"m 14 664 l 14 719 l 111 719 l 111 957 l 208 957 l 208 719 l 292 719 l 292 664 l 208 664 l 208 525 l 306 525 q 547 456 457 525 q 638 261 638 388 q 548 68 638 136 q 306 0 458 0 l 111 0 l 111 664 l 14 664 m 264 428 l 208 428 l 208 97 l 264 97 q 476 135 413 97 q 540 261 540 174 q 476 388 540 349 q 264 428 411 428 z "},"Ѳ":{"ha":735,"x_min":42,"x_max":693,"o":"m 42 478 q 72 724 42 617 q 179 901 103 831 q 369 971 256 971 q 520 932 456 971 q 622 823 585 893 q 676 667 658 753 q 693 478 693 581 q 676 290 693 375 q 622 135 658 204 q 520 26 585 65 q 369 -14 456 -14 q 179 56 256 -14 q 72 233 103 126 q 42 478 42 340 m 140 478 q 199 190 140 296 q 369 83 258 83 q 528 173 471 83 q 596 419 586 263 l 508 506 q 407 492 463 550 q 275 429 344 429 q 164 478 215 429 l 140 501 l 140 478 m 369 874 q 228 810 283 874 q 153 629 174 746 l 235 547 q 338 563 279 503 q 469 624 397 624 q 579 575 531 624 l 593 560 q 524 790 582 707 q 369 874 467 874 z "},"ѳ":{"ha":692,"x_min":42,"x_max":650,"o":"m 122 94 q 82 149 122 94 q 42 360 42 203 q 122 625 42 517 q 346 733 203 733 q 569 625 489 733 q 650 360 650 517 q 569 94 650 203 q 346 -14 489 -14 q 122 94 203 -14 m 242 286 q 140 328 186 286 q 208 153 149 224 q 346 83 267 83 q 472 141 417 83 q 546 289 528 199 l 472 363 q 372 349 429 406 q 242 286 310 286 m 433 478 q 542 431 494 478 l 546 425 q 474 576 529 517 q 346 636 418 636 q 227 585 281 636 q 151 454 174 535 l 203 403 q 304 417 247 358 q 433 478 365 478 z "},"Ѵ":{"ha":842,"x_min":14,"x_max":814,"o":"m 14 957 l 117 957 l 339 197 q 407 431 361 278 q 475 664 453 583 q 600 890 519 814 q 814 971 681 965 l 814 872 q 674 821 740 872 q 574 651 608 769 q 490 368 563 613 q 383 0 418 124 l 294 0 l 14 957 z "},"ѵ":{"ha":699,"x_min":14,"x_max":671,"o":"m 14 719 l 114 719 l 268 194 l 336 432 q 460 653 381 579 q 671 733 540 728 l 671 636 q 534 585 599 636 q 433 418 469 533 l 313 0 l 224 0 l 14 719 z "},"Ґ":{"ha":625,"x_min":69,"x_max":597,"o":"m 167 860 l 167 0 l 69 0 l 69 957 l 500 957 l 500 1068 l 597 1068 l 597 860 l 167 860 z "},"ґ":{"ha":528,"x_min":69,"x_max":500,"o":"m 69 0 l 69 719 l 403 719 l 403 831 l 500 831 l 500 622 l 167 622 l 167 0 l 69 0 z "},"ә":{"ha":692,"x_min":42,"x_max":650,"o":"m 569 625 q 610 571 569 625 q 650 360 650 517 q 569 94 650 203 q 346 -14 489 -14 q 122 94 203 -14 q 42 360 42 203 l 553 360 q 490 558 553 481 q 346 636 426 636 q 249 603 299 636 q 168 503 199 571 l 81 553 q 185 685 118 636 q 346 733 253 733 q 569 625 489 733 m 228 133 q 254 108 228 133 q 346 83 281 83 q 465 133 411 83 q 540 263 518 183 l 153 263 q 228 133 175 183 z "},"Ḃ":{"ha":710,"x_min":69,"x_max":668,"o":"m 69 0 l 69 957 l 254 957 q 519 894 424 957 q 615 701 615 831 q 514 506 615 572 q 668 271 668 436 q 570 71 668 142 q 307 0 472 0 l 69 0 m 571 271 q 551 351 571 317 q 501 403 531 385 q 425 431 471 421 q 342 444 379 442 q 254 447 304 447 l 168 447 l 168 99 l 307 99 q 506 146 442 99 q 571 271 571 193 m 254 858 l 168 858 l 168 546 l 254 546 q 518 701 518 546 q 254 858 518 858 m 242 1027 q 235 1034 242 1027 q 228 1061 228 1042 q 242 1095 228 1081 q 276 1110 257 1110 q 310 1095 296 1110 q 325 1061 325 1081 q 310 1027 325 1042 q 276 1013 296 1013 q 242 1027 257 1013 z "},"ḃ":{"ha":719,"x_min":69,"x_max":678,"o":"m 69 0 l 69 957 l 167 957 l 167 644 q 374 733 249 733 q 597 625 517 733 q 678 360 678 517 q 597 94 678 203 q 374 -14 517 -14 q 167 75 247 -14 l 167 0 l 69 0 m 227 555 q 197 514 227 555 q 167 360 167 474 q 227 165 167 246 q 374 83 288 83 q 520 165 460 83 q 581 360 581 246 q 520 555 581 474 q 374 636 460 636 q 227 555 288 636 m 340 840 q 332 847 340 840 q 325 874 325 854 q 340 908 325 893 q 374 922 354 922 q 408 908 393 922 q 422 874 422 893 q 408 840 422 854 q 374 825 393 825 q 340 840 354 825 z "},"Ḋ":{"ha":779,"x_min":69,"x_max":738,"o":"m 69 0 l 69 957 l 265 957 q 619 823 501 957 q 738 478 738 689 q 690 237 738 342 q 533 66 642 132 q 265 0 425 0 l 69 0 m 639 478 q 543 758 639 658 q 265 858 447 858 l 168 858 l 168 99 l 265 99 q 542 199 446 99 q 639 478 639 299 m 306 1027 q 299 1034 306 1027 q 292 1061 292 1042 q 306 1095 292 1081 q 340 1110 321 1110 q 374 1095 360 1110 q 389 1061 389 1081 q 374 1027 389 1042 q 340 1013 360 1013 q 306 1027 321 1013 z "},"ḋ":{"ha":719,"x_min":42,"x_max":650,"o":"m 650 957 l 650 0 l 553 0 l 553 75 q 346 -14 471 -14 q 122 94 203 -14 q 42 360 42 203 q 122 625 42 517 q 346 733 203 733 q 553 644 471 733 l 553 957 l 650 957 m 199 555 q 169 514 199 555 q 139 360 139 474 q 199 165 139 246 q 346 83 260 83 q 492 165 432 83 q 553 360 553 246 q 492 555 553 474 q 346 636 432 636 q 199 555 260 636 m 312 840 q 305 847 312 840 q 297 874 297 854 q 312 908 297 893 q 346 922 326 922 q 380 908 365 922 q 394 874 394 893 q 380 840 394 854 q 346 825 365 825 q 312 840 326 825 z "},"Ḟ":{"ha":667,"x_min":69,"x_max":611,"o":"m 69 0 l 69 957 l 611 957 l 611 860 l 167 860 l 167 457 l 611 457 l 611 360 l 167 360 l 167 0 l 69 0 m 326 1027 q 318 1034 326 1027 q 311 1061 311 1042 q 326 1095 311 1081 q 360 1110 340 1110 q 394 1095 379 1110 q 408 1061 408 1081 q 394 1027 408 1042 q 360 1013 379 1013 q 326 1027 340 1013 z "},"ḟ":{"ha":499,"x_min":28,"x_max":471,"o":"m 28 622 l 28 719 l 168 719 q 232 908 176 846 q 401 971 288 971 l 401 874 q 306 841 339 874 q 265 719 272 808 l 471 719 l 471 622 l 264 622 l 264 0 l 167 0 l 167 622 l 28 622 m 285 1027 q 278 1034 285 1027 q 271 1061 271 1042 q 285 1095 271 1081 q 319 1110 300 1110 q 353 1095 339 1110 q 368 1061 368 1081 q 353 1027 368 1042 q 319 1013 339 1013 q 285 1027 300 1013 z "},"Ṁ":{"ha":972,"x_min":42,"x_max":931,"o":"m 111 957 l 42 0 l 140 0 l 192 719 l 435 0 l 538 0 l 781 719 l 832 0 l 931 0 l 861 957 l 758 957 l 486 151 l 214 957 l 111 957 m 430 1027 q 423 1034 430 1027 q 415 1061 415 1042 q 430 1095 415 1081 q 464 1110 444 1110 q 498 1095 483 1110 q 513 1061 513 1081 q 498 1027 513 1042 q 464 1013 483 1013 q 430 1027 444 1013 z "},"ṁ":{"ha":1078,"x_min":69,"x_max":1022,"o":"m 497 0 l 497 332 q 453 558 497 479 q 332 636 410 636 q 213 561 257 636 q 167 346 168 486 l 167 0 l 69 0 l 69 719 l 167 719 l 167 671 q 332 733 232 733 q 546 604 478 733 q 760 733 614 733 q 957 633 892 733 q 1022 374 1022 533 l 1022 0 l 925 0 l 925 332 q 881 558 925 479 q 760 636 838 636 q 640 561 685 636 q 594 346 596 486 l 594 0 l 497 0 m 512 840 q 505 847 512 840 q 497 874 497 854 q 512 908 497 893 q 546 922 526 922 q 580 908 565 922 q 594 874 594 893 q 580 840 594 854 q 546 825 565 825 q 512 840 526 825 z "},"Ṗ":{"ha":678,"x_min":69,"x_max":636,"o":"m 276 360 l 167 360 l 167 0 l 69 0 l 69 957 l 276 957 q 540 874 443 957 q 636 660 636 790 q 540 444 636 528 q 276 360 443 360 m 235 860 l 167 860 l 167 457 l 235 457 q 539 660 539 457 q 235 860 539 860 m 256 1077 q 249 1084 256 1077 q 242 1111 242 1092 q 256 1145 242 1131 q 290 1160 271 1160 q 324 1145 310 1160 q 339 1111 339 1131 q 324 1077 339 1092 q 290 1063 310 1063 q 256 1077 271 1063 z "},"ṗ":{"ha":719,"x_min":69,"x_max":678,"o":"m 69 -268 l 69 719 l 167 719 l 167 646 q 374 733 247 733 q 597 625 517 733 q 678 360 678 517 q 597 94 678 203 q 374 -14 517 -14 q 167 75 247 -14 l 167 -268 l 69 -268 m 227 555 q 197 514 227 555 q 167 360 167 474 q 227 165 167 246 q 374 83 288 83 q 520 165 460 83 q 581 360 581 246 q 520 555 581 474 q 374 636 460 636 q 227 555 288 636 m 340 840 q 332 847 340 840 q 325 874 325 854 q 340 908 325 893 q 374 922 354 922 q 408 908 393 922 q 422 874 422 893 q 408 840 422 854 q 374 825 393 825 q 340 840 354 825 z "},"Ṡ":{"ha":692,"x_min":42,"x_max":650,"o":"m 551 260 q 535 333 551 303 q 485 382 519 363 q 422 411 450 401 q 342 433 393 421 q 259 454 289 446 q 186 483 229 463 q 121 529 143 504 q 81 597 99 554 q 64 697 64 640 q 140 894 64 817 q 338 971 215 971 q 506 916 433 971 q 619 767 578 861 l 532 718 q 449 832 500 792 q 338 872 399 872 q 215 826 268 872 q 163 697 163 779 q 178 624 163 654 q 229 575 194 594 q 292 546 264 556 q 372 524 321 536 q 455 503 425 511 q 528 474 485 494 q 593 428 571 453 q 633 360 615 403 q 650 260 650 317 q 557 61 650 136 q 338 -14 464 -14 q 42 190 132 -14 l 129 239 q 338 85 196 85 q 484 128 417 85 q 551 260 551 172 m 305 1077 q 298 1084 305 1077 q 290 1111 290 1092 q 305 1145 290 1131 q 339 1160 319 1160 q 373 1145 358 1160 q 388 1111 388 1131 q 373 1077 388 1092 q 339 1063 358 1063 q 305 1077 319 1063 z "},"ṡ":{"ha":603,"x_min":42,"x_max":561,"o":"m 465 190 q 453 242 465 221 q 412 278 440 264 q 361 299 383 292 q 297 315 339 306 q 228 332 253 325 q 167 356 204 339 q 112 394 131 374 q 78 449 93 414 q 64 531 64 485 q 132 671 64 608 q 306 733 200 733 q 461 686 394 733 q 557 558 528 639 l 471 510 q 406 604 451 571 q 306 638 360 638 q 205 606 250 638 q 160 531 160 575 q 172 478 160 500 q 213 443 185 457 q 264 422 242 429 q 328 406 286 415 q 397 389 372 396 q 458 365 421 382 q 513 327 494 347 q 547 272 532 307 q 561 190 561 236 q 488 46 561 104 q 306 -12 415 -12 q 42 161 117 -12 l 128 210 q 306 83 179 83 q 416 111 367 83 q 465 190 465 139 m 267 840 q 260 847 267 840 q 253 874 253 854 q 267 908 253 893 q 301 922 282 922 q 335 908 321 922 q 350 874 350 893 q 335 840 350 854 q 301 825 321 825 q 267 840 282 825 z "},"Ṫ":{"ha":667,"x_min":28,"x_max":639,"o":"m 28 860 l 28 957 l 639 957 l 639 860 l 382 860 l 382 0 l 285 0 l 285 860 l 28 860 m 299 1027 q 292 1034 299 1027 q 285 1061 285 1042 q 299 1095 285 1081 q 333 1110 314 1110 q 367 1095 353 1110 q 382 1061 382 1081 q 367 1027 382 1042 q 333 1013 353 1013 q 299 1027 314 1013 z "},"ṫ":{"ha":528,"x_min":28,"x_max":500,"o":"m 28 719 l 28 622 l 215 622 l 215 0 l 313 0 l 313 622 l 500 622 l 500 719 l 313 719 l 313 957 l 215 957 l 215 719 l 28 719 m 230 1027 q 223 1034 230 1027 q 215 1061 215 1042 q 230 1095 215 1081 q 264 1110 244 1110 q 298 1095 283 1110 q 313 1061 313 1081 q 298 1027 313 1042 q 264 1013 283 1013 q 230 1027 244 1013 z "},"Ẁ":{"ha":1136,"x_min":28,"x_max":1108,"o":"m 849 0 l 568 808 l 288 0 l 185 0 l 28 957 l 126 957 l 251 193 l 517 957 l 619 957 l 885 193 l 1010 957 l 1108 957 l 951 0 l 849 0 m 549 1308 l 661 1076 l 615 1049 l 474 1265 l 549 1308 z "},"ẁ":{"ha":1019,"x_min":28,"x_max":992,"o":"m 708 0 l 510 571 l 311 0 l 208 0 l 28 719 l 128 719 l 267 167 l 458 719 l 561 719 l 753 167 l 892 719 l 992 719 l 811 0 l 708 0 m 490 1071 l 603 839 l 557 811 l 415 1028 l 490 1071 z "},"Ẃ":{"ha":1136,"x_min":28,"x_max":1108,"o":"m 849 0 l 568 808 l 288 0 l 185 0 l 28 957 l 126 957 l 251 193 l 517 957 l 619 957 l 885 193 l 1010 957 l 1108 957 l 951 0 l 849 0 m 474 1076 l 586 1308 l 661 1265 l 519 1049 l 474 1076 z "},"ẃ":{"ha":1019,"x_min":28,"x_max":992,"o":"m 708 0 l 510 571 l 311 0 l 208 0 l 28 719 l 128 719 l 267 167 l 458 719 l 561 719 l 753 167 l 892 719 l 992 719 l 811 0 l 708 0 m 415 839 l 528 1071 l 603 1028 l 461 811 l 415 839 z "},"Ẅ":{"ha":1136,"x_min":28,"x_max":1108,"o":"m 849 0 l 568 808 l 288 0 l 185 0 l 28 957 l 126 957 l 251 193 l 517 957 l 619 957 l 885 193 l 1010 957 l 1108 957 l 951 0 l 849 0 m 460 1077 q 453 1084 460 1077 q 446 1111 446 1092 q 460 1145 446 1131 q 494 1160 475 1160 q 528 1145 514 1160 q 543 1111 543 1131 q 528 1077 543 1092 q 494 1063 514 1063 q 460 1077 475 1063 m 606 1077 q 599 1084 606 1077 q 592 1111 592 1092 q 606 1145 592 1131 q 640 1160 621 1160 q 674 1145 660 1160 q 689 1111 689 1131 q 674 1077 689 1092 q 640 1063 660 1063 q 606 1077 621 1063 z "},"ẅ":{"ha":1019,"x_min":28,"x_max":992,"o":"m 708 0 l 510 571 l 311 0 l 208 0 l 28 719 l 128 719 l 267 167 l 458 719 l 561 719 l 753 167 l 892 719 l 992 719 l 811 0 l 708 0 m 402 840 q 395 847 402 840 q 388 874 388 854 q 402 908 388 893 q 436 922 417 922 q 470 908 456 922 q 485 874 485 893 q 470 840 485 854 q 436 825 456 825 q 402 840 417 825 m 548 840 q 541 847 548 840 q 533 874 533 854 q 548 908 533 893 q 582 922 563 922 q 616 908 601 922 q 631 874 631 893 q 616 840 631 854 q 582 825 601 825 q 548 840 563 825 z "},"Ỳ":{"ha":650,"x_min":28,"x_max":622,"o":"m 275 0 l 275 385 l 28 957 l 133 957 l 325 511 l 517 957 l 622 957 l 372 378 l 372 0 l 275 0 m 306 1308 l 418 1076 l 372 1049 l 231 1265 l 306 1308 z "},"ỳ":{"ha":690,"x_min":28,"x_max":663,"o":"m 663 719 l 300 -268 l 196 -268 l 293 -3 l 28 719 l 131 719 l 344 136 l 558 719 l 663 719 m 326 1071 l 439 839 l 393 811 l 251 1028 l 326 1071 z "},"–":{"ha":526,"x_min":28,"x_max":499,"o":"m 28 417 l 28 514 l 499 514 l 499 417 l 28 417 z "},"—":{"ha":665,"x_min":28,"x_max":638,"o":"m 28 417 l 28 514 l 638 514 l 638 417 l 28 417 z "},"‘":{"ha":185,"x_min":42,"x_max":143,"o":"m 139 858 l 143 713 l 104 704 l 46 839 q 42 858 42 847 q 56 892 42 878 q 90 907 71 907 q 124 892 110 907 q 139 858 139 878 z "},"’":{"ha":185,"x_min":42,"x_max":143,"o":"m 46 858 q 60 892 46 878 q 94 907 75 907 q 128 892 114 907 q 143 858 143 878 q 139 839 143 847 l 81 704 l 42 713 l 46 858 z "},"“":{"ha":307,"x_min":42,"x_max":265,"o":"m 139 858 l 147 693 l 108 685 l 46 839 q 42 858 42 847 q 56 892 42 878 q 90 907 71 907 q 124 892 110 907 q 139 858 138 878 m 265 858 l 256 713 l 217 704 l 172 839 q 168 858 168 856 q 183 892 168 878 q 217 907 197 907 q 251 892 236 907 q 265 858 265 878 z "},"”":{"ha":307,"x_min":42,"x_max":265,"o":"m 160 693 l 168 858 q 183 892 169 878 q 217 907 197 907 q 251 892 236 907 q 265 858 265 878 q 261 839 265 847 l 199 685 l 160 693 m 51 713 l 42 858 q 56 892 42 878 q 90 907 71 907 q 124 892 110 907 q 139 858 139 878 q 135 839 139 856 l 90 704 l 51 713 z "},"†":{"ha":389,"x_min":28,"x_max":361,"o":"m 28 360 l 28 457 l 146 457 l 146 957 l 243 957 l 243 457 l 361 457 l 361 360 l 243 360 l 243 -268 l 146 -268 l 146 360 l 28 360 z "},"‡":{"ha":389,"x_min":28,"x_max":361,"o":"m 28 360 l 28 457 l 146 457 l 146 957 l 243 957 l 243 457 l 361 457 l 361 360 l 243 360 l 243 97 l 361 97 l 361 0 l 243 0 l 243 -268 l 146 -268 l 146 0 l 28 0 l 28 97 l 146 97 l 146 360 l 28 360 z "},"•":{"ha":194,"x_min":42,"x_max":153,"o":"m 58 433 q 50 442 58 433 q 42 472 42 450 q 58 511 42 494 q 97 528 75 528 q 136 511 119 528 q 153 472 153 494 q 136 433 153 450 q 97 417 119 417 q 58 433 75 417 z "},"…":{"ha":542,"x_min":42,"x_max":500,"o":"m 56 15 q 49 22 56 15 q 42 49 42 29 q 56 83 42 68 q 90 97 71 97 q 124 83 110 97 q 139 49 139 68 q 124 15 139 29 q 90 0 110 0 q 56 15 71 0 m 237 15 q 230 22 237 15 q 222 49 222 29 q 237 83 222 68 q 271 97 251 97 q 305 83 290 97 q 319 49 319 68 q 305 15 319 29 q 271 0 290 0 q 237 15 251 0 m 417 15 q 410 22 417 15 q 403 49 403 29 q 417 83 403 68 q 451 97 432 97 q 485 83 471 97 q 500 49 500 68 q 485 15 500 29 q 451 0 471 0 q 417 15 432 0 z "},"‰":{"ha":1267,"x_min":42,"x_max":1225,"o":"m 590 294 q 649 435 590 376 q 788 493 707 493 q 829 489 808 493 q 892 619 835 565 q 1026 674 949 674 q 1167 615 1108 674 q 1225 475 1225 557 q 1167 335 1225 393 q 1026 278 1108 278 q 986 282 1006 278 q 924 151 981 204 q 788 97 867 97 q 648 156 706 97 q 590 294 590 214 m 42 572 q 100 713 42 654 q 239 771 158 771 q 379 713 321 771 q 438 572 438 654 q 379 433 438 490 q 239 375 321 375 q 100 433 158 375 q 42 572 42 492 m 204 0 l 704 857 l 817 857 l 317 0 l 204 0 m 717 365 q 703 351 717 365 q 689 294 689 336 q 717 224 689 253 q 788 194 746 194 q 859 224 829 194 q 889 294 889 253 q 859 365 889 336 q 788 394 829 394 q 717 365 746 394 m 956 546 q 942 531 956 546 q 928 475 928 517 q 956 404 928 433 q 1026 375 985 375 q 1098 404 1068 375 q 1128 475 1128 433 q 1098 546 1128 517 q 1026 575 1068 575 q 956 546 985 575 m 169 643 q 155 628 169 643 q 140 572 140 614 q 169 501 140 531 q 239 472 197 472 q 310 501 281 472 q 340 572 340 531 q 310 643 340 614 q 239 672 281 672 q 169 643 197 672 z "},"⁄":{"ha":293,"x_min":14,"x_max":279,"o":"m 14 0 l 181 957 l 279 957 l 113 0 l 14 0 z "},"₡":{"ha":653,"x_min":42,"x_max":611,"o":"m 124 0 l 154 178 q 42 479 42 283 q 101 714 42 613 q 269 843 161 815 l 290 957 l 389 957 l 371 851 q 422 843 397 850 l 443 957 l 542 957 l 514 799 q 611 672 574 756 l 524 622 q 492 675 510 650 l 413 218 q 524 336 485 250 l 611 286 q 393 108 542 132 l 375 0 l 276 0 l 294 110 q 243 122 268 114 l 222 0 l 124 0 m 406 743 q 354 756 379 753 l 261 226 q 311 207 282 214 l 406 743 m 139 479 q 178 315 139 389 l 249 722 q 169 625 200 689 q 139 479 139 561 z "},"₣":{"ha":597,"x_min":28,"x_max":542,"o":"m 28 139 l 28 194 l 97 194 l 97 957 l 542 957 l 542 860 l 194 860 l 194 457 l 542 457 l 542 360 l 194 360 l 194 194 l 292 194 l 292 139 l 194 139 l 194 0 l 97 0 l 97 139 l 28 139 z "},"₤":{"ha":553,"x_min":42,"x_max":511,"o":"m 325 583 l 325 556 l 511 556 l 511 458 l 325 458 l 325 375 l 511 375 l 511 278 l 322 278 q 257 97 311 167 l 511 97 l 511 0 l 42 0 l 42 97 l 51 97 q 169 142 128 100 q 222 278 210 185 l 42 278 l 42 375 l 228 375 l 228 458 l 42 458 l 42 556 l 228 556 l 228 625 q 301 867 228 778 q 511 957 375 957 l 511 860 q 369 795 414 860 q 325 583 325 731 z "},"₫":{"ha":669,"x_min":42,"x_max":642,"o":"m 419 790 l 419 846 l 471 846 l 471 957 l 569 957 l 569 846 l 642 846 l 642 790 l 569 790 l 569 174 l 471 174 l 471 232 q 306 174 392 174 q 117 254 192 174 q 42 450 42 335 q 117 647 42 567 q 306 728 192 728 q 471 668 406 728 l 471 790 l 419 790 m 140 450 q 187 324 140 375 q 306 272 233 272 q 422 321 376 272 q 471 443 468 369 l 471 450 q 424 578 471 526 q 306 629 378 629 q 187 578 233 629 q 140 450 140 526 m 572 97 l 572 0 l 42 0 l 42 97 l 572 97 z "},"€":{"ha":514,"x_min":42,"x_max":472,"o":"m 42 458 l 42 556 l 74 556 q 198 853 93 736 q 472 971 303 971 l 472 875 q 273 788 356 875 q 172 556 190 700 l 469 556 l 469 458 l 167 458 q 175 375 167 428 l 469 375 l 469 278 l 204 278 q 313 134 242 186 q 472 82 383 82 l 472 -14 q 238 66 333 -14 q 100 278 143 146 l 42 278 l 42 375 l 76 375 q 69 458 69 419 l 42 458 z "},"™":{"ha":924,"x_min":28,"x_max":896,"o":"m 833 957 l 896 478 l 797 478 l 763 746 l 672 478 l 569 478 l 479 746 l 444 478 l 346 478 l 408 957 l 511 957 l 621 631 l 731 957 l 833 957 m 28 860 l 28 957 l 333 957 l 333 860 l 229 860 l 229 478 l 132 478 l 132 860 l 28 860 z "},"−":{"ha":481,"x_min":28,"x_max":453,"o":"m 453 451 l 453 354 l 28 354 l 28 451 l 453 451 z "},"ﬀ":{"ha":874,"x_min":28,"x_max":846,"o":"m 167 0 l 167 667 l 264 667 l 264 0 l 167 0 m 264 667 l 167 667 q 222 895 167 819 q 401 971 276 971 l 401 874 q 297 831 331 874 q 264 667 264 788 m 542 0 l 542 667 l 639 667 l 639 0 l 542 0 m 639 667 l 542 667 q 597 895 542 819 q 776 971 651 971 l 776 874 q 672 831 706 874 q 639 667 639 788 m 28 622 l 28 719 l 846 719 l 846 622 l 28 622 z "}}}
